<?xml version="1.0" encoding="us-ascii" standalone="no"?><svg xmlns="http://www.w3.org/2000/svg" xmlns:xlink="http://www.w3.org/1999/xlink" contentStyleType="text/css" height="941px" preserveAspectRatio="none" style="width:919px;height:941px;background:#FFFFFF;" version="1.1" viewBox="0 0 919 941" width="919px" zoomAndPan="magnify"><defs/><g><rect fill="none" height="929.7891" style="stroke:#181818;stroke-width:0.5;" width="708" x="198" y="6"/><text fill="#000000" font-family="sans-serif" font-size="13" font-weight="bold" lengthAdjust="spacing" textLength="84" x="510" y="18.0669">RestoBook</text><rect fill="#FFFFFF" height="79.3984" style="stroke:#181818;stroke-width:1.0;" width="10" x="101" y="97.4297"/><rect fill="#FFFFFF" height="117.3984" style="stroke:#181818;stroke-width:1.0;" width="10" x="336.5" y="118.5625"/><rect fill="#FFFFFF" height="80.2656" style="stroke:#181818;stroke-width:1.0;" width="10" x="336.5" y="566.8906"/><rect fill="#FFFFFF" height="28" style="stroke:#181818;stroke-width:1.0;" width="10" x="341.5" y="619.1563"/><rect fill="#FFFFFF" height="74.2656" style="stroke:#181818;stroke-width:1.0;" width="10" x="336.5" y="757.2266"/><rect fill="#FFFFFF" height="176.3984" style="stroke:#181818;stroke-width:1.0;" width="10" x="616.5" y="205.9609"/><rect fill="#FFFFFF" height="28" style="stroke:#181818;stroke-width:1.0;" width="10" x="621.5" y="273.0938"/><rect fill="#FFFFFF" height="131.2656" style="stroke:#181818;stroke-width:1.0;" width="10" x="616.5" y="435.625"/><rect fill="#FFFFFF" height="28" style="stroke:#181818;stroke-width:1.0;" width="10" x="621.5" y="502.7578"/><rect fill="#FFFFFF" height="89.1328" style="stroke:#181818;stroke-width:1.0;" width="10" x="616.5" y="698.0938"/><rect fill="#FFFFFF" height="113.2656" style="stroke:#181818;stroke-width:1.0;" width="10" x="847.5" y="352.3594"/><rect fill="#FFFFFF" height="108.9375" style="stroke:#181818;stroke-width:1.0;" width="10" x="847.5" y="619.1563"/><rect fill="none" height="442.1328" style="stroke:#000000;stroke-width:1.5;" width="902" x="10" y="397.3594"/><line style="stroke:#181818;stroke-width:0.5;stroke-dasharray:5.0,5.0;" x1="106" x2="106" y1="87.4297" y2="856.4922"/><line style="stroke:#181818;stroke-width:0.5;stroke-dasharray:5.0,5.0;" x1="341" x2="341" y1="87.4297" y2="856.4922"/><line style="stroke:#181818;stroke-width:0.5;stroke-dasharray:5.0,5.0;" x1="621" x2="621" y1="87.4297" y2="856.4922"/><line style="stroke:#181818;stroke-width:0.5;stroke-dasharray:5.0,5.0;" x1="852" x2="852" y1="87.4297" y2="856.4922"/><text fill="#000000" font-family="sans-serif" font-size="14" lengthAdjust="spacing" textLength="166" x="20" y="84.1279">&#1055;&#1086;&#1083;&#1100;&#1079;&#1086;&#1074;&#1072;&#1090;&#1077;&#1083;&#1100;/&#1082;&#1083;&#1080;&#1077;&#1085;&#1090;</text><ellipse cx="106" cy="19.6328" fill="#E2E2F0" rx="8" ry="8" style="stroke:#181818;stroke-width:0.5;"/><path d="M106,27.6328 L106,54.6328 M93,35.6328 L119,35.6328 M106,54.6328 L93,69.6328 M106,54.6328 L119,69.6328 " fill="none" style="stroke:#181818;stroke-width:0.5;"/><text fill="#000000" font-family="sans-serif" font-size="14" lengthAdjust="spacing" textLength="166" x="20" y="868.4873">&#1055;&#1086;&#1083;&#1100;&#1079;&#1086;&#1074;&#1072;&#1090;&#1077;&#1083;&#1100;/&#1082;&#1083;&#1080;&#1077;&#1085;&#1090;</text><ellipse cx="106" cy="880.2891" fill="#E2E2F0" rx="8" ry="8" style="stroke:#181818;stroke-width:0.5;"/><path d="M106,888.2891 L106,915.2891 M93,896.2891 L119,896.2891 M106,915.2891 L93,930.2891 M106,915.2891 L119,930.2891 " fill="none" style="stroke:#181818;stroke-width:0.5;"/><rect fill="#E2E2F0" height="30.2969" rx="2.5" ry="2.5" style="stroke:#181818;stroke-width:0.5;" width="219" x="232" y="56.1328"/><text fill="#000000" font-family="sans-serif" font-size="14" lengthAdjust="spacing" textLength="205" x="239" y="76.1279">&#1057;&#1090;&#1088;&#1072;&#1085;&#1080;&#1094;&#1072; &#1072;&#1091;&#1090;&#1077;&#1085;&#1090;&#1080;&#1092;&#1080;&#1082;&#1072;&#1094;&#1080;&#1080;</text><rect fill="#E2E2F0" height="30.2969" rx="2.5" ry="2.5" style="stroke:#181818;stroke-width:0.5;" width="219" x="232" y="855.4922"/><text fill="#000000" font-family="sans-serif" font-size="14" lengthAdjust="spacing" textLength="205" x="239" y="875.4873">&#1057;&#1090;&#1088;&#1072;&#1085;&#1080;&#1094;&#1072; &#1072;&#1091;&#1090;&#1077;&#1085;&#1090;&#1080;&#1092;&#1080;&#1082;&#1072;&#1094;&#1080;&#1080;</text><rect fill="#E2E2F0" height="30.2969" rx="2.5" ry="2.5" style="stroke:#181818;stroke-width:0.5;" width="201" x="521" y="56.1328"/><text fill="#000000" font-family="sans-serif" font-size="14" lengthAdjust="spacing" textLength="187" x="528" y="76.1279">&#1057;&#1077;&#1088;&#1074;&#1080;&#1089; &#1072;&#1091;&#1090;&#1077;&#1085;&#1090;&#1080;&#1092;&#1080;&#1082;&#1072;&#1094;&#1080;&#1080;</text><rect fill="#E2E2F0" height="30.2969" rx="2.5" ry="2.5" style="stroke:#181818;stroke-width:0.5;" width="201" x="521" y="855.4922"/><text fill="#000000" font-family="sans-serif" font-size="14" lengthAdjust="spacing" textLength="187" x="528" y="875.4873">&#1057;&#1077;&#1088;&#1074;&#1080;&#1089; &#1072;&#1091;&#1090;&#1077;&#1085;&#1090;&#1080;&#1092;&#1080;&#1082;&#1072;&#1094;&#1080;&#1080;</text><text fill="#000000" font-family="sans-serif" font-size="14" lengthAdjust="spacing" textLength="93" x="803" y="84.1279">&#1041;&#1072;&#1079;&#1072; &#1076;&#1072;&#1085;&#1085;&#1099;&#1093;</text><path d="M834.5,35.1328 C834.5,25.1328 852.5,25.1328 852.5,25.1328 C852.5,25.1328 870.5,25.1328 870.5,35.1328 L870.5,61.1328 C870.5,71.1328 852.5,71.1328 852.5,71.1328 C852.5,71.1328 834.5,71.1328 834.5,61.1328 L834.5,35.1328 " fill="#E2E2F0" style="stroke:#181818;stroke-width:1.5;"/><path d="M834.5,35.1328 C834.5,45.1328 852.5,45.1328 852.5,45.1328 C852.5,45.1328 870.5,45.1328 870.5,35.1328 " fill="none" style="stroke:#181818;stroke-width:1.5;"/><text fill="#000000" font-family="sans-serif" font-size="14" lengthAdjust="spacing" textLength="93" x="803" y="868.4873">&#1041;&#1072;&#1079;&#1072; &#1076;&#1072;&#1085;&#1085;&#1099;&#1093;</text><path d="M834.5,881.7891 C834.5,871.7891 852.5,871.7891 852.5,871.7891 C852.5,871.7891 870.5,871.7891 870.5,881.7891 L870.5,907.7891 C870.5,917.7891 852.5,917.7891 852.5,917.7891 C852.5,917.7891 834.5,917.7891 834.5,907.7891 L834.5,881.7891 " fill="#E2E2F0" style="stroke:#181818;stroke-width:1.5;"/><path d="M834.5,881.7891 C834.5,891.7891 852.5,891.7891 852.5,891.7891 C852.5,891.7891 870.5,891.7891 870.5,881.7891 " fill="none" style="stroke:#181818;stroke-width:1.5;"/><rect fill="#FFFFFF" height="79.3984" style="stroke:#181818;stroke-width:1.0;" width="10" x="101" y="97.4297"/><rect fill="#FFFFFF" height="117.3984" style="stroke:#181818;stroke-width:1.0;" width="10" x="336.5" y="118.5625"/><rect fill="#FFFFFF" height="80.2656" style="stroke:#181818;stroke-width:1.0;" width="10" x="336.5" y="566.8906"/><rect fill="#FFFFFF" height="28" style="stroke:#181818;stroke-width:1.0;" width="10" x="341.5" y="619.1563"/><rect fill="#FFFFFF" height="74.2656" style="stroke:#181818;stroke-width:1.0;" width="10" x="336.5" y="757.2266"/><rect fill="#FFFFFF" height="176.3984" style="stroke:#181818;stroke-width:1.0;" width="10" x="616.5" y="205.9609"/><rect fill="#FFFFFF" height="28" style="stroke:#181818;stroke-width:1.0;" width="10" x="621.5" y="273.0938"/><rect fill="#FFFFFF" height="131.2656" style="stroke:#181818;stroke-width:1.0;" width="10" x="616.5" y="435.625"/><rect fill="#FFFFFF" height="28" style="stroke:#181818;stroke-width:1.0;" width="10" x="621.5" y="502.7578"/><rect fill="#FFFFFF" height="89.1328" style="stroke:#181818;stroke-width:1.0;" width="10" x="616.5" y="698.0938"/><rect fill="#FFFFFF" height="113.2656" style="stroke:#181818;stroke-width:1.0;" width="10" x="847.5" y="352.3594"/><rect fill="#FFFFFF" height="108.9375" style="stroke:#181818;stroke-width:1.0;" width="10" x="847.5" y="619.1563"/><line style="stroke:#181818;stroke-width:1.0;" x1="334.5" x2="324.5" y1="118.5625" y2="114.5625"/><line style="stroke:#181818;stroke-width:1.0;" x1="334.5" x2="324.5" y1="118.5625" y2="122.5625"/><line style="stroke:#181818;stroke-width:1.0;" x1="111" x2="335.5" y1="118.5625" y2="118.5625"/><text fill="#000000" font-family="sans-serif" font-size="13" font-weight="bold" lengthAdjust="spacing" textLength="21" x="167.25" y="113.4966">[1]</text><text fill="#000000" font-family="sans-serif" font-size="13" lengthAdjust="spacing" textLength="44" x="192.25" y="113.4966">&#1074;&#1074;&#1077;&#1089;&#1090;&#1080;</text><text fill="#000000" font-family="sans-serif" font-size="13" lengthAdjust="spacing" textLength="4" x="236.25" y="113.4966">&#160;</text><text fill="#000000" font-family="sans-serif" font-size="13" lengthAdjust="spacing" textLength="40" x="240.25" y="113.4966">&#1083;&#1086;&#1075;&#1080;&#1085;</text><line style="stroke:#181818;stroke-width:1.0;" x1="334.5" x2="324.5" y1="147.6953" y2="143.6953"/><line style="stroke:#181818;stroke-width:1.0;" x1="334.5" x2="324.5" y1="147.6953" y2="151.6953"/><line style="stroke:#181818;stroke-width:1.0;" x1="111" x2="335.5" y1="147.6953" y2="147.6953"/><text fill="#000000" font-family="sans-serif" font-size="13" font-weight="bold" lengthAdjust="spacing" textLength="21" x="163.25" y="142.6294">[2]</text><text fill="#000000" font-family="sans-serif" font-size="13" lengthAdjust="spacing" textLength="44" x="188.25" y="142.6294">&#1074;&#1074;&#1077;&#1089;&#1090;&#1080;</text><text fill="#000000" font-family="sans-serif" font-size="13" lengthAdjust="spacing" textLength="4" x="232.25" y="142.6294">&#160;</text><text fill="#000000" font-family="sans-serif" font-size="13" lengthAdjust="spacing" textLength="48" x="236.25" y="142.6294">&#1087;&#1072;&#1088;&#1086;&#1083;&#1100;</text><polygon fill="#181818" points="324.5,172.8281,334.5,176.8281,324.5,180.8281,328.5,176.8281" style="stroke:#181818;stroke-width:1.0;"/><line style="stroke:#181818;stroke-width:1.0;" x1="106" x2="330.5" y1="176.8281" y2="176.8281"/><text fill="#000000" font-family="sans-serif" font-size="13" font-weight="bold" lengthAdjust="spacing" textLength="20" x="153.75" y="171.7622">[3]</text><text fill="#000000" font-family="sans-serif" font-size="13" lengthAdjust="spacing" textLength="111" x="177.75" y="171.7622">pressLoginButton</text><polygon fill="#181818" points="604.5,201.9609,614.5,205.9609,604.5,209.9609,608.5,205.9609" style="stroke:#181818;stroke-width:1.0;"/><line style="stroke:#181818;stroke-width:1.0;" x1="346.5" x2="610.5" y1="205.9609" y2="205.9609"/><text fill="#000000" font-family="sans-serif" font-size="13" font-weight="bold" lengthAdjust="spacing" textLength="21" x="381" y="200.895">[4]</text><text fill="#000000" font-family="sans-serif" font-size="13" lengthAdjust="spacing" textLength="68" x="406" y="200.895">&#1086;&#1090;&#1087;&#1088;&#1072;&#1074;&#1080;&#1090;&#1100;</text><text fill="#000000" font-family="sans-serif" font-size="13" lengthAdjust="spacing" textLength="4" x="474" y="200.895">&#160;</text><text fill="#000000" font-family="sans-serif" font-size="13" lengthAdjust="spacing" textLength="40" x="478" y="200.895">&#1083;&#1086;&#1075;&#1080;&#1085;</text><text fill="#000000" font-family="sans-serif" font-size="13" lengthAdjust="spacing" textLength="4" x="518" y="200.895">&#160;</text><text fill="#000000" font-family="sans-serif" font-size="13" lengthAdjust="spacing" textLength="8" x="522" y="200.895">&#1080;</text><text fill="#000000" font-family="sans-serif" font-size="13" lengthAdjust="spacing" textLength="4" x="530" y="200.895">&#160;</text><text fill="#000000" font-family="sans-serif" font-size="13" lengthAdjust="spacing" textLength="48" x="534" y="200.895">&#1087;&#1072;&#1088;&#1086;&#1083;&#1100;</text><line style="stroke:#181818;stroke-width:1.0;" x1="631.5" x2="673.5" y1="265.0938" y2="265.0938"/><line style="stroke:#181818;stroke-width:1.0;" x1="673.5" x2="673.5" y1="265.0938" y2="278.0938"/><line style="stroke:#181818;stroke-width:1.0;" x1="632.5" x2="673.5" y1="278.0938" y2="278.0938"/><polygon fill="#181818" points="642.5,274.0938,632.5,278.0938,642.5,282.0938,638.5,278.0938" style="stroke:#181818;stroke-width:1.0;"/><text fill="#000000" font-family="sans-serif" font-size="13" font-weight="bold" lengthAdjust="spacing" textLength="21" x="638.5" y="260.0278">[5]</text><text fill="#000000" font-family="sans-serif" font-size="13" lengthAdjust="spacing" textLength="99" x="663.5" y="260.0278">&#1089;&#1075;&#1077;&#1085;&#1077;&#1088;&#1080;&#1088;&#1086;&#1074;&#1072;&#1090;&#1100;</text><text fill="#000000" font-family="sans-serif" font-size="13" lengthAdjust="spacing" textLength="4" x="762.5" y="260.0278">&#160;</text><text fill="#000000" font-family="sans-serif" font-size="13" lengthAdjust="spacing" textLength="27" x="766.5" y="260.0278">&#1093;&#1077;&#1096;</text><text fill="#000000" font-family="sans-serif" font-size="13" lengthAdjust="spacing" textLength="4" x="793.5" y="260.0278">&#160;</text><text fill="#000000" font-family="sans-serif" font-size="13" lengthAdjust="spacing" textLength="48" x="797.5" y="260.0278">&#1087;&#1072;&#1088;&#1086;&#1083;&#1103;</text><polygon fill="#181818" points="835.5,348.3594,845.5,352.3594,835.5,356.3594,839.5,352.3594" style="stroke:#181818;stroke-width:1.0;"/><line style="stroke:#181818;stroke-width:1.0;" x1="626.5" x2="841.5" y1="352.3594" y2="352.3594"/><text fill="#000000" font-family="sans-serif" font-size="13" font-weight="bold" lengthAdjust="spacing" textLength="21" x="660" y="339.7271">[6]</text><text fill="#000000" font-family="sans-serif" font-size="13" lengthAdjust="spacing" textLength="69" x="685" y="332.1606">&#1087;&#1088;&#1086;&#1074;&#1077;&#1088;&#1080;&#1090;&#1100;</text><text fill="#000000" font-family="sans-serif" font-size="13" lengthAdjust="spacing" textLength="4" x="754" y="332.1606">&#160;</text><text fill="#000000" font-family="sans-serif" font-size="13" lengthAdjust="spacing" textLength="56" x="758" y="332.1606">&#1085;&#1072;&#1083;&#1080;&#1095;&#1080;&#1077;</text><text fill="#000000" font-family="sans-serif" font-size="13" lengthAdjust="spacing" textLength="93" x="703" y="347.2935">&#1087;&#1086;&#1083;&#1100;&#1079;&#1086;&#1074;&#1072;&#1090;&#1077;&#1083;&#1103;</text><path d="M10,397.3594 L76,397.3594 L76,404.4922 L66,414.4922 L10,414.4922 L10,397.3594 " fill="#EEEEEE" style="stroke:#000000;stroke-width:1.5;"/><rect fill="none" height="442.1328" style="stroke:#000000;stroke-width:1.5;" width="902" x="10" y="397.3594"/><text fill="#000000" font-family="sans-serif" font-size="13" font-weight="bold" lengthAdjust="spacing" textLength="21" x="25" y="410.4263">alt</text><text fill="#000000" font-family="sans-serif" font-size="11" font-weight="bold" lengthAdjust="spacing" textLength="194" x="91" y="409.5698">[&#1059;&#1089;&#1087;&#1077;&#1096;&#1085;&#1072;&#1103; &#1072;&#1091;&#1090;&#1077;&#1085;&#1090;&#1080;&#1092;&#1080;&#1082;&#1072;&#1094;&#1080;&#1103;]</text><polygon fill="#181818" points="637.5,431.625,627.5,435.625,637.5,439.625,633.5,435.625" style="stroke:#181818;stroke-width:1.0;"/><line style="stroke:#181818;stroke-width:1.0;stroke-dasharray:2.0,2.0;" x1="631.5" x2="846.5" y1="435.625" y2="435.625"/><text fill="#000000" font-family="sans-serif" font-size="13" font-weight="bold" lengthAdjust="spacing" textLength="21" x="651" y="430.5591">[7]</text><text fill="#000000" font-family="sans-serif" font-size="13" lengthAdjust="spacing" textLength="93" x="676" y="430.5591">&#1087;&#1086;&#1083;&#1100;&#1079;&#1086;&#1074;&#1072;&#1090;&#1077;&#1083;&#1100;</text><text fill="#000000" font-family="sans-serif" font-size="13" lengthAdjust="spacing" textLength="4" x="769" y="430.5591">&#160;</text><text fill="#000000" font-family="sans-serif" font-size="13" lengthAdjust="spacing" textLength="50" x="773" y="430.5591">&#1085;&#1072;&#1081;&#1076;&#1077;&#1085;</text><line style="stroke:#181818;stroke-width:1.0;" x1="631.5" x2="673.5" y1="494.7578" y2="494.7578"/><line style="stroke:#181818;stroke-width:1.0;" x1="673.5" x2="673.5" y1="494.7578" y2="507.7578"/><line style="stroke:#181818;stroke-width:1.0;" x1="632.5" x2="673.5" y1="507.7578" y2="507.7578"/><polygon fill="#181818" points="642.5,503.7578,632.5,507.7578,642.5,511.7578,638.5,507.7578" style="stroke:#181818;stroke-width:1.0;"/><text fill="#000000" font-family="sans-serif" font-size="13" font-weight="bold" lengthAdjust="spacing" textLength="21" x="638.5" y="489.6919">[8]</text><text fill="#000000" font-family="sans-serif" font-size="13" lengthAdjust="spacing" textLength="99" x="663.5" y="489.6919">&#1089;&#1075;&#1077;&#1085;&#1077;&#1088;&#1080;&#1088;&#1086;&#1074;&#1072;&#1090;&#1100;</text><text fill="#000000" font-family="sans-serif" font-size="13" lengthAdjust="spacing" textLength="4" x="762.5" y="489.6919">&#160;</text><text fill="#000000" font-family="sans-serif" font-size="13" lengthAdjust="spacing" textLength="39" x="766.5" y="489.6919">&#1090;&#1086;&#1082;&#1077;&#1085;</text><polygon fill="#181818" points="357.5,562.8906,347.5,566.8906,357.5,570.8906,353.5,566.8906" style="stroke:#181818;stroke-width:1.0;"/><line style="stroke:#181818;stroke-width:1.0;stroke-dasharray:2.0,2.0;" x1="351.5" x2="620.5" y1="566.8906" y2="566.8906"/><text fill="#000000" font-family="sans-serif" font-size="13" font-weight="bold" lengthAdjust="spacing" textLength="21" x="416" y="561.8247">[9]</text><text fill="#000000" font-family="sans-serif" font-size="13" lengthAdjust="spacing" textLength="68" x="441" y="561.8247">&#1086;&#1090;&#1087;&#1088;&#1072;&#1074;&#1080;&#1090;&#1100;</text><text fill="#000000" font-family="sans-serif" font-size="13" lengthAdjust="spacing" textLength="4" x="509" y="561.8247">&#160;</text><text fill="#000000" font-family="sans-serif" font-size="13" lengthAdjust="spacing" textLength="39" x="513" y="561.8247">&#1090;&#1086;&#1082;&#1077;&#1085;</text><line style="stroke:#181818;stroke-width:1.0;stroke-dasharray:2.0,2.0;" x1="351.5" x2="393.5" y1="611.1563" y2="611.1563"/><line style="stroke:#181818;stroke-width:1.0;stroke-dasharray:2.0,2.0;" x1="393.5" x2="393.5" y1="611.1563" y2="624.1563"/><line style="stroke:#181818;stroke-width:1.0;stroke-dasharray:2.0,2.0;" x1="352.5" x2="393.5" y1="624.1563" y2="624.1563"/><polygon fill="#181818" points="362.5,620.1563,352.5,624.1563,362.5,628.1563,358.5,624.1563" style="stroke:#181818;stroke-width:1.0;"/><text fill="#000000" font-family="sans-serif" font-size="13" font-weight="bold" lengthAdjust="spacing" textLength="31" x="358.5" y="598.5239">[10]</text><text fill="#000000" font-family="sans-serif" font-size="13" lengthAdjust="spacing" textLength="101" x="393.5" y="590.9575">&#1087;&#1077;&#1088;&#1077;&#1085;&#1072;&#1087;&#1088;&#1072;&#1074;&#1080;&#1090;&#1100;</text><text fill="#000000" font-family="sans-serif" font-size="13" lengthAdjust="spacing" textLength="4" x="494.5" y="590.9575">&#160;</text><text fill="#000000" font-family="sans-serif" font-size="13" lengthAdjust="spacing" textLength="16" x="498.5" y="590.9575">&#1085;&#1072;</text><text fill="#000000" font-family="sans-serif" font-size="13" lengthAdjust="spacing" textLength="4" x="514.5" y="590.9575">&#160;</text><text fill="#000000" font-family="sans-serif" font-size="13" lengthAdjust="spacing" textLength="60" x="518.5" y="590.9575">&#1094;&#1077;&#1083;&#1077;&#1074;&#1091;&#1102;</text><text fill="#000000" font-family="sans-serif" font-size="13" lengthAdjust="spacing" textLength="63" x="454.5" y="606.0903">&#1089;&#1090;&#1088;&#1072;&#1085;&#1080;&#1094;&#1091;</text><line style="stroke:#000000;stroke-width:1.0;stroke-dasharray:2.0,2.0;" x1="10" x2="912" y1="663.1563" y2="663.1563"/><text fill="#000000" font-family="sans-serif" font-size="11" font-weight="bold" lengthAdjust="spacing" textLength="215" x="15" y="673.3667">[&#1040;&#1091;&#1090;&#1077;&#1085;&#1090;&#1080;&#1092;&#1080;&#1082;&#1072;&#1094;&#1080;&#1103; &#1085;&#1077; &#1087;&#1088;&#1086;&#1081;&#1076;&#1077;&#1085;&#1072;]</text><polygon fill="#181818" points="637.5,694.0938,627.5,698.0938,637.5,702.0938,633.5,698.0938" style="stroke:#181818;stroke-width:1.0;"/><line style="stroke:#181818;stroke-width:1.0;stroke-dasharray:2.0,2.0;" x1="631.5" x2="846.5" y1="698.0938" y2="698.0938"/><text fill="#000000" font-family="sans-serif" font-size="13" font-weight="bold" lengthAdjust="spacing" textLength="30" x="636.5" y="693.0278">[11]</text><text fill="#000000" font-family="sans-serif" font-size="13" lengthAdjust="spacing" textLength="93" x="670.5" y="693.0278">&#1087;&#1086;&#1083;&#1100;&#1079;&#1086;&#1074;&#1072;&#1090;&#1077;&#1083;&#1100;</text><text fill="#000000" font-family="sans-serif" font-size="13" lengthAdjust="spacing" textLength="4" x="763.5" y="693.0278">&#160;</text><text fill="#000000" font-family="sans-serif" font-size="13" lengthAdjust="spacing" textLength="16" x="767.5" y="693.0278">&#1085;&#1077;</text><text fill="#000000" font-family="sans-serif" font-size="13" lengthAdjust="spacing" textLength="4" x="783.5" y="693.0278">&#160;</text><text fill="#000000" font-family="sans-serif" font-size="13" lengthAdjust="spacing" textLength="50" x="787.5" y="693.0278">&#1085;&#1072;&#1081;&#1076;&#1077;&#1085;</text><polygon fill="#181818" points="357.5,753.2266,347.5,757.2266,357.5,761.2266,353.5,757.2266" style="stroke:#181818;stroke-width:1.0;"/><line style="stroke:#181818;stroke-width:1.0;stroke-dasharray:2.0,2.0;" x1="351.5" x2="615.5" y1="757.2266" y2="757.2266"/><text fill="#000000" font-family="sans-serif" font-size="13" font-weight="bold" lengthAdjust="spacing" textLength="30" x="389.5" y="752.1606">[12]</text><text fill="#000000" font-family="sans-serif" font-size="13" lengthAdjust="spacing" textLength="75" x="423.5" y="752.1606">&#1089;&#1086;&#1086;&#1073;&#1097;&#1077;&#1085;&#1080;&#1077;</text><text fill="#000000" font-family="sans-serif" font-size="13" lengthAdjust="spacing" textLength="4" x="498.5" y="752.1606">&#160;</text><text fill="#000000" font-family="sans-serif" font-size="13" lengthAdjust="spacing" textLength="16" x="502.5" y="752.1606">&#1086;&#1073;</text><text fill="#000000" font-family="sans-serif" font-size="13" lengthAdjust="spacing" textLength="4" x="518.5" y="752.1606">&#160;</text><text fill="#000000" font-family="sans-serif" font-size="13" lengthAdjust="spacing" textLength="51" x="522.5" y="752.1606">&#1086;&#1096;&#1080;&#1073;&#1082;&#1077;</text><polygon fill="#181818" points="117,827.4922,107,831.4922,117,835.4922,113,831.4922" style="stroke:#181818;stroke-width:1.0;"/><line style="stroke:#181818;stroke-width:1.0;stroke-dasharray:2.0,2.0;" x1="111" x2="340.5" y1="831.4922" y2="831.4922"/><text fill="#000000" font-family="sans-serif" font-size="13" font-weight="bold" lengthAdjust="spacing" textLength="29" x="130.75" y="818.8599">[13]</text><text fill="#000000" font-family="sans-serif" font-size="13" lengthAdjust="spacing" textLength="54" x="163.75" y="811.2935">&#1074;&#1099;&#1074;&#1077;&#1089;&#1090;&#1080;</text><text fill="#000000" font-family="sans-serif" font-size="13" lengthAdjust="spacing" textLength="4" x="217.75" y="811.2935">&#160;</text><text fill="#000000" font-family="sans-serif" font-size="13" lengthAdjust="spacing" textLength="75" x="221.75" y="811.2935">&#1089;&#1086;&#1086;&#1073;&#1097;&#1077;&#1085;&#1080;&#1077;</text><text fill="#000000" font-family="sans-serif" font-size="13" lengthAdjust="spacing" textLength="4" x="296.75" y="811.2935">&#160;</text><text fill="#000000" font-family="sans-serif" font-size="13" lengthAdjust="spacing" textLength="16" x="300.75" y="811.2935">&#1086;&#1073;</text><text fill="#000000" font-family="sans-serif" font-size="13" lengthAdjust="spacing" textLength="51" x="214.75" y="826.4263">&#1086;&#1096;&#1080;&#1073;&#1082;&#1077;</text><!--SRC=[dPFHQXD158Rlvoc6UD6B40nwLwHWhoqKlHIHsUmqNPhEhZiJA1QXIMsjj5XzWYA-G1gDZIb9Nc7cZVpFx2RTNHefKifcXdE-yv__d5dRZKB9T-BO1F41qtkHIaGgzlaXsn87Mr9hqPQlelUIFsassOT2W9RlkbArv27R5gc9Mb4YbDaMOHYfDd_QP7dkyqxKLhmbbP4fyaNNnAgx7yYKrvu56w-RRsgCYPQ9SRPNTcPltOMzmNTe1wvlHtH-R2VsrevncBf-ZGlDknemwEMrbrARU3EEzshyaKc5qX27MYovqmJmTzTtHtPWftRiJks0WttiwG3YwYFW4zoTuZls1I1pz-rEbM97e0oHq7iWGRDG6148BP7-3G9kgFWlhsJgpjs93mq3jbQkT8KwO_Gyix-f1FMUGPE4IHLo6XKZ4-fr_-6DZOrSSxs-pg5n2AqzaiOzvYSGqsfeDN2E1ewo4In2bv59Yd6-YDkHskmQZD07D1gCPG7BKEthpm2SUyV9hRwxAAZWrL8P0QmCK4Qv7hB80h9-x7FyPW3fJd1vLcHTveWIAmoyf7cUct6yf2dqOQ_S9_ANEFTjNv7PCTp-WA8v5QPqT_cFHK0g2mFUMFQplgf6hkKFDWCSjkWUsV_XIX-7IO5JG1JcUS-8LcPYfvPZRfJsREu5ZBpwohnnnU42siF_41vzuRHdTy_G7LScJpza1q_5VbrjAO57YsdcXja1eo6NpSxrhRHxLFQyP7MfINWzmz-r-xnuYfoEvE0PJjTaMTKmZw0NGa_CdHSUsODe1JzK-1S0]--></g></svg>