<?xml version="1.0" encoding="us-ascii" standalone="no"?><svg xmlns="http://www.w3.org/2000/svg" xmlns:xlink="http://www.w3.org/1999/xlink" contentStyleType="text/css" height="752px" preserveAspectRatio="none" style="width:1326px;height:752px;background:#FFFFFF;" version="1.1" viewBox="0 0 1326 752" width="1326px" zoomAndPan="magnify"><defs/><g><rect fill="none" height="235.8672" style="stroke:#000000;stroke-width:1.5;" width="1109" x="10" y="360.4922"/><line style="stroke:#181818;stroke-width:0.5;stroke-dasharray:5.0,5.0;" x1="38" x2="38" y1="81.2969" y2="671.625"/><line style="stroke:#181818;stroke-width:0.5;stroke-dasharray:5.0,5.0;" x1="402" x2="402" y1="81.2969" y2="671.625"/><line style="stroke:#181818;stroke-width:0.5;stroke-dasharray:5.0,5.0;" x1="667" x2="667" y1="81.2969" y2="671.625"/><line style="stroke:#181818;stroke-width:0.5;stroke-dasharray:5.0,5.0;" x1="1013" x2="1013" y1="81.2969" y2="671.625"/><line style="stroke:#181818;stroke-width:0.5;stroke-dasharray:5.0,5.0;" x1="1222" x2="1222" y1="81.2969" y2="671.625"/><text fill="#000000" font-family="sans-serif" font-size="14" lengthAdjust="spacing" textLength="31" x="20" y="77.9951">User</text><ellipse cx="38.5" cy="13.5" fill="#E2E2F0" rx="8" ry="8" style="stroke:#181818;stroke-width:0.5;"/><path d="M38.5,21.5 L38.5,48.5 M25.5,29.5 L51.5,29.5 M38.5,48.5 L25.5,63.5 M38.5,48.5 L51.5,63.5 " fill="none" style="stroke:#181818;stroke-width:0.5;"/><text fill="#000000" font-family="sans-serif" font-size="14" lengthAdjust="spacing" textLength="31" x="20" y="683.6201">User</text><ellipse cx="38.5" cy="695.4219" fill="#E2E2F0" rx="8" ry="8" style="stroke:#181818;stroke-width:0.5;"/><path d="M38.5,703.4219 L38.5,730.4219 M25.5,711.4219 L51.5,711.4219 M38.5,730.4219 L25.5,745.4219 M38.5,730.4219 L51.5,745.4219 " fill="none" style="stroke:#181818;stroke-width:0.5;"/><text fill="#000000" font-family="sans-serif" font-size="14" lengthAdjust="spacing" textLength="169" x="315" y="77.9951">ClientRegistrationForm</text><path d="M382,37 L382,61 M382,49 L399,49 " fill="none" style="stroke:#181818;stroke-width:0.5;"/><ellipse cx="411" cy="49" fill="#E2E2F0" rx="12" ry="12" style="stroke:#181818;stroke-width:0.5;"/><text fill="#000000" font-family="sans-serif" font-size="14" lengthAdjust="spacing" textLength="169" x="315" y="683.6201">ClientRegistrationForm</text><path d="M382,690.9219 L382,714.9219 M382,702.9219 L399,702.9219 " fill="none" style="stroke:#181818;stroke-width:0.5;"/><ellipse cx="411" cy="702.9219" fill="#E2E2F0" rx="12" ry="12" style="stroke:#181818;stroke-width:0.5;"/><text fill="#000000" font-family="sans-serif" font-size="14" lengthAdjust="spacing" textLength="205" x="562" y="77.9951">ClientRegistrationController</text><ellipse cx="667.5" cy="49" fill="#E2E2F0" rx="12" ry="12" style="stroke:#181818;stroke-width:0.5;"/><polygon fill="#181818" points="663.5,37,669.5,32,667.5,37,669.5,42,663.5,37" style="stroke:#181818;stroke-width:1.0;"/><text fill="#000000" font-family="sans-serif" font-size="14" lengthAdjust="spacing" textLength="205" x="562" y="683.6201">ClientRegistrationController</text><ellipse cx="667.5" cy="702.9219" fill="#E2E2F0" rx="12" ry="12" style="stroke:#181818;stroke-width:0.5;"/><polygon fill="#181818" points="663.5,690.9219,669.5,685.9219,667.5,690.9219,669.5,695.9219,663.5,690.9219" style="stroke:#181818;stroke-width:1.0;"/><text fill="#000000" font-family="sans-serif" font-size="14" lengthAdjust="spacing" textLength="185" x="918" y="77.9951">ClientRegistrationService</text><ellipse cx="1013.5" cy="49" fill="#E2E2F0" rx="12" ry="12" style="stroke:#181818;stroke-width:0.5;"/><line style="stroke:#181818;stroke-width:0.5;" x1="1001.5" x2="1025.5" y1="63" y2="63"/><text fill="#000000" font-family="sans-serif" font-size="14" lengthAdjust="spacing" textLength="185" x="918" y="683.6201">ClientRegistrationService</text><ellipse cx="1013.5" cy="702.9219" fill="#E2E2F0" rx="12" ry="12" style="stroke:#181818;stroke-width:0.5;"/><line style="stroke:#181818;stroke-width:0.5;" x1="1001.5" x2="1025.5" y1="716.9219" y2="716.9219"/><text fill="#000000" font-family="sans-serif" font-size="14" lengthAdjust="spacing" textLength="200" x="1119" y="77.9951">ClientRegistrationDatabase</text><path d="M1204,29 C1204,19 1222,19 1222,19 C1222,19 1240,19 1240,29 L1240,55 C1240,65 1222,65 1222,65 C1222,65 1204,65 1204,55 L1204,29 " fill="#E2E2F0" style="stroke:#181818;stroke-width:1.5;"/><path d="M1204,29 C1204,39 1222,39 1222,39 C1222,39 1240,39 1240,29 " fill="none" style="stroke:#181818;stroke-width:1.5;"/><text fill="#000000" font-family="sans-serif" font-size="14" lengthAdjust="spacing" textLength="200" x="1119" y="683.6201">ClientRegistrationDatabase</text><path d="M1204,696.9219 C1204,686.9219 1222,686.9219 1222,686.9219 C1222,686.9219 1240,686.9219 1240,696.9219 L1240,722.9219 C1240,732.9219 1222,732.9219 1222,732.9219 C1222,732.9219 1204,732.9219 1204,722.9219 L1204,696.9219 " fill="#E2E2F0" style="stroke:#181818;stroke-width:1.5;"/><path d="M1204,696.9219 C1204,706.9219 1222,706.9219 1222,706.9219 C1222,706.9219 1240,706.9219 1240,696.9219 " fill="none" style="stroke:#181818;stroke-width:1.5;"/><polygon fill="#181818" points="390.5,108.4297,400.5,112.4297,390.5,116.4297,394.5,112.4297" style="stroke:#181818;stroke-width:1.0;"/><line style="stroke:#181818;stroke-width:1.0;" x1="38.5" x2="396.5" y1="112.4297" y2="112.4297"/><text fill="#000000" font-family="sans-serif" font-size="13" lengthAdjust="spacing" textLength="149" x="45.5" y="107.3638">&#1074;&#1099;&#1073;&#1080;&#1088;&#1072;&#1077;&#1090; &#1090;&#1080;&#1087; &#1073;&#1080;&#1079;&#1085;&#1077;&#1089;&#1072;</text><polygon fill="#181818" points="655.5,137.5625,665.5,141.5625,655.5,145.5625,659.5,141.5625" style="stroke:#181818;stroke-width:1.0;"/><line style="stroke:#181818;stroke-width:1.0;" x1="402.5" x2="661.5" y1="141.5625" y2="141.5625"/><text fill="#000000" font-family="sans-serif" font-size="13" lengthAdjust="spacing" textLength="241" x="409.5" y="136.4966">&#1086;&#1090;&#1087;&#1088;&#1072;&#1074;&#1083;&#1103;&#1077;&#1090; &#1074;&#1099;&#1073;&#1088;&#1072;&#1085;&#1085;&#1099;&#1081; &#1090;&#1080;&#1087; &#1073;&#1080;&#1079;&#1085;&#1077;&#1089;&#1072;</text><polygon fill="#181818" points="1001.5,166.6953,1011.5,170.6953,1001.5,174.6953,1005.5,170.6953" style="stroke:#181818;stroke-width:1.0;"/><line style="stroke:#181818;stroke-width:1.0;" x1="667.5" x2="1007.5" y1="170.6953" y2="170.6953"/><text fill="#000000" font-family="sans-serif" font-size="13" lengthAdjust="spacing" textLength="174" x="674.5" y="165.6294">&#1087;&#1086;&#1083;&#1091;&#1095;&#1072;&#1077;&#1090; &#1089;&#1087;&#1080;&#1089;&#1086;&#1082; &#1090;&#1072;&#1088;&#1080;&#1092;&#1086;&#1074;</text><polygon fill="#181818" points="413.5,195.8281,403.5,199.8281,413.5,203.8281,409.5,199.8281" style="stroke:#181818;stroke-width:1.0;"/><line style="stroke:#181818;stroke-width:1.0;" x1="407.5" x2="1012.5" y1="199.8281" y2="199.8281"/><text fill="#000000" font-family="sans-serif" font-size="13" lengthAdjust="spacing" textLength="191" x="419.5" y="194.7622">&#1074;&#1086;&#1079;&#1074;&#1088;&#1072;&#1097;&#1072;&#1077;&#1090; &#1089;&#1087;&#1080;&#1089;&#1086;&#1082; &#1090;&#1072;&#1088;&#1080;&#1092;&#1086;&#1074;</text><polygon fill="#181818" points="49.5,224.9609,39.5,228.9609,49.5,232.9609,45.5,228.9609" style="stroke:#181818;stroke-width:1.0;"/><line style="stroke:#181818;stroke-width:1.0;" x1="43.5" x2="401.5" y1="228.9609" y2="228.9609"/><text fill="#000000" font-family="sans-serif" font-size="13" lengthAdjust="spacing" textLength="192" x="55.5" y="223.895">&#1086;&#1090;&#1086;&#1073;&#1088;&#1072;&#1078;&#1072;&#1077;&#1090; &#1089;&#1087;&#1080;&#1089;&#1086;&#1082; &#1090;&#1072;&#1088;&#1080;&#1092;&#1086;&#1074;</text><polygon fill="#181818" points="390.5,254.0938,400.5,258.0938,390.5,262.0938,394.5,258.0938" style="stroke:#181818;stroke-width:1.0;"/><line style="stroke:#181818;stroke-width:1.0;" x1="38.5" x2="396.5" y1="258.0938" y2="258.0938"/><text fill="#000000" font-family="sans-serif" font-size="13" lengthAdjust="spacing" textLength="187" x="45.5" y="253.0278">&#1074;&#1074;&#1086;&#1076;&#1080;&#1090; &#1082;&#1086;&#1085;&#1090;&#1072;&#1082;&#1090;&#1085;&#1099;&#1077; &#1076;&#1072;&#1085;&#1085;&#1099;&#1077;</text><polygon fill="#181818" points="390.5,283.2266,400.5,287.2266,390.5,291.2266,394.5,287.2266" style="stroke:#181818;stroke-width:1.0;"/><line style="stroke:#181818;stroke-width:1.0;" x1="38.5" x2="396.5" y1="287.2266" y2="287.2266"/><text fill="#000000" font-family="sans-serif" font-size="13" lengthAdjust="spacing" textLength="234" x="45.5" y="282.1606">&#1087;&#1086;&#1076;&#1090;&#1074;&#1077;&#1088;&#1078;&#1076;&#1072;&#1077;&#1090; &#1074;&#1074;&#1077;&#1076;&#1077;&#1085;&#1085;&#1099;&#1077; &#1076;&#1072;&#1085;&#1085;&#1099;&#1077;</text><polygon fill="#181818" points="655.5,312.3594,665.5,316.3594,655.5,320.3594,659.5,316.3594" style="stroke:#181818;stroke-width:1.0;"/><line style="stroke:#181818;stroke-width:1.0;" x1="402.5" x2="661.5" y1="316.3594" y2="316.3594"/><text fill="#000000" font-family="sans-serif" font-size="13" lengthAdjust="spacing" textLength="211" x="409.5" y="311.2935">&#1086;&#1090;&#1087;&#1088;&#1072;&#1074;&#1083;&#1103;&#1077;&#1090; &#1074;&#1074;&#1077;&#1076;&#1077;&#1085;&#1085;&#1099;&#1077; &#1076;&#1072;&#1085;&#1085;&#1099;&#1077;</text><polygon fill="#181818" points="1001.5,341.4922,1011.5,345.4922,1001.5,349.4922,1005.5,345.4922" style="stroke:#181818;stroke-width:1.0;"/><line style="stroke:#181818;stroke-width:1.0;" x1="667.5" x2="1007.5" y1="345.4922" y2="345.4922"/><text fill="#000000" font-family="sans-serif" font-size="13" lengthAdjust="spacing" textLength="299" x="674.5" y="340.4263">&#1087;&#1088;&#1086;&#1074;&#1077;&#1088;&#1103;&#1077;&#1090; &#1082;&#1086;&#1088;&#1088;&#1077;&#1082;&#1090;&#1085;&#1086;&#1089;&#1090;&#1100; &#1074;&#1074;&#1077;&#1076;&#1077;&#1085;&#1085;&#1099;&#1093; &#1076;&#1072;&#1085;&#1085;&#1099;&#1093;</text><path d="M10,360.4922 L76,360.4922 L76,367.625 L66,377.625 L10,377.625 L10,360.4922 " fill="#EEEEEE" style="stroke:#000000;stroke-width:1.5;"/><rect fill="none" height="235.8672" style="stroke:#000000;stroke-width:1.5;" width="1109" x="10" y="360.4922"/><text fill="#000000" font-family="sans-serif" font-size="13" font-weight="bold" lengthAdjust="spacing" textLength="21" x="25" y="373.5591">alt</text><text fill="#000000" font-family="sans-serif" font-size="11" font-weight="bold" lengthAdjust="spacing" textLength="156" x="91" y="372.7026">[&#1076;&#1072;&#1085;&#1085;&#1099;&#1077; &#1085;&#1077;&#1082;&#1086;&#1088;&#1088;&#1077;&#1082;&#1090;&#1085;&#1099;]</text><polygon fill="#181818" points="413.5,394.7578,403.5,398.7578,413.5,402.7578,409.5,398.7578" style="stroke:#181818;stroke-width:1.0;"/><line style="stroke:#181818;stroke-width:1.0;" x1="407.5" x2="1012.5" y1="398.7578" y2="398.7578"/><text fill="#000000" font-family="sans-serif" font-size="13" lengthAdjust="spacing" textLength="234" x="419.5" y="393.6919">&#1074;&#1086;&#1079;&#1074;&#1088;&#1072;&#1097;&#1072;&#1077;&#1090; &#1089;&#1086;&#1086;&#1073;&#1097;&#1077;&#1085;&#1080;&#1077; &#1086;&#1073; &#1086;&#1096;&#1080;&#1073;&#1082;&#1077;</text><polygon fill="#181818" points="390.5,423.8906,400.5,427.8906,390.5,431.8906,394.5,427.8906" style="stroke:#181818;stroke-width:1.0;"/><line style="stroke:#181818;stroke-width:1.0;" x1="38.5" x2="396.5" y1="427.8906" y2="427.8906"/><text fill="#000000" font-family="sans-serif" font-size="13" lengthAdjust="spacing" textLength="133" x="45.5" y="422.8247">&#1080;&#1089;&#1087;&#1088;&#1072;&#1074;&#1083;&#1103;&#1077;&#1090; &#1076;&#1072;&#1085;&#1085;&#1099;&#1077;</text><polygon fill="#181818" points="655.5,453.0234,665.5,457.0234,655.5,461.0234,659.5,457.0234" style="stroke:#181818;stroke-width:1.0;"/><line style="stroke:#181818;stroke-width:1.0;" x1="402.5" x2="661.5" y1="457.0234" y2="457.0234"/><text fill="#000000" font-family="sans-serif" font-size="13" lengthAdjust="spacing" textLength="234" x="409.5" y="451.9575">&#1086;&#1090;&#1087;&#1088;&#1072;&#1074;&#1083;&#1103;&#1077;&#1090; &#1080;&#1089;&#1087;&#1088;&#1072;&#1074;&#1083;&#1077;&#1085;&#1085;&#1099;&#1077; &#1076;&#1072;&#1085;&#1085;&#1099;&#1077;</text><polygon fill="#181818" points="1001.5,482.1563,1011.5,486.1563,1001.5,490.1563,1005.5,486.1563" style="stroke:#181818;stroke-width:1.0;"/><line style="stroke:#181818;stroke-width:1.0;" x1="667.5" x2="1007.5" y1="486.1563" y2="486.1563"/><text fill="#000000" font-family="sans-serif" font-size="13" lengthAdjust="spacing" textLength="322" x="674.5" y="481.0903">&#1087;&#1088;&#1086;&#1074;&#1077;&#1088;&#1103;&#1077;&#1090; &#1082;&#1086;&#1088;&#1088;&#1077;&#1082;&#1090;&#1085;&#1086;&#1089;&#1090;&#1100; &#1080;&#1089;&#1087;&#1088;&#1072;&#1074;&#1083;&#1077;&#1085;&#1085;&#1099;&#1093; &#1076;&#1072;&#1085;&#1085;&#1099;&#1093;</text><line style="stroke:#000000;stroke-width:1.0;stroke-dasharray:2.0,2.0;" x1="10" x2="1119" y1="495.1563" y2="495.1563"/><text fill="#000000" font-family="sans-serif" font-size="11" font-weight="bold" lengthAdjust="spacing" textLength="140" x="15" y="505.3667">[&#1076;&#1072;&#1085;&#1085;&#1099;&#1077; &#1082;&#1086;&#1088;&#1088;&#1077;&#1082;&#1090;&#1085;&#1099;]</text><polygon fill="#181818" points="413.5,526.0938,403.5,530.0938,413.5,534.0938,409.5,530.0938" style="stroke:#181818;stroke-width:1.0;"/><line style="stroke:#181818;stroke-width:1.0;" x1="407.5" x2="1012.5" y1="530.0938" y2="530.0938"/><text fill="#000000" font-family="sans-serif" font-size="13" lengthAdjust="spacing" textLength="339" x="419.5" y="525.0278">&#1074;&#1086;&#1079;&#1074;&#1088;&#1072;&#1097;&#1072;&#1077;&#1090; &#1089;&#1086;&#1086;&#1073;&#1097;&#1077;&#1085;&#1080;&#1077; &#1086;&#1073; &#1091;&#1089;&#1087;&#1077;&#1096;&#1085;&#1086;&#1081; &#1088;&#1077;&#1075;&#1080;&#1089;&#1090;&#1088;&#1072;&#1094;&#1080;&#1080;</text><polygon fill="#181818" points="655.5,555.2266,665.5,559.2266,655.5,563.2266,659.5,559.2266" style="stroke:#181818;stroke-width:1.0;"/><line style="stroke:#181818;stroke-width:1.0;" x1="402.5" x2="661.5" y1="559.2266" y2="559.2266"/><text fill="#000000" font-family="sans-serif" font-size="13" lengthAdjust="spacing" textLength="203" x="409.5" y="554.1606">&#1086;&#1090;&#1087;&#1088;&#1072;&#1074;&#1083;&#1103;&#1077;&#1090; &#1076;&#1072;&#1085;&#1085;&#1099;&#1077; &#1085;&#1072; &#1089;&#1077;&#1088;&#1074;&#1077;&#1088;</text><polygon fill="#181818" points="1001.5,584.3594,1011.5,588.3594,1001.5,592.3594,1005.5,588.3594" style="stroke:#181818;stroke-width:1.0;"/><line style="stroke:#181818;stroke-width:1.0;" x1="667.5" x2="1007.5" y1="588.3594" y2="588.3594"/><text fill="#000000" font-family="sans-serif" font-size="13" lengthAdjust="spacing" textLength="236" x="674.5" y="583.2935">&#1079;&#1072;&#1087;&#1080;&#1089;&#1099;&#1074;&#1072;&#1077;&#1090; &#1076;&#1072;&#1085;&#1085;&#1099;&#1077; &#1074; &#1073;&#1072;&#1079;&#1091; &#1076;&#1072;&#1085;&#1085;&#1099;&#1093;</text><polygon fill="#181818" points="413.5,620.4922,403.5,624.4922,413.5,628.4922,409.5,624.4922" style="stroke:#181818;stroke-width:1.0;"/><line style="stroke:#181818;stroke-width:1.0;" x1="407.5" x2="1012.5" y1="624.4922" y2="624.4922"/><text fill="#000000" font-family="sans-serif" font-size="13" lengthAdjust="spacing" textLength="339" x="419.5" y="619.4263">&#1074;&#1086;&#1079;&#1074;&#1088;&#1072;&#1097;&#1072;&#1077;&#1090; &#1089;&#1086;&#1086;&#1073;&#1097;&#1077;&#1085;&#1080;&#1077; &#1086;&#1073; &#1091;&#1089;&#1087;&#1077;&#1096;&#1085;&#1086;&#1081; &#1088;&#1077;&#1075;&#1080;&#1089;&#1090;&#1088;&#1072;&#1094;&#1080;&#1080;</text><polygon fill="#181818" points="49.5,649.625,39.5,653.625,49.5,657.625,45.5,653.625" style="stroke:#181818;stroke-width:1.0;"/><line style="stroke:#181818;stroke-width:1.0;" x1="43.5" x2="401.5" y1="653.625" y2="653.625"/><text fill="#000000" font-family="sans-serif" font-size="13" lengthAdjust="spacing" textLength="340" x="55.5" y="648.5591">&#1086;&#1090;&#1086;&#1073;&#1088;&#1072;&#1078;&#1072;&#1077;&#1090; &#1089;&#1086;&#1086;&#1073;&#1097;&#1077;&#1085;&#1080;&#1077; &#1086;&#1073; &#1091;&#1089;&#1087;&#1077;&#1096;&#1085;&#1086;&#1081; &#1088;&#1077;&#1075;&#1080;&#1089;&#1090;&#1088;&#1072;&#1094;&#1080;&#1080;</text><!--SRC=[rLLRJeD05FsVLSm6t80V_jIu08qBe2qn90W9HHF_-h1gKnEtGh48rfHkuSwEF7SAgL1QgQqn_X1cXZddt7DkBaRBTprvsJ4zqNHldBRXtSc6RPcEVsvUMHtVCtpBTSvSxrgqNCVtNBlYkB4yiG624yklWhWmlLkhPOgsuHjDesDMV7AQ7Gd1UkJHoGObnv92DQO99QfB0KMgBrMV4bf8tgEOvjZhKI2ghrS3hse0V0gyXGOFwKEzQ8ebfzwSqnplxxLPLzZLt9at85vG2iA1Uiphwc4hmJEb6TC5u4_KFPQXs8YptJdSZL4Bwb2Z7x7a7d98cLTfPinR3S0QuMgHKzo0wpEypXc2PdYoxv74MHv2z3qSUph5tH3Ikf0upKHgdWZBACSg0X-uUtObsw5fm9KkoylPu1eMNR1frx3ggRvwNfEXXbzagA4mRB-WIt9Nbz7K-B2zb-h-6MbD2NDYoIu-OJK1UOsCkTVMBF-zC0jqVnrffPXoiAQDaLjCzYzInMZZqH0XMrJ08vJvNxa65CC83_WuEN1SfOOEM1xF0ktlNZd5GDQJ3jXXFbSAT27_7WAArQ0KYDCM_yBmxMD-7z9F]--></g></svg>