<?xml version="1.0" encoding="us-ascii" standalone="no"?><svg xmlns="http://www.w3.org/2000/svg" xmlns:xlink="http://www.w3.org/1999/xlink" contentStyleType="text/css" height="956px" preserveAspectRatio="none" style="width:919px;height:956px;background:#FFFFFF;" version="1.1" viewBox="0 0 919 956" width="919px" zoomAndPan="magnify"><defs/><g><rect fill="none" height="944.9219" style="stroke:#181818;stroke-width:0.5;" width="708" x="198" y="6"/><text fill="#000000" font-family="sans-serif" font-size="13" font-weight="bold" lengthAdjust="spacing" textLength="84" x="510" y="18.0669">RestoBook</text><rect fill="#FFFFFF" height="94.5313" style="stroke:#181818;stroke-width:1.0;" width="10" x="101" y="97.4297"/><rect fill="#FFFFFF" height="132.5313" style="stroke:#181818;stroke-width:1.0;" width="10" x="336.5" y="118.5625"/><rect fill="#FFFFFF" height="80.2656" style="stroke:#181818;stroke-width:1.0;" width="10" x="336.5" y="582.0234"/><rect fill="#FFFFFF" height="28" style="stroke:#181818;stroke-width:1.0;" width="10" x="341.5" y="634.2891"/><rect fill="#FFFFFF" height="74.2656" style="stroke:#181818;stroke-width:1.0;" width="10" x="336.5" y="772.3594"/><rect fill="#FFFFFF" height="176.3984" style="stroke:#181818;stroke-width:1.0;" width="10" x="616.5" y="221.0938"/><rect fill="#FFFFFF" height="28" style="stroke:#181818;stroke-width:1.0;" width="10" x="621.5" y="288.2266"/><rect fill="#FFFFFF" height="131.2656" style="stroke:#181818;stroke-width:1.0;" width="10" x="616.5" y="450.7578"/><rect fill="#FFFFFF" height="28" style="stroke:#181818;stroke-width:1.0;" width="10" x="621.5" y="517.8906"/><rect fill="#FFFFFF" height="89.1328" style="stroke:#181818;stroke-width:1.0;" width="10" x="616.5" y="713.2266"/><rect fill="#FFFFFF" height="113.2656" style="stroke:#181818;stroke-width:1.0;" width="10" x="847.5" y="367.4922"/><rect fill="#FFFFFF" height="108.9375" style="stroke:#181818;stroke-width:1.0;" width="10" x="847.5" y="634.2891"/><rect fill="none" height="442.1328" style="stroke:#000000;stroke-width:1.5;" width="902" x="10" y="412.4922"/><line style="stroke:#181818;stroke-width:0.5;stroke-dasharray:5.0,5.0;" x1="106" x2="106" y1="87.4297" y2="871.625"/><line style="stroke:#181818;stroke-width:0.5;stroke-dasharray:5.0,5.0;" x1="341" x2="341" y1="87.4297" y2="871.625"/><line style="stroke:#181818;stroke-width:0.5;stroke-dasharray:5.0,5.0;" x1="621" x2="621" y1="87.4297" y2="871.625"/><line style="stroke:#181818;stroke-width:0.5;stroke-dasharray:5.0,5.0;" x1="852" x2="852" y1="87.4297" y2="871.625"/><text fill="#000000" font-family="sans-serif" font-size="14" lengthAdjust="spacing" textLength="166" x="20" y="84.1279">&#1055;&#1086;&#1083;&#1100;&#1079;&#1086;&#1074;&#1072;&#1090;&#1077;&#1083;&#1100;/&#1082;&#1083;&#1080;&#1077;&#1085;&#1090;</text><ellipse cx="106" cy="19.6328" fill="#E2E2F0" rx="8" ry="8" style="stroke:#181818;stroke-width:0.5;"/><path d="M106,27.6328 L106,54.6328 M93,35.6328 L119,35.6328 M106,54.6328 L93,69.6328 M106,54.6328 L119,69.6328 " fill="none" style="stroke:#181818;stroke-width:0.5;"/><text fill="#000000" font-family="sans-serif" font-size="14" lengthAdjust="spacing" textLength="166" x="20" y="883.6201">&#1055;&#1086;&#1083;&#1100;&#1079;&#1086;&#1074;&#1072;&#1090;&#1077;&#1083;&#1100;/&#1082;&#1083;&#1080;&#1077;&#1085;&#1090;</text><ellipse cx="106" cy="895.4219" fill="#E2E2F0" rx="8" ry="8" style="stroke:#181818;stroke-width:0.5;"/><path d="M106,903.4219 L106,930.4219 M93,911.4219 L119,911.4219 M106,930.4219 L93,945.4219 M106,930.4219 L119,945.4219 " fill="none" style="stroke:#181818;stroke-width:0.5;"/><rect fill="#E2E2F0" height="30.2969" rx="2.5" ry="2.5" style="stroke:#181818;stroke-width:0.5;" width="219" x="232" y="56.1328"/><text fill="#000000" font-family="sans-serif" font-size="14" lengthAdjust="spacing" textLength="205" x="239" y="76.1279">&#1057;&#1090;&#1088;&#1072;&#1085;&#1080;&#1094;&#1072; &#1072;&#1091;&#1090;&#1077;&#1085;&#1090;&#1080;&#1092;&#1080;&#1082;&#1072;&#1094;&#1080;&#1080;</text><rect fill="#E2E2F0" height="30.2969" rx="2.5" ry="2.5" style="stroke:#181818;stroke-width:0.5;" width="219" x="232" y="870.625"/><text fill="#000000" font-family="sans-serif" font-size="14" lengthAdjust="spacing" textLength="205" x="239" y="890.6201">&#1057;&#1090;&#1088;&#1072;&#1085;&#1080;&#1094;&#1072; &#1072;&#1091;&#1090;&#1077;&#1085;&#1090;&#1080;&#1092;&#1080;&#1082;&#1072;&#1094;&#1080;&#1080;</text><rect fill="#E2E2F0" height="30.2969" rx="2.5" ry="2.5" style="stroke:#181818;stroke-width:0.5;" width="201" x="521" y="56.1328"/><text fill="#000000" font-family="sans-serif" font-size="14" lengthAdjust="spacing" textLength="187" x="528" y="76.1279">&#1057;&#1077;&#1088;&#1074;&#1080;&#1089; &#1072;&#1091;&#1090;&#1077;&#1085;&#1090;&#1080;&#1092;&#1080;&#1082;&#1072;&#1094;&#1080;&#1080;</text><rect fill="#E2E2F0" height="30.2969" rx="2.5" ry="2.5" style="stroke:#181818;stroke-width:0.5;" width="201" x="521" y="870.625"/><text fill="#000000" font-family="sans-serif" font-size="14" lengthAdjust="spacing" textLength="187" x="528" y="890.6201">&#1057;&#1077;&#1088;&#1074;&#1080;&#1089; &#1072;&#1091;&#1090;&#1077;&#1085;&#1090;&#1080;&#1092;&#1080;&#1082;&#1072;&#1094;&#1080;&#1080;</text><text fill="#000000" font-family="sans-serif" font-size="14" lengthAdjust="spacing" textLength="93" x="803" y="84.1279">&#1041;&#1072;&#1079;&#1072; &#1076;&#1072;&#1085;&#1085;&#1099;&#1093;</text><path d="M834.5,35.1328 C834.5,25.1328 852.5,25.1328 852.5,25.1328 C852.5,25.1328 870.5,25.1328 870.5,35.1328 L870.5,61.1328 C870.5,71.1328 852.5,71.1328 852.5,71.1328 C852.5,71.1328 834.5,71.1328 834.5,61.1328 L834.5,35.1328 " fill="#E2E2F0" style="stroke:#181818;stroke-width:1.5;"/><path d="M834.5,35.1328 C834.5,45.1328 852.5,45.1328 852.5,45.1328 C852.5,45.1328 870.5,45.1328 870.5,35.1328 " fill="none" style="stroke:#181818;stroke-width:1.5;"/><text fill="#000000" font-family="sans-serif" font-size="14" lengthAdjust="spacing" textLength="93" x="803" y="883.6201">&#1041;&#1072;&#1079;&#1072; &#1076;&#1072;&#1085;&#1085;&#1099;&#1093;</text><path d="M834.5,896.9219 C834.5,886.9219 852.5,886.9219 852.5,886.9219 C852.5,886.9219 870.5,886.9219 870.5,896.9219 L870.5,922.9219 C870.5,932.9219 852.5,932.9219 852.5,932.9219 C852.5,932.9219 834.5,932.9219 834.5,922.9219 L834.5,896.9219 " fill="#E2E2F0" style="stroke:#181818;stroke-width:1.5;"/><path d="M834.5,896.9219 C834.5,906.9219 852.5,906.9219 852.5,906.9219 C852.5,906.9219 870.5,906.9219 870.5,896.9219 " fill="none" style="stroke:#181818;stroke-width:1.5;"/><rect fill="#FFFFFF" height="94.5313" style="stroke:#181818;stroke-width:1.0;" width="10" x="101" y="97.4297"/><rect fill="#FFFFFF" height="132.5313" style="stroke:#181818;stroke-width:1.0;" width="10" x="336.5" y="118.5625"/><rect fill="#FFFFFF" height="80.2656" style="stroke:#181818;stroke-width:1.0;" width="10" x="336.5" y="582.0234"/><rect fill="#FFFFFF" height="28" style="stroke:#181818;stroke-width:1.0;" width="10" x="341.5" y="634.2891"/><rect fill="#FFFFFF" height="74.2656" style="stroke:#181818;stroke-width:1.0;" width="10" x="336.5" y="772.3594"/><rect fill="#FFFFFF" height="176.3984" style="stroke:#181818;stroke-width:1.0;" width="10" x="616.5" y="221.0938"/><rect fill="#FFFFFF" height="28" style="stroke:#181818;stroke-width:1.0;" width="10" x="621.5" y="288.2266"/><rect fill="#FFFFFF" height="131.2656" style="stroke:#181818;stroke-width:1.0;" width="10" x="616.5" y="450.7578"/><rect fill="#FFFFFF" height="28" style="stroke:#181818;stroke-width:1.0;" width="10" x="621.5" y="517.8906"/><rect fill="#FFFFFF" height="89.1328" style="stroke:#181818;stroke-width:1.0;" width="10" x="616.5" y="713.2266"/><rect fill="#FFFFFF" height="113.2656" style="stroke:#181818;stroke-width:1.0;" width="10" x="847.5" y="367.4922"/><rect fill="#FFFFFF" height="108.9375" style="stroke:#181818;stroke-width:1.0;" width="10" x="847.5" y="634.2891"/><line style="stroke:#181818;stroke-width:1.0;" x1="334.5" x2="324.5" y1="118.5625" y2="114.5625"/><line style="stroke:#181818;stroke-width:1.0;" x1="334.5" x2="324.5" y1="118.5625" y2="122.5625"/><line style="stroke:#181818;stroke-width:1.0;" x1="111" x2="335.5" y1="118.5625" y2="118.5625"/><text fill="#000000" font-family="sans-serif" font-size="13" font-weight="bold" lengthAdjust="spacing" textLength="21" x="167.25" y="113.4966">[1]</text><text fill="#000000" font-family="sans-serif" font-size="13" lengthAdjust="spacing" textLength="44" x="192.25" y="113.4966">&#1074;&#1074;&#1077;&#1089;&#1090;&#1080;</text><text fill="#000000" font-family="sans-serif" font-size="13" lengthAdjust="spacing" textLength="4" x="236.25" y="113.4966">&#160;</text><text fill="#000000" font-family="sans-serif" font-size="13" lengthAdjust="spacing" textLength="40" x="240.25" y="113.4966">&#1083;&#1086;&#1075;&#1080;&#1085;</text><line style="stroke:#181818;stroke-width:1.0;" x1="334.5" x2="324.5" y1="147.6953" y2="143.6953"/><line style="stroke:#181818;stroke-width:1.0;" x1="334.5" x2="324.5" y1="147.6953" y2="151.6953"/><line style="stroke:#181818;stroke-width:1.0;" x1="111" x2="335.5" y1="147.6953" y2="147.6953"/><text fill="#000000" font-family="sans-serif" font-size="13" font-weight="bold" lengthAdjust="spacing" textLength="21" x="163.25" y="142.6294">[2]</text><text fill="#000000" font-family="sans-serif" font-size="13" lengthAdjust="spacing" textLength="44" x="188.25" y="142.6294">&#1074;&#1074;&#1077;&#1089;&#1090;&#1080;</text><text fill="#000000" font-family="sans-serif" font-size="13" lengthAdjust="spacing" textLength="4" x="232.25" y="142.6294">&#160;</text><text fill="#000000" font-family="sans-serif" font-size="13" lengthAdjust="spacing" textLength="48" x="236.25" y="142.6294">&#1087;&#1072;&#1088;&#1086;&#1083;&#1100;</text><polygon fill="#181818" points="324.5,187.9609,334.5,191.9609,324.5,195.9609,328.5,191.9609" style="stroke:#181818;stroke-width:1.0;"/><line style="stroke:#181818;stroke-width:1.0;" x1="106" x2="330.5" y1="191.9609" y2="191.9609"/><text fill="#000000" font-family="sans-serif" font-size="13" font-weight="bold" lengthAdjust="spacing" textLength="20" x="152.25" y="179.3286">[3]</text><text fill="#000000" font-family="sans-serif" font-size="13" lengthAdjust="spacing" textLength="49" x="182.75" y="171.7622">&#1085;&#1072;&#1078;&#1072;&#1090;&#1100;</text><text fill="#000000" font-family="sans-serif" font-size="13" lengthAdjust="spacing" textLength="4" x="231.75" y="171.7622">&#160;</text><text fill="#000000" font-family="sans-serif" font-size="13" lengthAdjust="spacing" textLength="48" x="235.75" y="171.7622">&#1082;&#1085;&#1086;&#1087;&#1082;&#1091;</text><text fill="#000000" font-family="sans-serif" font-size="13" lengthAdjust="spacing" textLength="114" x="176.25" y="186.895">&#1072;&#1091;&#1090;&#1077;&#1085;&#1090;&#1080;&#1092;&#1080;&#1082;&#1072;&#1094;&#1080;&#1080;</text><polygon fill="#181818" points="604.5,217.0938,614.5,221.0938,604.5,225.0938,608.5,221.0938" style="stroke:#181818;stroke-width:1.0;"/><line style="stroke:#181818;stroke-width:1.0;" x1="346.5" x2="610.5" y1="221.0938" y2="221.0938"/><text fill="#000000" font-family="sans-serif" font-size="13" font-weight="bold" lengthAdjust="spacing" textLength="21" x="381" y="216.0278">[4]</text><text fill="#000000" font-family="sans-serif" font-size="13" lengthAdjust="spacing" textLength="68" x="406" y="216.0278">&#1086;&#1090;&#1087;&#1088;&#1072;&#1074;&#1080;&#1090;&#1100;</text><text fill="#000000" font-family="sans-serif" font-size="13" lengthAdjust="spacing" textLength="4" x="474" y="216.0278">&#160;</text><text fill="#000000" font-family="sans-serif" font-size="13" lengthAdjust="spacing" textLength="40" x="478" y="216.0278">&#1083;&#1086;&#1075;&#1080;&#1085;</text><text fill="#000000" font-family="sans-serif" font-size="13" lengthAdjust="spacing" textLength="4" x="518" y="216.0278">&#160;</text><text fill="#000000" font-family="sans-serif" font-size="13" lengthAdjust="spacing" textLength="8" x="522" y="216.0278">&#1080;</text><text fill="#000000" font-family="sans-serif" font-size="13" lengthAdjust="spacing" textLength="4" x="530" y="216.0278">&#160;</text><text fill="#000000" font-family="sans-serif" font-size="13" lengthAdjust="spacing" textLength="48" x="534" y="216.0278">&#1087;&#1072;&#1088;&#1086;&#1083;&#1100;</text><line style="stroke:#181818;stroke-width:1.0;" x1="631.5" x2="673.5" y1="280.2266" y2="280.2266"/><line style="stroke:#181818;stroke-width:1.0;" x1="673.5" x2="673.5" y1="280.2266" y2="293.2266"/><line style="stroke:#181818;stroke-width:1.0;" x1="632.5" x2="673.5" y1="293.2266" y2="293.2266"/><polygon fill="#181818" points="642.5,289.2266,632.5,293.2266,642.5,297.2266,638.5,293.2266" style="stroke:#181818;stroke-width:1.0;"/><text fill="#000000" font-family="sans-serif" font-size="13" font-weight="bold" lengthAdjust="spacing" textLength="21" x="638.5" y="275.1606">[5]</text><text fill="#000000" font-family="sans-serif" font-size="13" lengthAdjust="spacing" textLength="99" x="663.5" y="275.1606">&#1089;&#1075;&#1077;&#1085;&#1077;&#1088;&#1080;&#1088;&#1086;&#1074;&#1072;&#1090;&#1100;</text><text fill="#000000" font-family="sans-serif" font-size="13" lengthAdjust="spacing" textLength="4" x="762.5" y="275.1606">&#160;</text><text fill="#000000" font-family="sans-serif" font-size="13" lengthAdjust="spacing" textLength="27" x="766.5" y="275.1606">&#1093;&#1077;&#1096;</text><text fill="#000000" font-family="sans-serif" font-size="13" lengthAdjust="spacing" textLength="4" x="793.5" y="275.1606">&#160;</text><text fill="#000000" font-family="sans-serif" font-size="13" lengthAdjust="spacing" textLength="48" x="797.5" y="275.1606">&#1087;&#1072;&#1088;&#1086;&#1083;&#1103;</text><polygon fill="#181818" points="835.5,363.4922,845.5,367.4922,835.5,371.4922,839.5,367.4922" style="stroke:#181818;stroke-width:1.0;"/><line style="stroke:#181818;stroke-width:1.0;" x1="626.5" x2="841.5" y1="367.4922" y2="367.4922"/><text fill="#000000" font-family="sans-serif" font-size="13" font-weight="bold" lengthAdjust="spacing" textLength="21" x="660" y="354.8599">[6]</text><text fill="#000000" font-family="sans-serif" font-size="13" lengthAdjust="spacing" textLength="69" x="685" y="347.2935">&#1087;&#1088;&#1086;&#1074;&#1077;&#1088;&#1080;&#1090;&#1100;</text><text fill="#000000" font-family="sans-serif" font-size="13" lengthAdjust="spacing" textLength="4" x="754" y="347.2935">&#160;</text><text fill="#000000" font-family="sans-serif" font-size="13" lengthAdjust="spacing" textLength="56" x="758" y="347.2935">&#1085;&#1072;&#1083;&#1080;&#1095;&#1080;&#1077;</text><text fill="#000000" font-family="sans-serif" font-size="13" lengthAdjust="spacing" textLength="93" x="703" y="362.4263">&#1087;&#1086;&#1083;&#1100;&#1079;&#1086;&#1074;&#1072;&#1090;&#1077;&#1083;&#1103;</text><path d="M10,412.4922 L76,412.4922 L76,419.625 L66,429.625 L10,429.625 L10,412.4922 " fill="#EEEEEE" style="stroke:#000000;stroke-width:1.5;"/><rect fill="none" height="442.1328" style="stroke:#000000;stroke-width:1.5;" width="902" x="10" y="412.4922"/><text fill="#000000" font-family="sans-serif" font-size="13" font-weight="bold" lengthAdjust="spacing" textLength="21" x="25" y="425.5591">alt</text><text fill="#000000" font-family="sans-serif" font-size="11" font-weight="bold" lengthAdjust="spacing" textLength="194" x="91" y="424.7026">[&#1059;&#1089;&#1087;&#1077;&#1096;&#1085;&#1072;&#1103; &#1072;&#1091;&#1090;&#1077;&#1085;&#1090;&#1080;&#1092;&#1080;&#1082;&#1072;&#1094;&#1080;&#1103;]</text><polygon fill="#181818" points="637.5,446.7578,627.5,450.7578,637.5,454.7578,633.5,450.7578" style="stroke:#181818;stroke-width:1.0;"/><line style="stroke:#181818;stroke-width:1.0;stroke-dasharray:2.0,2.0;" x1="631.5" x2="846.5" y1="450.7578" y2="450.7578"/><text fill="#000000" font-family="sans-serif" font-size="13" font-weight="bold" lengthAdjust="spacing" textLength="21" x="651" y="445.6919">[7]</text><text fill="#000000" font-family="sans-serif" font-size="13" lengthAdjust="spacing" textLength="93" x="676" y="445.6919">&#1087;&#1086;&#1083;&#1100;&#1079;&#1086;&#1074;&#1072;&#1090;&#1077;&#1083;&#1100;</text><text fill="#000000" font-family="sans-serif" font-size="13" lengthAdjust="spacing" textLength="4" x="769" y="445.6919">&#160;</text><text fill="#000000" font-family="sans-serif" font-size="13" lengthAdjust="spacing" textLength="50" x="773" y="445.6919">&#1085;&#1072;&#1081;&#1076;&#1077;&#1085;</text><line style="stroke:#181818;stroke-width:1.0;" x1="631.5" x2="673.5" y1="509.8906" y2="509.8906"/><line style="stroke:#181818;stroke-width:1.0;" x1="673.5" x2="673.5" y1="509.8906" y2="522.8906"/><line style="stroke:#181818;stroke-width:1.0;" x1="632.5" x2="673.5" y1="522.8906" y2="522.8906"/><polygon fill="#181818" points="642.5,518.8906,632.5,522.8906,642.5,526.8906,638.5,522.8906" style="stroke:#181818;stroke-width:1.0;"/><text fill="#000000" font-family="sans-serif" font-size="13" font-weight="bold" lengthAdjust="spacing" textLength="21" x="638.5" y="504.8247">[8]</text><text fill="#000000" font-family="sans-serif" font-size="13" lengthAdjust="spacing" textLength="99" x="663.5" y="504.8247">&#1089;&#1075;&#1077;&#1085;&#1077;&#1088;&#1080;&#1088;&#1086;&#1074;&#1072;&#1090;&#1100;</text><text fill="#000000" font-family="sans-serif" font-size="13" lengthAdjust="spacing" textLength="4" x="762.5" y="504.8247">&#160;</text><text fill="#000000" font-family="sans-serif" font-size="13" lengthAdjust="spacing" textLength="39" x="766.5" y="504.8247">&#1090;&#1086;&#1082;&#1077;&#1085;</text><polygon fill="#181818" points="357.5,578.0234,347.5,582.0234,357.5,586.0234,353.5,582.0234" style="stroke:#181818;stroke-width:1.0;"/><line style="stroke:#181818;stroke-width:1.0;stroke-dasharray:2.0,2.0;" x1="351.5" x2="620.5" y1="582.0234" y2="582.0234"/><text fill="#000000" font-family="sans-serif" font-size="13" font-weight="bold" lengthAdjust="spacing" textLength="21" x="416" y="576.9575">[9]</text><text fill="#000000" font-family="sans-serif" font-size="13" lengthAdjust="spacing" textLength="68" x="441" y="576.9575">&#1086;&#1090;&#1087;&#1088;&#1072;&#1074;&#1080;&#1090;&#1100;</text><text fill="#000000" font-family="sans-serif" font-size="13" lengthAdjust="spacing" textLength="4" x="509" y="576.9575">&#160;</text><text fill="#000000" font-family="sans-serif" font-size="13" lengthAdjust="spacing" textLength="39" x="513" y="576.9575">&#1090;&#1086;&#1082;&#1077;&#1085;</text><line style="stroke:#181818;stroke-width:1.0;stroke-dasharray:2.0,2.0;" x1="351.5" x2="393.5" y1="626.2891" y2="626.2891"/><line style="stroke:#181818;stroke-width:1.0;stroke-dasharray:2.0,2.0;" x1="393.5" x2="393.5" y1="626.2891" y2="639.2891"/><line style="stroke:#181818;stroke-width:1.0;stroke-dasharray:2.0,2.0;" x1="352.5" x2="393.5" y1="639.2891" y2="639.2891"/><polygon fill="#181818" points="362.5,635.2891,352.5,639.2891,362.5,643.2891,358.5,639.2891" style="stroke:#181818;stroke-width:1.0;"/><text fill="#000000" font-family="sans-serif" font-size="13" font-weight="bold" lengthAdjust="spacing" textLength="31" x="358.5" y="613.6567">[10]</text><text fill="#000000" font-family="sans-serif" font-size="13" lengthAdjust="spacing" textLength="101" x="393.5" y="606.0903">&#1087;&#1077;&#1088;&#1077;&#1085;&#1072;&#1087;&#1088;&#1072;&#1074;&#1080;&#1090;&#1100;</text><text fill="#000000" font-family="sans-serif" font-size="13" lengthAdjust="spacing" textLength="4" x="494.5" y="606.0903">&#160;</text><text fill="#000000" font-family="sans-serif" font-size="13" lengthAdjust="spacing" textLength="16" x="498.5" y="606.0903">&#1085;&#1072;</text><text fill="#000000" font-family="sans-serif" font-size="13" lengthAdjust="spacing" textLength="4" x="514.5" y="606.0903">&#160;</text><text fill="#000000" font-family="sans-serif" font-size="13" lengthAdjust="spacing" textLength="60" x="518.5" y="606.0903">&#1094;&#1077;&#1083;&#1077;&#1074;&#1091;&#1102;</text><text fill="#000000" font-family="sans-serif" font-size="13" lengthAdjust="spacing" textLength="63" x="454.5" y="621.2231">&#1089;&#1090;&#1088;&#1072;&#1085;&#1080;&#1094;&#1091;</text><line style="stroke:#000000;stroke-width:1.0;stroke-dasharray:2.0,2.0;" x1="10" x2="912" y1="678.2891" y2="678.2891"/><text fill="#000000" font-family="sans-serif" font-size="11" font-weight="bold" lengthAdjust="spacing" textLength="215" x="15" y="688.4995">[&#1040;&#1091;&#1090;&#1077;&#1085;&#1090;&#1080;&#1092;&#1080;&#1082;&#1072;&#1094;&#1080;&#1103; &#1085;&#1077; &#1087;&#1088;&#1086;&#1081;&#1076;&#1077;&#1085;&#1072;]</text><polygon fill="#181818" points="637.5,709.2266,627.5,713.2266,637.5,717.2266,633.5,713.2266" style="stroke:#181818;stroke-width:1.0;"/><line style="stroke:#181818;stroke-width:1.0;stroke-dasharray:2.0,2.0;" x1="631.5" x2="846.5" y1="713.2266" y2="713.2266"/><text fill="#000000" font-family="sans-serif" font-size="13" font-weight="bold" lengthAdjust="spacing" textLength="30" x="636.5" y="708.1606">[11]</text><text fill="#000000" font-family="sans-serif" font-size="13" lengthAdjust="spacing" textLength="93" x="670.5" y="708.1606">&#1087;&#1086;&#1083;&#1100;&#1079;&#1086;&#1074;&#1072;&#1090;&#1077;&#1083;&#1100;</text><text fill="#000000" font-family="sans-serif" font-size="13" lengthAdjust="spacing" textLength="4" x="763.5" y="708.1606">&#160;</text><text fill="#000000" font-family="sans-serif" font-size="13" lengthAdjust="spacing" textLength="16" x="767.5" y="708.1606">&#1085;&#1077;</text><text fill="#000000" font-family="sans-serif" font-size="13" lengthAdjust="spacing" textLength="4" x="783.5" y="708.1606">&#160;</text><text fill="#000000" font-family="sans-serif" font-size="13" lengthAdjust="spacing" textLength="50" x="787.5" y="708.1606">&#1085;&#1072;&#1081;&#1076;&#1077;&#1085;</text><polygon fill="#181818" points="357.5,768.3594,347.5,772.3594,357.5,776.3594,353.5,772.3594" style="stroke:#181818;stroke-width:1.0;"/><line style="stroke:#181818;stroke-width:1.0;stroke-dasharray:2.0,2.0;" x1="351.5" x2="615.5" y1="772.3594" y2="772.3594"/><text fill="#000000" font-family="sans-serif" font-size="13" font-weight="bold" lengthAdjust="spacing" textLength="30" x="389.5" y="767.2935">[12]</text><text fill="#000000" font-family="sans-serif" font-size="13" lengthAdjust="spacing" textLength="75" x="423.5" y="767.2935">&#1089;&#1086;&#1086;&#1073;&#1097;&#1077;&#1085;&#1080;&#1077;</text><text fill="#000000" font-family="sans-serif" font-size="13" lengthAdjust="spacing" textLength="4" x="498.5" y="767.2935">&#160;</text><text fill="#000000" font-family="sans-serif" font-size="13" lengthAdjust="spacing" textLength="16" x="502.5" y="767.2935">&#1086;&#1073;</text><text fill="#000000" font-family="sans-serif" font-size="13" lengthAdjust="spacing" textLength="4" x="518.5" y="767.2935">&#160;</text><text fill="#000000" font-family="sans-serif" font-size="13" lengthAdjust="spacing" textLength="51" x="522.5" y="767.2935">&#1086;&#1096;&#1080;&#1073;&#1082;&#1077;</text><polygon fill="#181818" points="117,842.625,107,846.625,117,850.625,113,846.625" style="stroke:#181818;stroke-width:1.0;"/><line style="stroke:#181818;stroke-width:1.0;stroke-dasharray:2.0,2.0;" x1="111" x2="340.5" y1="846.625" y2="846.625"/><text fill="#000000" font-family="sans-serif" font-size="13" font-weight="bold" lengthAdjust="spacing" textLength="29" x="130.75" y="833.9927">[13]</text><text fill="#000000" font-family="sans-serif" font-size="13" lengthAdjust="spacing" textLength="54" x="163.75" y="826.4263">&#1074;&#1099;&#1074;&#1077;&#1089;&#1090;&#1080;</text><text fill="#000000" font-family="sans-serif" font-size="13" lengthAdjust="spacing" textLength="4" x="217.75" y="826.4263">&#160;</text><text fill="#000000" font-family="sans-serif" font-size="13" lengthAdjust="spacing" textLength="75" x="221.75" y="826.4263">&#1089;&#1086;&#1086;&#1073;&#1097;&#1077;&#1085;&#1080;&#1077;</text><text fill="#000000" font-family="sans-serif" font-size="13" lengthAdjust="spacing" textLength="4" x="296.75" y="826.4263">&#160;</text><text fill="#000000" font-family="sans-serif" font-size="13" lengthAdjust="spacing" textLength="16" x="300.75" y="826.4263">&#1086;&#1073;</text><text fill="#000000" font-family="sans-serif" font-size="13" lengthAdjust="spacing" textLength="51" x="214.75" y="841.5591">&#1086;&#1096;&#1080;&#1073;&#1082;&#1077;</text><!--SRC=[dPF1Qjj048Rl-nI3UyZ1c9hs5egXlGT2UoobhAoD8-98ZYL3Q2Z4TfEc93Jj4uJI5t3SEd4SPBt2xXlrdvLiIseTGZ5cjSlCD__yixknwxcATe8WSe934UvvVaTsvJuTYIrvkAN2KBRK6- -3ecVrklYO2mZLGK_vJNKajcKtyffUH_hHjdHTps_Hyxh8Sb-slPPFJUL7gejysOi2lxVlg2vLNZYDj_Lt5I5aCmgmrrTwhk_DXRx5EjOZCz0JtZ_LCtslfzZ4Pb0X6L8l10nwgV9QXL7mAWZsAlGawae_X3ZK4fsL9e1_c84vrYCTwwavrIC2UsZf0EBe4-0pd9rYdTe2aBdxVgTCqHDGnaZeFv8G2bT6qf6XGlft2BZbuh-jajYScnCRwZfYerZf2dMcw7ckRxW4zvv2EnsXV9TuL89Dg5RjGhL68zDShMuID8wXjS_Io69-0H6NGyk12HeuJaUm25r5nX1zmpCn5uHMOyGbUcQ63pfXCRMQ42bc2GojoZaI4ZiNzjI2brgfB2WbW9K2YYZJHnORnGEQsfnnfjMSuF0ipxhC40MMwrX9IPQRSgmaRXotptpcAJ3dNtSqpsn7f7z2KSA5ETrSFc0IKeNhK6tPp-Qw6fcMEzmVSCIYUsJ_Xoi3R6OvJWwHd_hV8rgRYPkt77EjS1iJAs1YrPVcZIE22sWF_p4y-afy6rUFrGnBa-SFrSQ3qj_MMyhWoMAQcM5w97Z8HRCpVMljdXGzBrXTQ19Up_6xDbyM3vPuomwUONVDbfKDimX-8VmGpNdkAJwAblF3T_y0]--></g></svg>