<?xml version="1.0" encoding="us-ascii" standalone="no"?><svg xmlns="http://www.w3.org/2000/svg" xmlns:xlink="http://www.w3.org/1999/xlink" contentStyleType="text/css" height="793px" preserveAspectRatio="none" style="width:1601px;height:793px;background:#FFFFFF;" version="1.1" viewBox="0 0 1601 793" width="1601px" zoomAndPan="magnify"><defs/><g><!--class ??????--><g id="elem_&#1050;&#1083;&#1080;&#1077;&#1085;&#1090;"><rect codeLine="3" fill="#F1F1F1" height="162.0781" id="&#1050;&#1083;&#1080;&#1077;&#1085;&#1090;" rx="2.5" ry="2.5" style="stroke:#181818;stroke-width:0.5;" width="181" x="381.5" y="7"/><ellipse cx="440.25" cy="23" fill="#ADD1B2" rx="11" ry="11" style="stroke:#181818;stroke-width:1.0;"/><path d="M439.0469,23.875 L440.5,23.875 L440.5,23.9844 C440.5,24.3906 440.5313,24.5469 440.6094,24.7031 C440.7656,24.9531 441.0469,25.1094 441.3438,25.1094 C441.5938,25.1094 441.8594,24.9688 442.0156,24.75 C442.1406,24.5938 442.1719,24.4375 442.1719,23.9844 L442.1719,22.0625 C442.1719,21.9063 442.1719,21.8594 442.1563,21.7031 C442.0938,21.2344 441.7813,20.9219 441.3281,20.9219 C441.0781,20.9219 440.8125,21.0625 440.6406,21.2813 C440.5313,21.4531 440.5,21.6094 440.5,22.0625 L440.5,22.1875 L439.0469,22.1875 L439.0469,19.7813 L443.0313,19.7813 L443.0313,20.6406 C443.0313,21.0469 443.0625,21.2188 443.1406,21.375 C443.3125,21.625 443.5938,21.7813 443.875,21.7813 C444.1406,21.7813 444.4063,21.6406 444.5781,21.4219 C444.6875,21.25 444.7188,21.1094 444.7188,20.6406 L444.7188,18.0938 L437.0938,18.0938 C436.6563,18.0938 436.5313,18.1094 436.375,18.2031 C436.125,18.3594 435.9688,18.6563 435.9688,18.9375 C435.9688,19.2188 436.1094,19.4688 436.3281,19.6406 C436.4844,19.75 436.6719,19.7813 437.0938,19.7813 L437.3438,19.7813 L437.3438,26.2969 L437.0938,26.2969 C436.6875,26.2969 436.5313,26.3125 436.375,26.4219 C436.125,26.5938 435.9688,26.8594 435.9688,27.1563 C435.9688,27.4219 436.1094,27.6719 436.3281,27.8281 C436.4688,27.9531 436.7031,28 437.0938,28 L445.0938,28 L445.0938,25.4219 C445.0938,24.9844 445.0625,24.8438 444.9844,24.6875 C444.8125,24.4375 444.5313,24.2813 444.25,24.2813 C443.9844,24.2813 443.7188,24.3906 443.5469,24.6406 C443.4375,24.7969 443.4063,24.9375 443.4063,25.4219 L443.4063,26.2969 L439.0469,26.2969 L439.0469,23.875 Z " fill="#000000"/><text fill="#000000" font-family="sans-serif" font-size="14" lengthAdjust="spacing" textLength="55" x="460.75" y="27.8467">&#1050;&#1083;&#1080;&#1077;&#1085;&#1090;</text><line style="stroke:#181818;stroke-width:0.5;" x1="382.5" x2="561.5" y1="39" y2="39"/><ellipse cx="392.5" cy="52.6484" fill="#000000" rx="3" ry="3" style="stroke:#000000;stroke-width:1.0;"/><text fill="#000000" font-family="sans-serif" font-size="14" lengthAdjust="spacing" textLength="70" x="401.5" y="55.9951">&#1053;&#1072;&#1079;&#1074;&#1072;&#1085;&#1080;&#1077;</text><ellipse cx="392.5" cy="68.9453" fill="#000000" rx="3" ry="3" style="stroke:#000000;stroke-width:1.0;"/><text fill="#000000" font-family="sans-serif" font-size="14" lengthAdjust="spacing" textLength="30" x="401.5" y="72.292">&#1048;&#1053;&#1053;</text><ellipse cx="392.5" cy="85.2422" fill="#000000" rx="3" ry="3" style="stroke:#000000;stroke-width:1.0;"/><text fill="#000000" font-family="sans-serif" font-size="14" lengthAdjust="spacing" textLength="30" x="401.5" y="88.5889">&#1050;&#1055;&#1055;</text><ellipse cx="392.5" cy="101.5391" fill="#000000" rx="3" ry="3" style="stroke:#000000;stroke-width:1.0;"/><text fill="#000000" font-family="sans-serif" font-size="14" lengthAdjust="spacing" textLength="39" x="401.5" y="104.8857">&#1054;&#1043;&#1056;&#1053;</text><ellipse cx="392.5" cy="117.8359" fill="#000000" rx="3" ry="3" style="stroke:#000000;stroke-width:1.0;"/><text fill="#000000" font-family="sans-serif" font-size="14" lengthAdjust="spacing" textLength="155" x="401.5" y="121.1826">&#1070;&#1088;&#1080;&#1076;&#1080;&#1095;&#1077;&#1089;&#1082;&#1080;&#1081; &#1072;&#1076;&#1088;&#1077;&#1089;</text><ellipse cx="392.5" cy="134.1328" fill="#000000" rx="3" ry="3" style="stroke:#000000;stroke-width:1.0;"/><text fill="#000000" font-family="sans-serif" font-size="14" lengthAdjust="spacing" textLength="117" x="401.5" y="137.4795">&#1048;&#1084;&#1103; &#1076;&#1080;&#1088;&#1077;&#1082;&#1090;&#1086;&#1088;&#1072;</text><ellipse cx="392.5" cy="150.4297" fill="#000000" rx="3" ry="3" style="stroke:#000000;stroke-width:1.0;"/><text fill="#000000" font-family="sans-serif" font-size="14" lengthAdjust="spacing" textLength="123" x="401.5" y="153.7764">&#1043;&#1086;&#1076;&#1086;&#1074;&#1086;&#1081; &#1086;&#1073;&#1086;&#1088;&#1086;&#1090;</text><line style="stroke:#181818;stroke-width:0.5;" x1="382.5" x2="561.5" y1="161.0781" y2="161.0781"/></g><!--class ???_???????--><g id="elem_&#1058;&#1080;&#1087;_&#1073;&#1080;&#1079;&#1085;&#1077;&#1089;&#1072;"><rect codeLine="13" fill="#F1F1F1" height="129.4844" id="&#1058;&#1080;&#1087;_&#1073;&#1080;&#1079;&#1085;&#1077;&#1089;&#1072;" rx="2.5" ry="2.5" style="stroke:#181818;stroke-width:0.5;" width="126" x="7" y="237.5"/><ellipse cx="22" cy="253.5" fill="#EB937F" rx="11" ry="11" style="stroke:#181818;stroke-width:1.0;"/><path d="M20.7969,254.375 L22.25,254.375 L22.25,254.4844 C22.25,254.8906 22.2813,255.0469 22.3594,255.2031 C22.5156,255.4531 22.7969,255.6094 23.0938,255.6094 C23.3438,255.6094 23.6094,255.4688 23.7656,255.25 C23.8906,255.0938 23.9219,254.9375 23.9219,254.4844 L23.9219,252.5625 C23.9219,252.4063 23.9219,252.3594 23.9063,252.2031 C23.8438,251.7344 23.5313,251.4219 23.0781,251.4219 C22.8281,251.4219 22.5625,251.5625 22.3906,251.7813 C22.2813,251.9531 22.25,252.1094 22.25,252.5625 L22.25,252.6875 L20.7969,252.6875 L20.7969,250.2813 L24.7813,250.2813 L24.7813,251.1406 C24.7813,251.5469 24.8125,251.7188 24.8906,251.875 C25.0625,252.125 25.3438,252.2813 25.625,252.2813 C25.8906,252.2813 26.1563,252.1406 26.3281,251.9219 C26.4375,251.75 26.4688,251.6094 26.4688,251.1406 L26.4688,248.5938 L18.8438,248.5938 C18.4063,248.5938 18.2813,248.6094 18.125,248.7031 C17.875,248.8594 17.7188,249.1563 17.7188,249.4375 C17.7188,249.7188 17.8594,249.9688 18.0781,250.1406 C18.2344,250.25 18.4219,250.2813 18.8438,250.2813 L19.0938,250.2813 L19.0938,256.7969 L18.8438,256.7969 C18.4375,256.7969 18.2813,256.8125 18.125,256.9219 C17.875,257.0938 17.7188,257.3594 17.7188,257.6563 C17.7188,257.9219 17.8594,258.1719 18.0781,258.3281 C18.2188,258.4531 18.4531,258.5 18.8438,258.5 L26.8438,258.5 L26.8438,255.9219 C26.8438,255.4844 26.8125,255.3438 26.7344,255.1875 C26.5625,254.9375 26.2813,254.7813 26,254.7813 C25.7344,254.7813 25.4688,254.8906 25.2969,255.1406 C25.1875,255.2969 25.1563,255.4375 25.1563,255.9219 L25.1563,256.7969 L20.7969,256.7969 L20.7969,254.375 Z " fill="#000000"/><text fill="#000000" font-family="sans-serif" font-size="14" lengthAdjust="spacing" textLength="94" x="36" y="258.3467">&#1058;&#1080;&#1087;_&#1073;&#1080;&#1079;&#1085;&#1077;&#1089;&#1072;</text><line style="stroke:#181818;stroke-width:0.5;" x1="8" x2="132" y1="269.5" y2="269.5"/><text fill="#000000" font-family="sans-serif" font-size="14" lengthAdjust="spacing" textLength="71" x="13" y="286.4951">&#1056;&#1077;&#1089;&#1090;&#1086;&#1088;&#1072;&#1085;</text><text fill="#000000" font-family="sans-serif" font-size="14" lengthAdjust="spacing" textLength="28" x="13" y="302.792">&#1041;&#1072;&#1088;</text><text fill="#000000" font-family="sans-serif" font-size="14" lengthAdjust="spacing" textLength="40" x="13" y="319.0889">&#1050;&#1072;&#1092;&#1077;</text><text fill="#000000" font-family="sans-serif" font-size="14" lengthAdjust="spacing" textLength="72" x="13" y="335.3857">&#1057;&#1090;&#1086;&#1083;&#1086;&#1074;&#1072;&#1103;</text><text fill="#000000" font-family="sans-serif" font-size="14" lengthAdjust="spacing" textLength="85" x="13" y="351.6826">&#1047;&#1072;&#1082;&#1091;&#1089;&#1086;&#1095;&#1085;&#1072;&#1103;</text><line style="stroke:#181818;stroke-width:0.5;" x1="8" x2="132" y1="358.9844" y2="358.9844"/></g><!--class ?????????????_???????--><g id="elem_&#1055;&#1088;&#1077;&#1076;&#1089;&#1090;&#1072;&#1074;&#1080;&#1090;&#1077;&#1083;&#1100;_&#1082;&#1083;&#1080;&#1077;&#1085;&#1090;&#1072;"><rect codeLine="21" fill="#F1F1F1" height="113.1875" id="&#1055;&#1088;&#1077;&#1076;&#1089;&#1090;&#1072;&#1074;&#1080;&#1090;&#1077;&#1083;&#1100;_&#1082;&#1083;&#1080;&#1077;&#1085;&#1090;&#1072;" rx="2.5" ry="2.5" style="stroke:#181818;stroke-width:0.5;" width="219" x="168.5" y="245.5"/><ellipse cx="183.5" cy="261.5" fill="#ADD1B2" rx="11" ry="11" style="stroke:#181818;stroke-width:1.0;"/><path d="M182.2969,262.375 L183.75,262.375 L183.75,262.4844 C183.75,262.8906 183.7813,263.0469 183.8594,263.2031 C184.0156,263.4531 184.2969,263.6094 184.5938,263.6094 C184.8438,263.6094 185.1094,263.4688 185.2656,263.25 C185.3906,263.0938 185.4219,262.9375 185.4219,262.4844 L185.4219,260.5625 C185.4219,260.4063 185.4219,260.3594 185.4063,260.2031 C185.3438,259.7344 185.0313,259.4219 184.5781,259.4219 C184.3281,259.4219 184.0625,259.5625 183.8906,259.7813 C183.7813,259.9531 183.75,260.1094 183.75,260.5625 L183.75,260.6875 L182.2969,260.6875 L182.2969,258.2813 L186.2813,258.2813 L186.2813,259.1406 C186.2813,259.5469 186.3125,259.7188 186.3906,259.875 C186.5625,260.125 186.8438,260.2813 187.125,260.2813 C187.3906,260.2813 187.6563,260.1406 187.8281,259.9219 C187.9375,259.75 187.9688,259.6094 187.9688,259.1406 L187.9688,256.5938 L180.3438,256.5938 C179.9063,256.5938 179.7813,256.6094 179.625,256.7031 C179.375,256.8594 179.2188,257.1563 179.2188,257.4375 C179.2188,257.7188 179.3594,257.9688 179.5781,258.1406 C179.7344,258.25 179.9219,258.2813 180.3438,258.2813 L180.5938,258.2813 L180.5938,264.7969 L180.3438,264.7969 C179.9375,264.7969 179.7813,264.8125 179.625,264.9219 C179.375,265.0938 179.2188,265.3594 179.2188,265.6563 C179.2188,265.9219 179.3594,266.1719 179.5781,266.3281 C179.7188,266.4531 179.9531,266.5 180.3438,266.5 L188.3438,266.5 L188.3438,263.9219 C188.3438,263.4844 188.3125,263.3438 188.2344,263.1875 C188.0625,262.9375 187.7813,262.7813 187.5,262.7813 C187.2344,262.7813 186.9688,262.8906 186.7969,263.1406 C186.6875,263.2969 186.6563,263.4375 186.6563,263.9219 L186.6563,264.7969 L182.2969,264.7969 L182.2969,262.375 Z " fill="#000000"/><text fill="#000000" font-family="sans-serif" font-size="14" lengthAdjust="spacing" textLength="187" x="197.5" y="266.3467">&#1055;&#1088;&#1077;&#1076;&#1089;&#1090;&#1072;&#1074;&#1080;&#1090;&#1077;&#1083;&#1100;_&#1082;&#1083;&#1080;&#1077;&#1085;&#1090;&#1072;</text><line style="stroke:#181818;stroke-width:0.5;" x1="169.5" x2="386.5" y1="277.5" y2="277.5"/><ellipse cx="179.5" cy="291.1484" fill="#000000" rx="3" ry="3" style="stroke:#000000;stroke-width:1.0;"/><text fill="#000000" font-family="sans-serif" font-size="14" lengthAdjust="spacing" textLength="30" x="188.5" y="294.4951">&#1048;&#1084;&#1103;</text><ellipse cx="179.5" cy="307.4453" fill="#000000" rx="3" ry="3" style="stroke:#000000;stroke-width:1.0;"/><text fill="#000000" font-family="sans-serif" font-size="14" lengthAdjust="spacing" textLength="68" x="188.5" y="310.792">&#1060;&#1072;&#1084;&#1080;&#1083;&#1080;&#1103;</text><ellipse cx="179.5" cy="323.7422" fill="#000000" rx="3" ry="3" style="stroke:#000000;stroke-width:1.0;"/><text fill="#000000" font-family="sans-serif" font-size="14" lengthAdjust="spacing" textLength="67" x="188.5" y="327.0889">&#1058;&#1077;&#1083;&#1077;&#1092;&#1086;&#1085;</text><ellipse cx="179.5" cy="340.0391" fill="#000000" rx="3" ry="3" style="stroke:#000000;stroke-width:1.0;"/><text fill="#000000" font-family="sans-serif" font-size="14" lengthAdjust="spacing" textLength="39" x="188.5" y="343.3857">Email</text><line style="stroke:#181818;stroke-width:0.5;" x1="169.5" x2="386.5" y1="350.6875" y2="350.6875"/></g><!--class ?????--><g id="elem_&#1058;&#1072;&#1088;&#1080;&#1092;"><rect codeLine="28" fill="#F1F1F1" height="80.5938" id="&#1058;&#1072;&#1088;&#1080;&#1092;" rx="2.5" ry="2.5" style="stroke:#181818;stroke-width:0.5;" width="99" x="422.5" y="261.5"/><ellipse cx="445.6" cy="277.5" fill="#ADD1B2" rx="11" ry="11" style="stroke:#181818;stroke-width:1.0;"/><path d="M444.3969,278.375 L445.85,278.375 L445.85,278.4844 C445.85,278.8906 445.8813,279.0469 445.9594,279.2031 C446.1156,279.4531 446.3969,279.6094 446.6938,279.6094 C446.9438,279.6094 447.2094,279.4688 447.3656,279.25 C447.4906,279.0938 447.5219,278.9375 447.5219,278.4844 L447.5219,276.5625 C447.5219,276.4063 447.5219,276.3594 447.5063,276.2031 C447.4438,275.7344 447.1313,275.4219 446.6781,275.4219 C446.4281,275.4219 446.1625,275.5625 445.9906,275.7813 C445.8813,275.9531 445.85,276.1094 445.85,276.5625 L445.85,276.6875 L444.3969,276.6875 L444.3969,274.2813 L448.3813,274.2813 L448.3813,275.1406 C448.3813,275.5469 448.4125,275.7188 448.4906,275.875 C448.6625,276.125 448.9438,276.2813 449.225,276.2813 C449.4906,276.2813 449.7563,276.1406 449.9281,275.9219 C450.0375,275.75 450.0688,275.6094 450.0688,275.1406 L450.0688,272.5938 L442.4438,272.5938 C442.0063,272.5938 441.8813,272.6094 441.725,272.7031 C441.475,272.8594 441.3188,273.1563 441.3188,273.4375 C441.3188,273.7188 441.4594,273.9688 441.6781,274.1406 C441.8344,274.25 442.0219,274.2813 442.4438,274.2813 L442.6938,274.2813 L442.6938,280.7969 L442.4438,280.7969 C442.0375,280.7969 441.8813,280.8125 441.725,280.9219 C441.475,281.0938 441.3188,281.3594 441.3188,281.6563 C441.3188,281.9219 441.4594,282.1719 441.6781,282.3281 C441.8188,282.4531 442.0531,282.5 442.4438,282.5 L450.4438,282.5 L450.4438,279.9219 C450.4438,279.4844 450.4125,279.3438 450.3344,279.1875 C450.1625,278.9375 449.8813,278.7813 449.6,278.7813 C449.3344,278.7813 449.0688,278.8906 448.8969,279.1406 C448.7875,279.2969 448.7563,279.4375 448.7563,279.9219 L448.7563,280.7969 L444.3969,280.7969 L444.3969,278.375 Z " fill="#000000"/><text fill="#000000" font-family="sans-serif" font-size="14" lengthAdjust="spacing" textLength="49" x="461.4" y="282.3467">&#1058;&#1072;&#1088;&#1080;&#1092;</text><line style="stroke:#181818;stroke-width:0.5;" x1="423.5" x2="520.5" y1="293.5" y2="293.5"/><ellipse cx="433.5" cy="307.1484" fill="#000000" rx="3" ry="3" style="stroke:#000000;stroke-width:1.0;"/><text fill="#000000" font-family="sans-serif" font-size="14" lengthAdjust="spacing" textLength="70" x="442.5" y="310.4951">&#1053;&#1072;&#1079;&#1074;&#1072;&#1085;&#1080;&#1077;</text><ellipse cx="433.5" cy="323.4453" fill="#000000" rx="3" ry="3" style="stroke:#000000;stroke-width:1.0;"/><text fill="#000000" font-family="sans-serif" font-size="14" lengthAdjust="spacing" textLength="73" x="442.5" y="326.792">&#1050;&#1086;&#1084;&#1080;&#1089;&#1089;&#1080;&#1103;</text><line style="stroke:#181818;stroke-width:0.5;" x1="423.5" x2="520.5" y1="334.0938" y2="334.0938"/></g><!--class ??????????????_?????--><g id="elem_&#1048;&#1085;&#1076;&#1080;&#1074;&#1080;&#1076;&#1091;&#1072;&#1083;&#1100;&#1085;&#1099;&#1081;_&#1058;&#1072;&#1088;&#1080;&#1092;"><rect codeLine="33" fill="#F1F1F1" height="80.5938" id="&#1048;&#1085;&#1076;&#1080;&#1074;&#1080;&#1076;&#1091;&#1072;&#1083;&#1100;&#1085;&#1099;&#1081;_&#1058;&#1072;&#1088;&#1080;&#1092;" rx="2.5" ry="2.5" style="stroke:#181818;stroke-width:0.5;" width="217" x="339.5" y="500"/><ellipse cx="354.5" cy="516" fill="#ADD1B2" rx="11" ry="11" style="stroke:#181818;stroke-width:1.0;"/><path d="M353.2969,516.875 L354.75,516.875 L354.75,516.9844 C354.75,517.3906 354.7813,517.5469 354.8594,517.7031 C355.0156,517.9531 355.2969,518.1094 355.5938,518.1094 C355.8438,518.1094 356.1094,517.9688 356.2656,517.75 C356.3906,517.5938 356.4219,517.4375 356.4219,516.9844 L356.4219,515.0625 C356.4219,514.9063 356.4219,514.8594 356.4063,514.7031 C356.3438,514.2344 356.0313,513.9219 355.5781,513.9219 C355.3281,513.9219 355.0625,514.0625 354.8906,514.2813 C354.7813,514.4531 354.75,514.6094 354.75,515.0625 L354.75,515.1875 L353.2969,515.1875 L353.2969,512.7813 L357.2813,512.7813 L357.2813,513.6406 C357.2813,514.0469 357.3125,514.2188 357.3906,514.375 C357.5625,514.625 357.8438,514.7813 358.125,514.7813 C358.3906,514.7813 358.6563,514.6406 358.8281,514.4219 C358.9375,514.25 358.9688,514.1094 358.9688,513.6406 L358.9688,511.0938 L351.3438,511.0938 C350.9063,511.0938 350.7813,511.1094 350.625,511.2031 C350.375,511.3594 350.2188,511.6563 350.2188,511.9375 C350.2188,512.2188 350.3594,512.4688 350.5781,512.6406 C350.7344,512.75 350.9219,512.7813 351.3438,512.7813 L351.5938,512.7813 L351.5938,519.2969 L351.3438,519.2969 C350.9375,519.2969 350.7813,519.3125 350.625,519.4219 C350.375,519.5938 350.2188,519.8594 350.2188,520.1563 C350.2188,520.4219 350.3594,520.6719 350.5781,520.8281 C350.7188,520.9531 350.9531,521 351.3438,521 L359.3438,521 L359.3438,518.4219 C359.3438,517.9844 359.3125,517.8438 359.2344,517.6875 C359.0625,517.4375 358.7813,517.2813 358.5,517.2813 C358.2344,517.2813 357.9688,517.3906 357.7969,517.6406 C357.6875,517.7969 357.6563,517.9375 357.6563,518.4219 L357.6563,519.2969 L353.2969,519.2969 L353.2969,516.875 Z " fill="#000000"/><text fill="#000000" font-family="sans-serif" font-size="14" lengthAdjust="spacing" textLength="185" x="368.5" y="520.8467">&#1048;&#1085;&#1076;&#1080;&#1074;&#1080;&#1076;&#1091;&#1072;&#1083;&#1100;&#1085;&#1099;&#1081;_&#1058;&#1072;&#1088;&#1080;&#1092;</text><line style="stroke:#181818;stroke-width:0.5;" x1="340.5" x2="555.5" y1="532" y2="532"/><ellipse cx="350.5" cy="545.6484" fill="#000000" rx="3" ry="3" style="stroke:#000000;stroke-width:1.0;"/><text fill="#000000" font-family="sans-serif" font-size="14" lengthAdjust="spacing" textLength="99" x="359.5" y="548.9951">&#1044;&#1086;&#1087;. &#1091;&#1089;&#1083;&#1086;&#1074;&#1080;&#1103;</text><ellipse cx="350.5" cy="561.9453" fill="#000000" rx="3" ry="3" style="stroke:#000000;stroke-width:1.0;"/><text fill="#000000" font-family="sans-serif" font-size="14" lengthAdjust="spacing" textLength="55" x="359.5" y="565.292">&#1057;&#1082;&#1080;&#1076;&#1082;&#1072;</text><line style="stroke:#181818;stroke-width:0.5;" x1="340.5" x2="555.5" y1="572.5938" y2="572.5938"/></g><!--class ??????_???????--><g id="elem_&#1057;&#1090;&#1072;&#1090;&#1091;&#1089;_&#1082;&#1083;&#1080;&#1077;&#1085;&#1090;&#1072;"><rect codeLine="38" fill="#F1F1F1" height="113.1875" id="&#1057;&#1090;&#1072;&#1090;&#1091;&#1089;_&#1082;&#1083;&#1080;&#1077;&#1085;&#1090;&#1072;" rx="2.5" ry="2.5" style="stroke:#181818;stroke-width:0.5;" width="153" x="556.5" y="245.5"/><ellipse cx="571.5" cy="261.5" fill="#EB937F" rx="11" ry="11" style="stroke:#181818;stroke-width:1.0;"/><path d="M570.2969,262.375 L571.75,262.375 L571.75,262.4844 C571.75,262.8906 571.7813,263.0469 571.8594,263.2031 C572.0156,263.4531 572.2969,263.6094 572.5938,263.6094 C572.8438,263.6094 573.1094,263.4688 573.2656,263.25 C573.3906,263.0938 573.4219,262.9375 573.4219,262.4844 L573.4219,260.5625 C573.4219,260.4063 573.4219,260.3594 573.4063,260.2031 C573.3438,259.7344 573.0313,259.4219 572.5781,259.4219 C572.3281,259.4219 572.0625,259.5625 571.8906,259.7813 C571.7813,259.9531 571.75,260.1094 571.75,260.5625 L571.75,260.6875 L570.2969,260.6875 L570.2969,258.2813 L574.2813,258.2813 L574.2813,259.1406 C574.2813,259.5469 574.3125,259.7188 574.3906,259.875 C574.5625,260.125 574.8438,260.2813 575.125,260.2813 C575.3906,260.2813 575.6563,260.1406 575.8281,259.9219 C575.9375,259.75 575.9688,259.6094 575.9688,259.1406 L575.9688,256.5938 L568.3438,256.5938 C567.9063,256.5938 567.7813,256.6094 567.625,256.7031 C567.375,256.8594 567.2188,257.1563 567.2188,257.4375 C567.2188,257.7188 567.3594,257.9688 567.5781,258.1406 C567.7344,258.25 567.9219,258.2813 568.3438,258.2813 L568.5938,258.2813 L568.5938,264.7969 L568.3438,264.7969 C567.9375,264.7969 567.7813,264.8125 567.625,264.9219 C567.375,265.0938 567.2188,265.3594 567.2188,265.6563 C567.2188,265.9219 567.3594,266.1719 567.5781,266.3281 C567.7188,266.4531 567.9531,266.5 568.3438,266.5 L576.3438,266.5 L576.3438,263.9219 C576.3438,263.4844 576.3125,263.3438 576.2344,263.1875 C576.0625,262.9375 575.7813,262.7813 575.5,262.7813 C575.2344,262.7813 574.9688,262.8906 574.7969,263.1406 C574.6875,263.2969 574.6563,263.4375 574.6563,263.9219 L574.6563,264.7969 L570.2969,264.7969 L570.2969,262.375 Z " fill="#000000"/><text fill="#000000" font-family="sans-serif" font-size="14" lengthAdjust="spacing" textLength="121" x="585.5" y="266.3467">&#1057;&#1090;&#1072;&#1090;&#1091;&#1089;_&#1082;&#1083;&#1080;&#1077;&#1085;&#1090;&#1072;</text><line style="stroke:#181818;stroke-width:0.5;" x1="557.5" x2="708.5" y1="277.5" y2="277.5"/><text fill="#000000" font-family="sans-serif" font-size="14" lengthAdjust="spacing" textLength="48" x="562.5" y="294.4951">&#1053;&#1086;&#1074;&#1099;&#1081;</text><text fill="#000000" font-family="sans-serif" font-size="14" lengthAdjust="spacing" textLength="134" x="562.5" y="310.792">&#1047;&#1072;&#1088;&#1077;&#1075;&#1080;&#1089;&#1090;&#1088;&#1080;&#1088;&#1086;&#1074;&#1072;&#1085;</text><text fill="#000000" font-family="sans-serif" font-size="14" lengthAdjust="spacing" textLength="100" x="562.5" y="327.0889">&#1040;&#1082;&#1090;&#1080;&#1074;&#1080;&#1088;&#1086;&#1074;&#1072;&#1085;</text><text fill="#000000" font-family="sans-serif" font-size="14" lengthAdjust="spacing" textLength="54" x="562.5" y="343.3857">&#1059;&#1076;&#1072;&#1083;&#1077;&#1085;</text><line style="stroke:#181818;stroke-width:0.5;" x1="557.5" x2="708.5" y1="350.6875" y2="350.6875"/></g><!--class ????????--><g id="elem_&#1056;&#1077;&#1089;&#1090;&#1086;&#1088;&#1072;&#1085;"><rect codeLine="45" fill="#F1F1F1" height="129.4844" id="&#1056;&#1077;&#1089;&#1090;&#1086;&#1088;&#1072;&#1085;" rx="2.5" ry="2.5" style="stroke:#181818;stroke-width:0.5;" width="128" x="769" y="237.5"/><ellipse cx="795.25" cy="253.5" fill="#ADD1B2" rx="11" ry="11" style="stroke:#181818;stroke-width:1.0;"/><path d="M794.0469,254.375 L795.5,254.375 L795.5,254.4844 C795.5,254.8906 795.5313,255.0469 795.6094,255.2031 C795.7656,255.4531 796.0469,255.6094 796.3438,255.6094 C796.5938,255.6094 796.8594,255.4688 797.0156,255.25 C797.1406,255.0938 797.1719,254.9375 797.1719,254.4844 L797.1719,252.5625 C797.1719,252.4063 797.1719,252.3594 797.1563,252.2031 C797.0938,251.7344 796.7813,251.4219 796.3281,251.4219 C796.0781,251.4219 795.8125,251.5625 795.6406,251.7813 C795.5313,251.9531 795.5,252.1094 795.5,252.5625 L795.5,252.6875 L794.0469,252.6875 L794.0469,250.2813 L798.0313,250.2813 L798.0313,251.1406 C798.0313,251.5469 798.0625,251.7188 798.1406,251.875 C798.3125,252.125 798.5938,252.2813 798.875,252.2813 C799.1406,252.2813 799.4063,252.1406 799.5781,251.9219 C799.6875,251.75 799.7188,251.6094 799.7188,251.1406 L799.7188,248.5938 L792.0938,248.5938 C791.6563,248.5938 791.5313,248.6094 791.375,248.7031 C791.125,248.8594 790.9688,249.1563 790.9688,249.4375 C790.9688,249.7188 791.1094,249.9688 791.3281,250.1406 C791.4844,250.25 791.6719,250.2813 792.0938,250.2813 L792.3438,250.2813 L792.3438,256.7969 L792.0938,256.7969 C791.6875,256.7969 791.5313,256.8125 791.375,256.9219 C791.125,257.0938 790.9688,257.3594 790.9688,257.6563 C790.9688,257.9219 791.1094,258.1719 791.3281,258.3281 C791.4688,258.4531 791.7031,258.5 792.0938,258.5 L800.0938,258.5 L800.0938,255.9219 C800.0938,255.4844 800.0625,255.3438 799.9844,255.1875 C799.8125,254.9375 799.5313,254.7813 799.25,254.7813 C798.9844,254.7813 798.7188,254.8906 798.5469,255.1406 C798.4375,255.2969 798.4063,255.4375 798.4063,255.9219 L798.4063,256.7969 L794.0469,256.7969 L794.0469,254.375 Z " fill="#000000"/><text fill="#000000" font-family="sans-serif" font-size="14" lengthAdjust="spacing" textLength="71" x="811.75" y="258.3467">&#1056;&#1077;&#1089;&#1090;&#1086;&#1088;&#1072;&#1085;</text><line style="stroke:#181818;stroke-width:0.5;" x1="770" x2="896" y1="269.5" y2="269.5"/><ellipse cx="780" cy="283.1484" fill="#000000" rx="3" ry="3" style="stroke:#000000;stroke-width:1.0;"/><text fill="#000000" font-family="sans-serif" font-size="14" lengthAdjust="spacing" textLength="70" x="789" y="286.4951">&#1053;&#1072;&#1079;&#1074;&#1072;&#1085;&#1080;&#1077;</text><ellipse cx="780" cy="299.4453" fill="#000000" rx="3" ry="3" style="stroke:#000000;stroke-width:1.0;"/><text fill="#000000" font-family="sans-serif" font-size="14" lengthAdjust="spacing" textLength="47" x="789" y="302.792">&#1040;&#1076;&#1088;&#1077;&#1089;</text><ellipse cx="780" cy="315.7422" fill="#000000" rx="3" ry="3" style="stroke:#000000;stroke-width:1.0;"/><text fill="#000000" font-family="sans-serif" font-size="14" lengthAdjust="spacing" textLength="72" x="789" y="319.0889">&#1054;&#1087;&#1080;&#1089;&#1072;&#1085;&#1080;&#1077;</text><ellipse cx="780" cy="332.0391" fill="#000000" rx="3" ry="3" style="stroke:#000000;stroke-width:1.0;"/><text fill="#000000" font-family="sans-serif" font-size="14" lengthAdjust="spacing" textLength="67" x="789" y="335.3857">&#1058;&#1077;&#1083;&#1077;&#1092;&#1086;&#1085;</text><ellipse cx="780" cy="348.3359" fill="#000000" rx="3" ry="3" style="stroke:#000000;stroke-width:1.0;"/><text fill="#000000" font-family="sans-serif" font-size="14" lengthAdjust="spacing" textLength="102" x="789" y="351.6826">&#1042;&#1084;&#1077;&#1089;&#1090;&#1080;&#1084;&#1086;&#1089;&#1090;&#1100;</text><line style="stroke:#181818;stroke-width:0.5;" x1="770" x2="896" y1="358.9844" y2="358.9844"/></g><!--class ???_?????--><g id="elem_&#1058;&#1080;&#1087;_&#1082;&#1091;&#1093;&#1085;&#1080;"><rect codeLine="53" fill="#F1F1F1" height="210.9688" id="&#1058;&#1080;&#1087;_&#1082;&#1091;&#1093;&#1085;&#1080;" rx="2.5" ry="2.5" style="stroke:#181818;stroke-width:0.5;" width="121" x="591.5" y="435"/><ellipse cx="611.9" cy="451" fill="#EB937F" rx="11" ry="11" style="stroke:#181818;stroke-width:1.0;"/><path d="M610.6969,451.875 L612.15,451.875 L612.15,451.9844 C612.15,452.3906 612.1813,452.5469 612.2594,452.7031 C612.4156,452.9531 612.6969,453.1094 612.9938,453.1094 C613.2438,453.1094 613.5094,452.9688 613.6656,452.75 C613.7906,452.5938 613.8219,452.4375 613.8219,451.9844 L613.8219,450.0625 C613.8219,449.9063 613.8219,449.8594 613.8063,449.7031 C613.7438,449.2344 613.4313,448.9219 612.9781,448.9219 C612.7281,448.9219 612.4625,449.0625 612.2906,449.2813 C612.1813,449.4531 612.15,449.6094 612.15,450.0625 L612.15,450.1875 L610.6969,450.1875 L610.6969,447.7813 L614.6813,447.7813 L614.6813,448.6406 C614.6813,449.0469 614.7125,449.2188 614.7906,449.375 C614.9625,449.625 615.2438,449.7813 615.525,449.7813 C615.7906,449.7813 616.0563,449.6406 616.2281,449.4219 C616.3375,449.25 616.3688,449.1094 616.3688,448.6406 L616.3688,446.0938 L608.7438,446.0938 C608.3063,446.0938 608.1813,446.1094 608.025,446.2031 C607.775,446.3594 607.6188,446.6563 607.6188,446.9375 C607.6188,447.2188 607.7594,447.4688 607.9781,447.6406 C608.1344,447.75 608.3219,447.7813 608.7438,447.7813 L608.9938,447.7813 L608.9938,454.2969 L608.7438,454.2969 C608.3375,454.2969 608.1813,454.3125 608.025,454.4219 C607.775,454.5938 607.6188,454.8594 607.6188,455.1563 C607.6188,455.4219 607.7594,455.6719 607.9781,455.8281 C608.1188,455.9531 608.3531,456 608.7438,456 L616.7438,456 L616.7438,453.4219 C616.7438,452.9844 616.7125,452.8438 616.6344,452.6875 C616.4625,452.4375 616.1813,452.2813 615.9,452.2813 C615.6344,452.2813 615.3688,452.3906 615.1969,452.6406 C615.0875,452.7969 615.0563,452.9375 615.0563,453.4219 L615.0563,454.2969 L610.6969,454.2969 L610.6969,451.875 Z " fill="#000000"/><text fill="#000000" font-family="sans-serif" font-size="14" lengthAdjust="spacing" textLength="77" x="627.1" y="455.8467">&#1058;&#1080;&#1087;_&#1082;&#1091;&#1093;&#1085;&#1080;</text><line style="stroke:#181818;stroke-width:0.5;" x1="592.5" x2="711.5" y1="467" y2="467"/><text fill="#000000" font-family="sans-serif" font-size="14" lengthAdjust="spacing" textLength="59" x="597.5" y="483.9951">&#1056;&#1091;&#1089;&#1089;&#1082;&#1072;&#1103;</text><text fill="#000000" font-family="sans-serif" font-size="14" lengthAdjust="spacing" textLength="97" x="597.5" y="500.292">&#1048;&#1090;&#1072;&#1083;&#1100;&#1103;&#1085;&#1089;&#1082;&#1072;&#1103;</text><text fill="#000000" font-family="sans-serif" font-size="14" lengthAdjust="spacing" textLength="109" x="597.5" y="516.5889">&#1040;&#1084;&#1077;&#1088;&#1080;&#1082;&#1072;&#1085;&#1089;&#1082;&#1072;&#1103;</text><text fill="#000000" font-family="sans-serif" font-size="14" lengthAdjust="spacing" textLength="71" x="597.5" y="532.8857">&#1071;&#1087;&#1086;&#1085;&#1089;&#1082;&#1072;&#1103;</text><text fill="#000000" font-family="sans-serif" font-size="14" lengthAdjust="spacing" textLength="79" x="597.5" y="549.1826">&#1050;&#1080;&#1090;&#1072;&#1081;&#1089;&#1082;&#1072;&#1103;</text><text fill="#000000" font-family="sans-serif" font-size="14" lengthAdjust="spacing" textLength="78" x="597.5" y="565.4795">&#1059;&#1079;&#1073;&#1077;&#1082;&#1089;&#1082;&#1072;&#1103;</text><text fill="#000000" font-family="sans-serif" font-size="14" lengthAdjust="spacing" textLength="86" x="597.5" y="581.7764">&#1050;&#1072;&#1074;&#1082;&#1072;&#1079;&#1089;&#1082;&#1072;&#1103;</text><text fill="#000000" font-family="sans-serif" font-size="14" lengthAdjust="spacing" textLength="71" x="597.5" y="598.0732">&#1040;&#1088;&#1072;&#1073;&#1089;&#1082;&#1072;&#1103;</text><text fill="#000000" font-family="sans-serif" font-size="14" lengthAdjust="spacing" textLength="81" x="597.5" y="614.3701">&#1048;&#1085;&#1076;&#1080;&#1081;&#1089;&#1082;&#1072;&#1103;</text><text fill="#000000" font-family="sans-serif" font-size="14" lengthAdjust="spacing" textLength="98" x="597.5" y="630.667">&#1040;&#1074;&#1089;&#1090;&#1088;&#1080;&#1081;&#1089;&#1082;&#1072;&#1103;</text><line style="stroke:#181818;stroke-width:0.5;" x1="592.5" x2="711.5" y1="637.9688" y2="637.9688"/></g><!--class ??????--><g id="elem_&#1057;&#1090;&#1086;&#1083;&#1080;&#1082;"><rect codeLine="66" fill="#F1F1F1" height="113.1875" id="&#1057;&#1090;&#1086;&#1083;&#1080;&#1082;" rx="2.5" ry="2.5" style="stroke:#181818;stroke-width:0.5;" width="152" x="1207" y="484"/><ellipse cx="1251.25" cy="500" fill="#ADD1B2" rx="11" ry="11" style="stroke:#181818;stroke-width:1.0;"/><path d="M1250.0469,500.875 L1251.5,500.875 L1251.5,500.9844 C1251.5,501.3906 1251.5313,501.5469 1251.6094,501.7031 C1251.7656,501.9531 1252.0469,502.1094 1252.3438,502.1094 C1252.5938,502.1094 1252.8594,501.9688 1253.0156,501.75 C1253.1406,501.5938 1253.1719,501.4375 1253.1719,500.9844 L1253.1719,499.0625 C1253.1719,498.9063 1253.1719,498.8594 1253.1563,498.7031 C1253.0938,498.2344 1252.7813,497.9219 1252.3281,497.9219 C1252.0781,497.9219 1251.8125,498.0625 1251.6406,498.2813 C1251.5313,498.4531 1251.5,498.6094 1251.5,499.0625 L1251.5,499.1875 L1250.0469,499.1875 L1250.0469,496.7813 L1254.0313,496.7813 L1254.0313,497.6406 C1254.0313,498.0469 1254.0625,498.2188 1254.1406,498.375 C1254.3125,498.625 1254.5938,498.7813 1254.875,498.7813 C1255.1406,498.7813 1255.4063,498.6406 1255.5781,498.4219 C1255.6875,498.25 1255.7188,498.1094 1255.7188,497.6406 L1255.7188,495.0938 L1248.0938,495.0938 C1247.6563,495.0938 1247.5313,495.1094 1247.375,495.2031 C1247.125,495.3594 1246.9688,495.6563 1246.9688,495.9375 C1246.9688,496.2188 1247.1094,496.4688 1247.3281,496.6406 C1247.4844,496.75 1247.6719,496.7813 1248.0938,496.7813 L1248.3438,496.7813 L1248.3438,503.2969 L1248.0938,503.2969 C1247.6875,503.2969 1247.5313,503.3125 1247.375,503.4219 C1247.125,503.5938 1246.9688,503.8594 1246.9688,504.1563 C1246.9688,504.4219 1247.1094,504.6719 1247.3281,504.8281 C1247.4688,504.9531 1247.7031,505 1248.0938,505 L1256.0938,505 L1256.0938,502.4219 C1256.0938,501.9844 1256.0625,501.8438 1255.9844,501.6875 C1255.8125,501.4375 1255.5313,501.2813 1255.25,501.2813 C1254.9844,501.2813 1254.7188,501.3906 1254.5469,501.6406 C1254.4375,501.7969 1254.4063,501.9375 1254.4063,502.4219 L1254.4063,503.2969 L1250.0469,503.2969 L1250.0469,500.875 Z " fill="#000000"/><text fill="#000000" font-family="sans-serif" font-size="14" lengthAdjust="spacing" textLength="55" x="1271.75" y="504.8467">&#1057;&#1090;&#1086;&#1083;&#1080;&#1082;</text><line style="stroke:#181818;stroke-width:0.5;" x1="1208" x2="1358" y1="516" y2="516"/><ellipse cx="1218" cy="529.6484" fill="#000000" rx="3" ry="3" style="stroke:#000000;stroke-width:1.0;"/><text fill="#000000" font-family="sans-serif" font-size="14" lengthAdjust="spacing" textLength="102" x="1227" y="532.9951">&#1042;&#1084;&#1077;&#1089;&#1090;&#1080;&#1084;&#1086;&#1089;&#1090;&#1100;</text><ellipse cx="1218" cy="545.9453" fill="#000000" rx="3" ry="3" style="stroke:#000000;stroke-width:1.0;"/><text fill="#000000" font-family="sans-serif" font-size="14" lengthAdjust="spacing" textLength="49" x="1227" y="549.292">&#1053;&#1086;&#1084;&#1077;&#1088;</text><text fill="#000000" font-family="sans-serif" font-size="14" lengthAdjust="spacing" textLength="110" x="1227" y="565.5889">&#1056;&#1072;&#1089;&#1087;&#1086;&#1083;&#1086;&#1078;&#1077;&#1085;&#1080;&#1077;</text><text fill="#000000" font-family="sans-serif" font-size="14" lengthAdjust="spacing" textLength="126" x="1227" y="581.8857">&#1054;&#1089;&#1086;&#1073;&#1099;&#1077; &#1086;&#1090;&#1084;&#1077;&#1090;&#1082;&#1080;</text><line style="stroke:#181818;stroke-width:0.5;" x1="1208" x2="1358" y1="589.1875" y2="589.1875"/></g><!--class ??????_?????????--><g id="elem_&#1057;&#1090;&#1072;&#1090;&#1091;&#1089;_&#1088;&#1077;&#1089;&#1090;&#1086;&#1088;&#1072;&#1085;&#1072;"><rect codeLine="73" fill="#F1F1F1" height="80.5938" id="&#1057;&#1090;&#1072;&#1090;&#1091;&#1089;_&#1088;&#1077;&#1089;&#1090;&#1086;&#1088;&#1072;&#1085;&#1072;" rx="2.5" ry="2.5" style="stroke:#181818;stroke-width:0.5;" width="171" x="747.5" y="500"/><ellipse cx="762.5" cy="516" fill="#EB937F" rx="11" ry="11" style="stroke:#181818;stroke-width:1.0;"/><path d="M761.2969,516.875 L762.75,516.875 L762.75,516.9844 C762.75,517.3906 762.7813,517.5469 762.8594,517.7031 C763.0156,517.9531 763.2969,518.1094 763.5938,518.1094 C763.8438,518.1094 764.1094,517.9688 764.2656,517.75 C764.3906,517.5938 764.4219,517.4375 764.4219,516.9844 L764.4219,515.0625 C764.4219,514.9063 764.4219,514.8594 764.4063,514.7031 C764.3438,514.2344 764.0313,513.9219 763.5781,513.9219 C763.3281,513.9219 763.0625,514.0625 762.8906,514.2813 C762.7813,514.4531 762.75,514.6094 762.75,515.0625 L762.75,515.1875 L761.2969,515.1875 L761.2969,512.7813 L765.2813,512.7813 L765.2813,513.6406 C765.2813,514.0469 765.3125,514.2188 765.3906,514.375 C765.5625,514.625 765.8438,514.7813 766.125,514.7813 C766.3906,514.7813 766.6563,514.6406 766.8281,514.4219 C766.9375,514.25 766.9688,514.1094 766.9688,513.6406 L766.9688,511.0938 L759.3438,511.0938 C758.9063,511.0938 758.7813,511.1094 758.625,511.2031 C758.375,511.3594 758.2188,511.6563 758.2188,511.9375 C758.2188,512.2188 758.3594,512.4688 758.5781,512.6406 C758.7344,512.75 758.9219,512.7813 759.3438,512.7813 L759.5938,512.7813 L759.5938,519.2969 L759.3438,519.2969 C758.9375,519.2969 758.7813,519.3125 758.625,519.4219 C758.375,519.5938 758.2188,519.8594 758.2188,520.1563 C758.2188,520.4219 758.3594,520.6719 758.5781,520.8281 C758.7188,520.9531 758.9531,521 759.3438,521 L767.3438,521 L767.3438,518.4219 C767.3438,517.9844 767.3125,517.8438 767.2344,517.6875 C767.0625,517.4375 766.7813,517.2813 766.5,517.2813 C766.2344,517.2813 765.9688,517.3906 765.7969,517.6406 C765.6875,517.7969 765.6563,517.9375 765.6563,518.4219 L765.6563,519.2969 L761.2969,519.2969 L761.2969,516.875 Z " fill="#000000"/><text fill="#000000" font-family="sans-serif" font-size="14" lengthAdjust="spacing" textLength="139" x="776.5" y="520.8467">&#1057;&#1090;&#1072;&#1090;&#1091;&#1089;_&#1088;&#1077;&#1089;&#1090;&#1086;&#1088;&#1072;&#1085;&#1072;</text><line style="stroke:#181818;stroke-width:0.5;" x1="748.5" x2="917.5" y1="532" y2="532"/><text fill="#000000" font-family="sans-serif" font-size="14" lengthAdjust="spacing" textLength="72" x="753.5" y="548.9951">&#1044;&#1086;&#1089;&#1090;&#1091;&#1087;&#1077;&#1085;</text><text fill="#000000" font-family="sans-serif" font-size="14" lengthAdjust="spacing" textLength="90" x="753.5" y="565.292">&#1053;&#1077;&#1076;&#1086;&#1089;&#1090;&#1091;&#1087;&#1077;&#1085;</text><line style="stroke:#181818;stroke-width:0.5;" x1="748.5" x2="917.5" y1="572.5938" y2="572.5938"/></g><!--class ??????_???????--><g id="elem_&#1057;&#1090;&#1072;&#1090;&#1091;&#1089;_&#1089;&#1090;&#1086;&#1083;&#1080;&#1082;&#1072;"><rect codeLine="78" fill="#F1F1F1" height="80.5938" id="&#1057;&#1090;&#1072;&#1090;&#1091;&#1089;_&#1089;&#1090;&#1086;&#1083;&#1080;&#1082;&#1072;" rx="2.5" ry="2.5" style="stroke:#181818;stroke-width:0.5;" width="152" x="1207" y="706"/><ellipse cx="1222" cy="722" fill="#EB937F" rx="11" ry="11" style="stroke:#181818;stroke-width:1.0;"/><path d="M1220.7969,722.875 L1222.25,722.875 L1222.25,722.9844 C1222.25,723.3906 1222.2813,723.5469 1222.3594,723.7031 C1222.5156,723.9531 1222.7969,724.1094 1223.0938,724.1094 C1223.3438,724.1094 1223.6094,723.9688 1223.7656,723.75 C1223.8906,723.5938 1223.9219,723.4375 1223.9219,722.9844 L1223.9219,721.0625 C1223.9219,720.9063 1223.9219,720.8594 1223.9063,720.7031 C1223.8438,720.2344 1223.5313,719.9219 1223.0781,719.9219 C1222.8281,719.9219 1222.5625,720.0625 1222.3906,720.2813 C1222.2813,720.4531 1222.25,720.6094 1222.25,721.0625 L1222.25,721.1875 L1220.7969,721.1875 L1220.7969,718.7813 L1224.7813,718.7813 L1224.7813,719.6406 C1224.7813,720.0469 1224.8125,720.2188 1224.8906,720.375 C1225.0625,720.625 1225.3438,720.7813 1225.625,720.7813 C1225.8906,720.7813 1226.1563,720.6406 1226.3281,720.4219 C1226.4375,720.25 1226.4688,720.1094 1226.4688,719.6406 L1226.4688,717.0938 L1218.8438,717.0938 C1218.4063,717.0938 1218.2813,717.1094 1218.125,717.2031 C1217.875,717.3594 1217.7188,717.6563 1217.7188,717.9375 C1217.7188,718.2188 1217.8594,718.4688 1218.0781,718.6406 C1218.2344,718.75 1218.4219,718.7813 1218.8438,718.7813 L1219.0938,718.7813 L1219.0938,725.2969 L1218.8438,725.2969 C1218.4375,725.2969 1218.2813,725.3125 1218.125,725.4219 C1217.875,725.5938 1217.7188,725.8594 1217.7188,726.1563 C1217.7188,726.4219 1217.8594,726.6719 1218.0781,726.8281 C1218.2188,726.9531 1218.4531,727 1218.8438,727 L1226.8438,727 L1226.8438,724.4219 C1226.8438,723.9844 1226.8125,723.8438 1226.7344,723.6875 C1226.5625,723.4375 1226.2813,723.2813 1226,723.2813 C1225.7344,723.2813 1225.4688,723.3906 1225.2969,723.6406 C1225.1875,723.7969 1225.1563,723.9375 1225.1563,724.4219 L1225.1563,725.2969 L1220.7969,725.2969 L1220.7969,722.875 Z " fill="#000000"/><text fill="#000000" font-family="sans-serif" font-size="14" lengthAdjust="spacing" textLength="120" x="1236" y="726.8467">&#1057;&#1090;&#1072;&#1090;&#1091;&#1089;_&#1089;&#1090;&#1086;&#1083;&#1080;&#1082;&#1072;</text><line style="stroke:#181818;stroke-width:0.5;" x1="1208" x2="1358" y1="738" y2="738"/><text fill="#000000" font-family="sans-serif" font-size="14" lengthAdjust="spacing" textLength="72" x="1213" y="754.9951">&#1044;&#1086;&#1089;&#1090;&#1091;&#1087;&#1077;&#1085;</text><text fill="#000000" font-family="sans-serif" font-size="14" lengthAdjust="spacing" textLength="90" x="1213" y="771.292">&#1053;&#1077;&#1076;&#1086;&#1089;&#1090;&#1091;&#1087;&#1077;&#1085;</text><line style="stroke:#181818;stroke-width:0.5;" x1="1208" x2="1358" y1="778.5938" y2="778.5938"/></g><!--class ??????????--><g id="elem_&#1056;&#1072;&#1089;&#1087;&#1080;&#1089;&#1072;&#1085;&#1080;&#1077;"><rect codeLine="83" fill="#F1F1F1" height="113.1875" id="&#1056;&#1072;&#1089;&#1087;&#1080;&#1089;&#1072;&#1085;&#1080;&#1077;" rx="2.5" ry="2.5" style="stroke:#181818;stroke-width:0.5;" width="218" x="954" y="484"/><ellipse cx="1015.75" cy="500" fill="#ADD1B2" rx="11" ry="11" style="stroke:#181818;stroke-width:1.0;"/><path d="M1014.5469,500.875 L1016,500.875 L1016,500.9844 C1016,501.3906 1016.0313,501.5469 1016.1094,501.7031 C1016.2656,501.9531 1016.5469,502.1094 1016.8438,502.1094 C1017.0938,502.1094 1017.3594,501.9688 1017.5156,501.75 C1017.6406,501.5938 1017.6719,501.4375 1017.6719,500.9844 L1017.6719,499.0625 C1017.6719,498.9063 1017.6719,498.8594 1017.6563,498.7031 C1017.5938,498.2344 1017.2813,497.9219 1016.8281,497.9219 C1016.5781,497.9219 1016.3125,498.0625 1016.1406,498.2813 C1016.0313,498.4531 1016,498.6094 1016,499.0625 L1016,499.1875 L1014.5469,499.1875 L1014.5469,496.7813 L1018.5313,496.7813 L1018.5313,497.6406 C1018.5313,498.0469 1018.5625,498.2188 1018.6406,498.375 C1018.8125,498.625 1019.0938,498.7813 1019.375,498.7813 C1019.6406,498.7813 1019.9063,498.6406 1020.0781,498.4219 C1020.1875,498.25 1020.2188,498.1094 1020.2188,497.6406 L1020.2188,495.0938 L1012.5938,495.0938 C1012.1563,495.0938 1012.0313,495.1094 1011.875,495.2031 C1011.625,495.3594 1011.4688,495.6563 1011.4688,495.9375 C1011.4688,496.2188 1011.6094,496.4688 1011.8281,496.6406 C1011.9844,496.75 1012.1719,496.7813 1012.5938,496.7813 L1012.8438,496.7813 L1012.8438,503.2969 L1012.5938,503.2969 C1012.1875,503.2969 1012.0313,503.3125 1011.875,503.4219 C1011.625,503.5938 1011.4688,503.8594 1011.4688,504.1563 C1011.4688,504.4219 1011.6094,504.6719 1011.8281,504.8281 C1011.9688,504.9531 1012.2031,505 1012.5938,505 L1020.5938,505 L1020.5938,502.4219 C1020.5938,501.9844 1020.5625,501.8438 1020.4844,501.6875 C1020.3125,501.4375 1020.0313,501.2813 1019.75,501.2813 C1019.4844,501.2813 1019.2188,501.3906 1019.0469,501.6406 C1018.9375,501.7969 1018.9063,501.9375 1018.9063,502.4219 L1018.9063,503.2969 L1014.5469,503.2969 L1014.5469,500.875 Z " fill="#000000"/><text fill="#000000" font-family="sans-serif" font-size="14" lengthAdjust="spacing" textLength="86" x="1036.25" y="504.8467">&#1056;&#1072;&#1089;&#1087;&#1080;&#1089;&#1072;&#1085;&#1080;&#1077;</text><line style="stroke:#181818;stroke-width:0.5;" x1="955" x2="1171" y1="516" y2="516"/><ellipse cx="965" cy="529.6484" fill="#000000" rx="3" ry="3" style="stroke:#000000;stroke-width:1.0;"/><text fill="#000000" font-family="sans-serif" font-size="14" lengthAdjust="spacing" textLength="97" x="974" y="532.9951">&#1044;&#1077;&#1085;&#1100; &#1085;&#1077;&#1076;&#1077;&#1083;&#1080;</text><ellipse cx="965" cy="545.9453" fill="#000000" rx="3" ry="3" style="stroke:#000000;stroke-width:1.0;"/><text fill="#000000" font-family="sans-serif" font-size="14" lengthAdjust="spacing" textLength="163" x="974" y="549.292">&#1042;&#1088;&#1077;&#1084;&#1103; &#1085;&#1072;&#1095;&#1072;&#1083;&#1072; &#1088;&#1072;&#1073;&#1086;&#1090;&#1099;</text><ellipse cx="965" cy="562.2422" fill="#000000" rx="3" ry="3" style="stroke:#000000;stroke-width:1.0;"/><text fill="#000000" font-family="sans-serif" font-size="14" lengthAdjust="spacing" textLength="192" x="974" y="565.5889">&#1042;&#1088;&#1077;&#1084;&#1103; &#1086;&#1082;&#1086;&#1085;&#1095;&#1072;&#1085;&#1080;&#1103; &#1088;&#1072;&#1073;&#1086;&#1090;&#1099;</text><ellipse cx="965" cy="578.5391" fill="#000000" rx="3" ry="3" style="stroke:#000000;stroke-width:1.0;"/><text fill="#000000" font-family="sans-serif" font-size="14" lengthAdjust="spacing" textLength="36" x="974" y="581.8857">&#1044;&#1072;&#1090;&#1072;</text><line style="stroke:#181818;stroke-width:0.5;" x1="955" x2="1171" y1="589.1875" y2="589.1875"/></g><!--class ????????????--><g id="elem_&#1055;&#1086;&#1083;&#1100;&#1079;&#1086;&#1074;&#1072;&#1090;&#1077;&#1083;&#1100;"><rect codeLine="90" fill="#F1F1F1" height="96.8906" id="&#1055;&#1086;&#1083;&#1100;&#1079;&#1086;&#1074;&#1072;&#1090;&#1077;&#1083;&#1100;" rx="2.5" ry="2.5" style="stroke:#181818;stroke-width:0.5;" width="139" x="1192.5" y="39.5"/><ellipse cx="1207.5" cy="55.5" fill="#ADD1B2" rx="11" ry="11" style="stroke:#181818;stroke-width:1.0;"/><path d="M1206.2969,56.375 L1207.75,56.375 L1207.75,56.4844 C1207.75,56.8906 1207.7813,57.0469 1207.8594,57.2031 C1208.0156,57.4531 1208.2969,57.6094 1208.5938,57.6094 C1208.8438,57.6094 1209.1094,57.4688 1209.2656,57.25 C1209.3906,57.0938 1209.4219,56.9375 1209.4219,56.4844 L1209.4219,54.5625 C1209.4219,54.4063 1209.4219,54.3594 1209.4063,54.2031 C1209.3438,53.7344 1209.0313,53.4219 1208.5781,53.4219 C1208.3281,53.4219 1208.0625,53.5625 1207.8906,53.7813 C1207.7813,53.9531 1207.75,54.1094 1207.75,54.5625 L1207.75,54.6875 L1206.2969,54.6875 L1206.2969,52.2813 L1210.2813,52.2813 L1210.2813,53.1406 C1210.2813,53.5469 1210.3125,53.7188 1210.3906,53.875 C1210.5625,54.125 1210.8438,54.2813 1211.125,54.2813 C1211.3906,54.2813 1211.6563,54.1406 1211.8281,53.9219 C1211.9375,53.75 1211.9688,53.6094 1211.9688,53.1406 L1211.9688,50.5938 L1204.3438,50.5938 C1203.9063,50.5938 1203.7813,50.6094 1203.625,50.7031 C1203.375,50.8594 1203.2188,51.1563 1203.2188,51.4375 C1203.2188,51.7188 1203.3594,51.9688 1203.5781,52.1406 C1203.7344,52.25 1203.9219,52.2813 1204.3438,52.2813 L1204.5938,52.2813 L1204.5938,58.7969 L1204.3438,58.7969 C1203.9375,58.7969 1203.7813,58.8125 1203.625,58.9219 C1203.375,59.0938 1203.2188,59.3594 1203.2188,59.6563 C1203.2188,59.9219 1203.3594,60.1719 1203.5781,60.3281 C1203.7188,60.4531 1203.9531,60.5 1204.3438,60.5 L1212.3438,60.5 L1212.3438,57.9219 C1212.3438,57.4844 1212.3125,57.3438 1212.2344,57.1875 C1212.0625,56.9375 1211.7813,56.7813 1211.5,56.7813 C1211.2344,56.7813 1210.9688,56.8906 1210.7969,57.1406 C1210.6875,57.2969 1210.6563,57.4375 1210.6563,57.9219 L1210.6563,58.7969 L1206.2969,58.7969 L1206.2969,56.375 Z " fill="#000000"/><text fill="#000000" font-family="sans-serif" font-size="14" lengthAdjust="spacing" textLength="107" x="1221.5" y="60.3467">&#1055;&#1086;&#1083;&#1100;&#1079;&#1086;&#1074;&#1072;&#1090;&#1077;&#1083;&#1100;</text><line style="stroke:#181818;stroke-width:0.5;" x1="1193.5" x2="1330.5" y1="71.5" y2="71.5"/><ellipse cx="1203.5" cy="85.1484" fill="#000000" rx="3" ry="3" style="stroke:#000000;stroke-width:1.0;"/><text fill="#000000" font-family="sans-serif" font-size="14" lengthAdjust="spacing" textLength="67" x="1212.5" y="88.4951">&#1058;&#1077;&#1083;&#1077;&#1092;&#1086;&#1085;</text><ellipse cx="1203.5" cy="101.4453" fill="#000000" rx="3" ry="3" style="stroke:#000000;stroke-width:1.0;"/><text fill="#000000" font-family="sans-serif" font-size="14" lengthAdjust="spacing" textLength="30" x="1212.5" y="104.792">&#1048;&#1084;&#1103;</text><text fill="#000000" font-family="sans-serif" font-size="14" lengthAdjust="spacing" textLength="39" x="1212.5" y="121.0889">Email</text><line style="stroke:#181818;stroke-width:0.5;" x1="1193.5" x2="1330.5" y1="128.3906" y2="128.3906"/></g><!--class ??????_????????????--><g id="elem_&#1057;&#1090;&#1072;&#1090;&#1091;&#1089;_&#1087;&#1086;&#1083;&#1100;&#1079;&#1086;&#1074;&#1072;&#1090;&#1077;&#1083;&#1103;"><rect codeLine="96" fill="#F1F1F1" height="96.8906" id="&#1057;&#1090;&#1072;&#1090;&#1091;&#1089;_&#1087;&#1086;&#1083;&#1100;&#1079;&#1086;&#1074;&#1072;&#1090;&#1077;&#1083;&#1103;" rx="2.5" ry="2.5" style="stroke:#181818;stroke-width:0.5;" width="197" x="1016.5" y="253.5"/><ellipse cx="1031.5" cy="269.5" fill="#EB937F" rx="11" ry="11" style="stroke:#181818;stroke-width:1.0;"/><path d="M1030.2969,270.375 L1031.75,270.375 L1031.75,270.4844 C1031.75,270.8906 1031.7813,271.0469 1031.8594,271.2031 C1032.0156,271.4531 1032.2969,271.6094 1032.5938,271.6094 C1032.8438,271.6094 1033.1094,271.4688 1033.2656,271.25 C1033.3906,271.0938 1033.4219,270.9375 1033.4219,270.4844 L1033.4219,268.5625 C1033.4219,268.4063 1033.4219,268.3594 1033.4063,268.2031 C1033.3438,267.7344 1033.0313,267.4219 1032.5781,267.4219 C1032.3281,267.4219 1032.0625,267.5625 1031.8906,267.7813 C1031.7813,267.9531 1031.75,268.1094 1031.75,268.5625 L1031.75,268.6875 L1030.2969,268.6875 L1030.2969,266.2813 L1034.2813,266.2813 L1034.2813,267.1406 C1034.2813,267.5469 1034.3125,267.7188 1034.3906,267.875 C1034.5625,268.125 1034.8438,268.2813 1035.125,268.2813 C1035.3906,268.2813 1035.6563,268.1406 1035.8281,267.9219 C1035.9375,267.75 1035.9688,267.6094 1035.9688,267.1406 L1035.9688,264.5938 L1028.3438,264.5938 C1027.9063,264.5938 1027.7813,264.6094 1027.625,264.7031 C1027.375,264.8594 1027.2188,265.1563 1027.2188,265.4375 C1027.2188,265.7188 1027.3594,265.9688 1027.5781,266.1406 C1027.7344,266.25 1027.9219,266.2813 1028.3438,266.2813 L1028.5938,266.2813 L1028.5938,272.7969 L1028.3438,272.7969 C1027.9375,272.7969 1027.7813,272.8125 1027.625,272.9219 C1027.375,273.0938 1027.2188,273.3594 1027.2188,273.6563 C1027.2188,273.9219 1027.3594,274.1719 1027.5781,274.3281 C1027.7188,274.4531 1027.9531,274.5 1028.3438,274.5 L1036.3438,274.5 L1036.3438,271.9219 C1036.3438,271.4844 1036.3125,271.3438 1036.2344,271.1875 C1036.0625,270.9375 1035.7813,270.7813 1035.5,270.7813 C1035.2344,270.7813 1034.9688,270.8906 1034.7969,271.1406 C1034.6875,271.2969 1034.6563,271.4375 1034.6563,271.9219 L1034.6563,272.7969 L1030.2969,272.7969 L1030.2969,270.375 Z " fill="#000000"/><text fill="#000000" font-family="sans-serif" font-size="14" lengthAdjust="spacing" textLength="165" x="1045.5" y="274.3467">&#1057;&#1090;&#1072;&#1090;&#1091;&#1089;_&#1087;&#1086;&#1083;&#1100;&#1079;&#1086;&#1074;&#1072;&#1090;&#1077;&#1083;&#1103;</text><line style="stroke:#181818;stroke-width:0.5;" x1="1017.5" x2="1212.5" y1="285.5" y2="285.5"/><text fill="#000000" font-family="sans-serif" font-size="14" lengthAdjust="spacing" textLength="48" x="1022.5" y="302.4951">&#1053;&#1086;&#1074;&#1099;&#1081;</text><text fill="#000000" font-family="sans-serif" font-size="14" lengthAdjust="spacing" textLength="134" x="1022.5" y="318.792">&#1047;&#1072;&#1088;&#1077;&#1075;&#1080;&#1089;&#1090;&#1088;&#1080;&#1088;&#1086;&#1074;&#1072;&#1085;</text><text fill="#000000" font-family="sans-serif" font-size="14" lengthAdjust="spacing" textLength="54" x="1022.5" y="335.0889">&#1059;&#1076;&#1072;&#1083;&#1077;&#1085;</text><line style="stroke:#181818;stroke-width:0.5;" x1="1017.5" x2="1212.5" y1="342.3906" y2="342.3906"/></g><!--class ????????????--><g id="elem_&#1041;&#1088;&#1086;&#1085;&#1080;&#1088;&#1086;&#1074;&#1072;&#1085;&#1080;&#1077;"><rect codeLine="102" fill="#F1F1F1" height="145.7813" id="&#1041;&#1088;&#1086;&#1085;&#1080;&#1088;&#1086;&#1074;&#1072;&#1085;&#1080;&#1077;" rx="2.5" ry="2.5" style="stroke:#181818;stroke-width:0.5;" width="323" x="1248.5" y="229"/><ellipse cx="1350.75" cy="245" fill="#ADD1B2" rx="11" ry="11" style="stroke:#181818;stroke-width:1.0;"/><path d="M1349.5469,245.875 L1351,245.875 L1351,245.9844 C1351,246.3906 1351.0313,246.5469 1351.1094,246.7031 C1351.2656,246.9531 1351.5469,247.1094 1351.8438,247.1094 C1352.0938,247.1094 1352.3594,246.9688 1352.5156,246.75 C1352.6406,246.5938 1352.6719,246.4375 1352.6719,245.9844 L1352.6719,244.0625 C1352.6719,243.9063 1352.6719,243.8594 1352.6563,243.7031 C1352.5938,243.2344 1352.2813,242.9219 1351.8281,242.9219 C1351.5781,242.9219 1351.3125,243.0625 1351.1406,243.2813 C1351.0313,243.4531 1351,243.6094 1351,244.0625 L1351,244.1875 L1349.5469,244.1875 L1349.5469,241.7813 L1353.5313,241.7813 L1353.5313,242.6406 C1353.5313,243.0469 1353.5625,243.2188 1353.6406,243.375 C1353.8125,243.625 1354.0938,243.7813 1354.375,243.7813 C1354.6406,243.7813 1354.9063,243.6406 1355.0781,243.4219 C1355.1875,243.25 1355.2188,243.1094 1355.2188,242.6406 L1355.2188,240.0938 L1347.5938,240.0938 C1347.1563,240.0938 1347.0313,240.1094 1346.875,240.2031 C1346.625,240.3594 1346.4688,240.6563 1346.4688,240.9375 C1346.4688,241.2188 1346.6094,241.4688 1346.8281,241.6406 C1346.9844,241.75 1347.1719,241.7813 1347.5938,241.7813 L1347.8438,241.7813 L1347.8438,248.2969 L1347.5938,248.2969 C1347.1875,248.2969 1347.0313,248.3125 1346.875,248.4219 C1346.625,248.5938 1346.4688,248.8594 1346.4688,249.1563 C1346.4688,249.4219 1346.6094,249.6719 1346.8281,249.8281 C1346.9688,249.9531 1347.2031,250 1347.5938,250 L1355.5938,250 L1355.5938,247.4219 C1355.5938,246.9844 1355.5625,246.8438 1355.4844,246.6875 C1355.3125,246.4375 1355.0313,246.2813 1354.75,246.2813 C1354.4844,246.2813 1354.2188,246.3906 1354.0469,246.6406 C1353.9375,246.7969 1353.9063,246.9375 1353.9063,247.4219 L1353.9063,248.2969 L1349.5469,248.2969 L1349.5469,245.875 Z " fill="#000000"/><text fill="#000000" font-family="sans-serif" font-size="14" lengthAdjust="spacing" textLength="110" x="1371.25" y="249.8467">&#1041;&#1088;&#1086;&#1085;&#1080;&#1088;&#1086;&#1074;&#1072;&#1085;&#1080;&#1077;</text><line style="stroke:#181818;stroke-width:0.5;" x1="1249.5" x2="1570.5" y1="261" y2="261"/><ellipse cx="1259.5" cy="274.6484" fill="#000000" rx="3" ry="3" style="stroke:#000000;stroke-width:1.0;"/><text fill="#000000" font-family="sans-serif" font-size="14" lengthAdjust="spacing" textLength="154" x="1268.5" y="277.9951">&#1053;&#1072;&#1079;&#1074;&#1072;&#1085;&#1080;&#1077; &#1088;&#1077;&#1089;&#1090;&#1086;&#1088;&#1072;&#1085;&#1072;</text><ellipse cx="1259.5" cy="290.9453" fill="#000000" rx="3" ry="3" style="stroke:#000000;stroke-width:1.0;"/><text fill="#000000" font-family="sans-serif" font-size="14" lengthAdjust="spacing" textLength="131" x="1268.5" y="294.292">&#1040;&#1076;&#1088;&#1077;&#1089; &#1088;&#1077;&#1089;&#1090;&#1086;&#1088;&#1072;&#1085;&#1072;</text><ellipse cx="1259.5" cy="307.2422" fill="#000000" rx="3" ry="3" style="stroke:#000000;stroke-width:1.0;"/><text fill="#000000" font-family="sans-serif" font-size="14" lengthAdjust="spacing" textLength="114" x="1268.5" y="310.5889">&#1053;&#1086;&#1084;&#1077;&#1088; &#1089;&#1090;&#1086;&#1083;&#1080;&#1082;&#1072;</text><ellipse cx="1259.5" cy="323.5391" fill="#000000" rx="3" ry="3" style="stroke:#000000;stroke-width:1.0;"/><text fill="#000000" font-family="sans-serif" font-size="14" lengthAdjust="spacing" textLength="268" x="1268.5" y="326.8857">&#1044;&#1072;&#1090;&#1072; &#1080; &#1074;&#1088;&#1077;&#1084;&#1103; &#1085;&#1072;&#1095;&#1072;&#1083;&#1072; &#1073;&#1088;&#1086;&#1085;&#1080;&#1088;&#1086;&#1074;&#1072;&#1085;&#1080;&#1103;</text><ellipse cx="1259.5" cy="339.8359" fill="#000000" rx="3" ry="3" style="stroke:#000000;stroke-width:1.0;"/><text fill="#000000" font-family="sans-serif" font-size="14" lengthAdjust="spacing" textLength="297" x="1268.5" y="343.1826">&#1044;&#1072;&#1090;&#1072; &#1080; &#1074;&#1088;&#1077;&#1084;&#1103; &#1086;&#1082;&#1086;&#1085;&#1095;&#1072;&#1085;&#1080;&#1103; &#1073;&#1088;&#1086;&#1085;&#1080;&#1088;&#1086;&#1074;&#1072;&#1085;&#1080;&#1103;</text><ellipse cx="1259.5" cy="356.1328" fill="#000000" rx="3" ry="3" style="stroke:#000000;stroke-width:1.0;"/><text fill="#000000" font-family="sans-serif" font-size="14" lengthAdjust="spacing" textLength="155" x="1268.5" y="359.4795">&#1050;&#1086;&#1083;&#1080;&#1095;&#1077;&#1089;&#1090;&#1074;&#1086; &#1095;&#1077;&#1083;&#1086;&#1074;&#1077;&#1082;</text><line style="stroke:#181818;stroke-width:0.5;" x1="1249.5" x2="1570.5" y1="366.7813" y2="366.7813"/></g><!--class ??????_????????????--><g id="elem_&#1057;&#1090;&#1072;&#1090;&#1091;&#1089;_&#1073;&#1088;&#1086;&#1085;&#1080;&#1088;&#1086;&#1074;&#1072;&#1085;&#1080;&#1103;"><rect codeLine="111" fill="#F1F1F1" height="129.4844" id="&#1057;&#1090;&#1072;&#1090;&#1091;&#1089;_&#1073;&#1088;&#1086;&#1085;&#1080;&#1088;&#1086;&#1074;&#1072;&#1085;&#1080;&#1103;" rx="2.5" ry="2.5" style="stroke:#181818;stroke-width:0.5;" width="200" x="1394" y="476"/><ellipse cx="1409" cy="492" fill="#EB937F" rx="11" ry="11" style="stroke:#181818;stroke-width:1.0;"/><path d="M1407.7969,492.875 L1409.25,492.875 L1409.25,492.9844 C1409.25,493.3906 1409.2813,493.5469 1409.3594,493.7031 C1409.5156,493.9531 1409.7969,494.1094 1410.0938,494.1094 C1410.3438,494.1094 1410.6094,493.9688 1410.7656,493.75 C1410.8906,493.5938 1410.9219,493.4375 1410.9219,492.9844 L1410.9219,491.0625 C1410.9219,490.9063 1410.9219,490.8594 1410.9063,490.7031 C1410.8438,490.2344 1410.5313,489.9219 1410.0781,489.9219 C1409.8281,489.9219 1409.5625,490.0625 1409.3906,490.2813 C1409.2813,490.4531 1409.25,490.6094 1409.25,491.0625 L1409.25,491.1875 L1407.7969,491.1875 L1407.7969,488.7813 L1411.7813,488.7813 L1411.7813,489.6406 C1411.7813,490.0469 1411.8125,490.2188 1411.8906,490.375 C1412.0625,490.625 1412.3438,490.7813 1412.625,490.7813 C1412.8906,490.7813 1413.1563,490.6406 1413.3281,490.4219 C1413.4375,490.25 1413.4688,490.1094 1413.4688,489.6406 L1413.4688,487.0938 L1405.8438,487.0938 C1405.4063,487.0938 1405.2813,487.1094 1405.125,487.2031 C1404.875,487.3594 1404.7188,487.6563 1404.7188,487.9375 C1404.7188,488.2188 1404.8594,488.4688 1405.0781,488.6406 C1405.2344,488.75 1405.4219,488.7813 1405.8438,488.7813 L1406.0938,488.7813 L1406.0938,495.2969 L1405.8438,495.2969 C1405.4375,495.2969 1405.2813,495.3125 1405.125,495.4219 C1404.875,495.5938 1404.7188,495.8594 1404.7188,496.1563 C1404.7188,496.4219 1404.8594,496.6719 1405.0781,496.8281 C1405.2188,496.9531 1405.4531,497 1405.8438,497 L1413.8438,497 L1413.8438,494.4219 C1413.8438,493.9844 1413.8125,493.8438 1413.7344,493.6875 C1413.5625,493.4375 1413.2813,493.2813 1413,493.2813 C1412.7344,493.2813 1412.4688,493.3906 1412.2969,493.6406 C1412.1875,493.7969 1412.1563,493.9375 1412.1563,494.4219 L1412.1563,495.2969 L1407.7969,495.2969 L1407.7969,492.875 Z " fill="#000000"/><text fill="#000000" font-family="sans-serif" font-size="14" lengthAdjust="spacing" textLength="168" x="1423" y="496.8467">&#1057;&#1090;&#1072;&#1090;&#1091;&#1089;_&#1073;&#1088;&#1086;&#1085;&#1080;&#1088;&#1086;&#1074;&#1072;&#1085;&#1080;&#1103;</text><line style="stroke:#181818;stroke-width:0.5;" x1="1395" x2="1593" y1="508" y2="508"/><text fill="#000000" font-family="sans-serif" font-size="14" lengthAdjust="spacing" textLength="137" x="1400" y="524.9951">&#1053;&#1077; &#1087;&#1086;&#1076;&#1090;&#1074;&#1077;&#1088;&#1078;&#1076;&#1077;&#1085;&#1072;</text><text fill="#000000" font-family="sans-serif" font-size="14" lengthAdjust="spacing" textLength="115" x="1400" y="541.292">&#1055;&#1086;&#1076;&#1090;&#1074;&#1077;&#1088;&#1078;&#1076;&#1077;&#1085;&#1072;</text><text fill="#000000" font-family="sans-serif" font-size="14" lengthAdjust="spacing" textLength="82" x="1400" y="557.5889">&#1054;&#1090;&#1082;&#1083;&#1086;&#1085;&#1077;&#1085;&#1072;</text><text fill="#000000" font-family="sans-serif" font-size="14" lengthAdjust="spacing" textLength="75" x="1400" y="573.8857">&#1054;&#1090;&#1084;&#1077;&#1085;&#1077;&#1085;&#1072;</text><text fill="#000000" font-family="sans-serif" font-size="14" lengthAdjust="spacing" textLength="83" x="1400" y="590.1826">&#1047;&#1072;&#1074;&#1077;&#1088;&#1096;&#1077;&#1085;&#1072;</text><line style="stroke:#181818;stroke-width:0.5;" x1="1395" x2="1593" y1="597.4844" y2="597.4844"/></g><!--reverse link ?????? to ?????????????_???????--><g id="link_&#1050;&#1083;&#1080;&#1077;&#1085;&#1090;_&#1055;&#1088;&#1077;&#1076;&#1089;&#1090;&#1072;&#1074;&#1080;&#1090;&#1077;&#1083;&#1100;_&#1082;&#1083;&#1080;&#1077;&#1085;&#1090;&#1072;"><path codeLine="120" d="M410.833,182.022 C410.833,182.022 410.833,251 410.833,251 C410.833,251 401.461,251 387.696,251 " fill="none" id="&#1050;&#1083;&#1080;&#1077;&#1085;&#1090;-backto-&#1055;&#1088;&#1077;&#1076;&#1089;&#1090;&#1072;&#1074;&#1080;&#1090;&#1077;&#1083;&#1100;_&#1082;&#1083;&#1080;&#1077;&#1085;&#1090;&#1072;" style="stroke:#181818;stroke-width:1.0;"/><polygon fill="#181818" points="410.833,169.022,406.833,175.022,410.833,181.022,414.833,175.022,410.833,169.022" style="stroke:#181818;stroke-width:1.0;"/><text fill="#000000" font-family="sans-serif" font-size="13" lengthAdjust="spacing" textLength="19" x="395.332" y="244.3175">1,*</text></g><!--link ?????? to ?????--><g id="link_&#1050;&#1083;&#1080;&#1077;&#1085;&#1090;_&#1058;&#1072;&#1088;&#1080;&#1092;"><path codeLine="121" d="M472,169.209 C472,169.209 472,256.275 472,256.275 " fill="none" id="&#1050;&#1083;&#1080;&#1077;&#1085;&#1090;-to-&#1058;&#1072;&#1088;&#1080;&#1092;" style="stroke:#181818;stroke-width:1.0;"/><polygon fill="#181818" points="472,261.275,476,252.275,472,256.275,468,252.275,472,261.275" style="stroke:#181818;stroke-width:1.0;"/><text fill="#000000" font-family="sans-serif" font-size="13" lengthAdjust="spacing" textLength="19" x="452.1539" y="189.179">0,*</text><text fill="#000000" font-family="sans-serif" font-size="13" lengthAdjust="spacing" textLength="20" x="450.3438" y="250.3993">0,1</text></g><!--link ?????? to ??????_???????--><g id="link_&#1050;&#1083;&#1080;&#1077;&#1085;&#1090;_&#1057;&#1090;&#1072;&#1090;&#1091;&#1089;_&#1082;&#1083;&#1080;&#1077;&#1085;&#1090;&#1072;"><path codeLine="122" d="M533.167,169.035 C533.167,212.408 533.167,257 533.167,257 C533.167,257 551.321,257 551.321,257 " fill="none" id="&#1050;&#1083;&#1080;&#1077;&#1085;&#1090;-to-&#1057;&#1090;&#1072;&#1090;&#1091;&#1089;_&#1082;&#1083;&#1080;&#1077;&#1085;&#1090;&#1072;" style="stroke:#181818;stroke-width:1.0;"/><polygon fill="#181818" points="556.321,257,547.321,253,551.321,257,547.321,261,556.321,257" style="stroke:#181818;stroke-width:1.0;"/><text fill="#000000" font-family="sans-serif" font-size="13" lengthAdjust="spacing" textLength="7" x="531.4832" y="189.2662">*</text><text fill="#000000" font-family="sans-serif" font-size="13" lengthAdjust="spacing" textLength="8" x="540.3792" y="248.8962">1</text></g><!--reverse link ?????? to ????????--><g id="link_&#1050;&#1083;&#1080;&#1077;&#1085;&#1090;_&#1056;&#1077;&#1089;&#1090;&#1086;&#1088;&#1072;&#1085;"><path codeLine="123" d="M544.833,182.132 C544.833,182.132 544.833,243 544.833,243 C544.833,243 683.759,243 768.688,243 " fill="none" id="&#1050;&#1083;&#1080;&#1077;&#1085;&#1090;-backto-&#1056;&#1077;&#1089;&#1090;&#1086;&#1088;&#1072;&#1085;" style="stroke:#181818;stroke-width:1.0;"/><polygon fill="#181818" points="544.833,169.132,540.833,175.132,544.833,181.132,548.833,175.132,544.833,169.132" style="stroke:#181818;stroke-width:1.0;"/><text fill="#000000" font-family="sans-serif" font-size="13" lengthAdjust="spacing" textLength="8" x="542.9634" y="189.0951">1</text><text fill="#000000" font-family="sans-serif" font-size="13" lengthAdjust="spacing" textLength="19" x="742.0761" y="233.191">0,*</text></g><!--link ?????? to ???_???????--><g id="link_&#1050;&#1083;&#1080;&#1077;&#1085;&#1090;_&#1058;&#1080;&#1087;_&#1073;&#1080;&#1079;&#1085;&#1077;&#1089;&#1072;"><path codeLine="124" d="M399.167,169.428 C399.167,205.966 399.167,241 399.167,241 C399.167,241 138.077,241 138.077,241 " fill="none" id="&#1050;&#1083;&#1080;&#1077;&#1085;&#1090;-to-&#1058;&#1080;&#1087;_&#1073;&#1080;&#1079;&#1085;&#1077;&#1089;&#1072;" style="stroke:#181818;stroke-width:1.0;"/><polygon fill="#181818" points="133.077,241,142.077,245,138.077,241,142.077,237,133.077,241" style="stroke:#181818;stroke-width:1.0;"/><text fill="#000000" font-family="sans-serif" font-size="13" lengthAdjust="spacing" textLength="7" x="385.6071" y="189.1395">*</text><text fill="#000000" font-family="sans-serif" font-size="13" lengthAdjust="spacing" textLength="20" x="141.0698" y="230.5555">0,1</text></g><!--reverse link ????? to ??????????????_?????--><g id="link_&#1058;&#1072;&#1088;&#1080;&#1092;_&#1048;&#1085;&#1076;&#1080;&#1074;&#1080;&#1076;&#1091;&#1072;&#1083;&#1100;&#1085;&#1099;&#1081;_&#1058;&#1072;&#1088;&#1080;&#1092;"><path codeLine="126" d="M472,362.729 C472,362.729 472,499.939 472,499.939 " fill="none" id="&#1058;&#1072;&#1088;&#1080;&#1092;-backto-&#1048;&#1085;&#1076;&#1080;&#1074;&#1080;&#1076;&#1091;&#1072;&#1083;&#1100;&#1085;&#1099;&#1081;_&#1058;&#1072;&#1088;&#1080;&#1092;" style="stroke:#181818;stroke-width:1.0;"/><polygon fill="none" points="465,362.729,472,342.729,479,362.729,465,362.729" style="stroke:#181818;stroke-width:1.0;"/></g><!--reverse link ???????? to ??????--><g id="link_&#1056;&#1077;&#1089;&#1090;&#1086;&#1088;&#1072;&#1085;_&#1057;&#1090;&#1086;&#1083;&#1080;&#1082;"><path codeLine="128" d="M910.388,356 C910.388,356 1231,356 1231,356 C1231,356 1231,429.655 1231,483.89 " fill="none" id="&#1056;&#1077;&#1089;&#1090;&#1086;&#1088;&#1072;&#1085;-backto-&#1057;&#1090;&#1086;&#1083;&#1080;&#1082;" style="stroke:#181818;stroke-width:1.0;"/><polygon fill="#181818" points="897.388,356,903.388,360,909.388,356,903.388,352,897.388,356" style="stroke:#181818;stroke-width:1.0;"/><text fill="#000000" font-family="sans-serif" font-size="13" lengthAdjust="spacing" textLength="19" x="1204.1203" y="472.7393">1,*</text></g><!--link ???????? to ???_?????--><g id="link_&#1056;&#1077;&#1089;&#1090;&#1086;&#1088;&#1072;&#1085;_&#1058;&#1080;&#1087;_&#1082;&#1091;&#1093;&#1085;&#1080;"><path codeLine="129" d="M768.914,363 C716.328,363 650.5,363 650.5,363 C650.5,363 650.5,429.94 650.5,429.94 " fill="none" id="&#1056;&#1077;&#1089;&#1090;&#1086;&#1088;&#1072;&#1085;-to-&#1058;&#1080;&#1087;_&#1082;&#1091;&#1093;&#1085;&#1080;" style="stroke:#181818;stroke-width:1.0;"/><polygon fill="#181818" points="650.5,434.94,654.5,425.94,650.5,429.94,646.5,425.94,650.5,434.94" style="stroke:#181818;stroke-width:1.0;"/><text fill="#000000" font-family="sans-serif" font-size="13" lengthAdjust="spacing" textLength="7" x="754.0994" y="366.2325">*</text><text fill="#000000" font-family="sans-serif" font-size="13" lengthAdjust="spacing" textLength="20" x="629.6914" y="424.0631">1,5</text></g><!--link ???????? to ??????_?????????--><g id="link_&#1056;&#1077;&#1089;&#1090;&#1086;&#1088;&#1072;&#1085;_&#1057;&#1090;&#1072;&#1090;&#1091;&#1089;_&#1088;&#1077;&#1089;&#1090;&#1086;&#1088;&#1072;&#1085;&#1072;"><path codeLine="130" d="M833,366.542 C833,366.542 833,494.894 833,494.894 " fill="none" id="&#1056;&#1077;&#1089;&#1090;&#1086;&#1088;&#1072;&#1085;-to-&#1057;&#1090;&#1072;&#1090;&#1091;&#1089;_&#1088;&#1077;&#1089;&#1090;&#1086;&#1088;&#1072;&#1085;&#1072;" style="stroke:#181818;stroke-width:1.0;"/><polygon fill="#181818" points="833,499.894,837,490.894,833,494.894,829,490.894,833,499.894" style="stroke:#181818;stroke-width:1.0;"/><text fill="#000000" font-family="sans-serif" font-size="13" lengthAdjust="spacing" textLength="7" x="825.5953" y="386.9184">*</text><text fill="#000000" font-family="sans-serif" font-size="13" lengthAdjust="spacing" textLength="8" x="824.3375" y="489.038">1</text></g><!--reverse link ???????? to ??????????--><g id="link_&#1056;&#1077;&#1089;&#1090;&#1086;&#1088;&#1072;&#1085;_&#1056;&#1072;&#1089;&#1087;&#1080;&#1089;&#1072;&#1085;&#1080;&#1077;"><path codeLine="131" d="M910.126,362 C910.126,362 985.25,362 985.25,362 C985.25,362 985.25,431.291 985.25,483.531 " fill="none" id="&#1056;&#1077;&#1089;&#1090;&#1086;&#1088;&#1072;&#1085;-backto-&#1056;&#1072;&#1089;&#1087;&#1080;&#1089;&#1072;&#1085;&#1080;&#1077;" style="stroke:#181818;stroke-width:1.0;"/><polygon fill="#181818" points="897.126,362,903.126,366,909.126,362,903.126,358,897.126,362" style="stroke:#181818;stroke-width:1.0;"/><text fill="#000000" font-family="sans-serif" font-size="13" lengthAdjust="spacing" textLength="19" x="955.6164" y="472.7374">1,*</text></g><!--link ?????? to ??????_???????--><g id="link_&#1057;&#1090;&#1086;&#1083;&#1080;&#1082;_&#1057;&#1090;&#1072;&#1090;&#1091;&#1089;_&#1089;&#1090;&#1086;&#1083;&#1080;&#1082;&#1072;"><path codeLine="133" d="M1283,597.063 C1283,597.063 1283,700.739 1283,700.739 " fill="none" id="&#1057;&#1090;&#1086;&#1083;&#1080;&#1082;-to-&#1057;&#1090;&#1072;&#1090;&#1091;&#1089;_&#1089;&#1090;&#1086;&#1083;&#1080;&#1082;&#1072;" style="stroke:#181818;stroke-width:1.0;"/><polygon fill="#181818" points="1283,705.739,1287,696.739,1283,700.739,1279,696.739,1283,705.739" style="stroke:#181818;stroke-width:1.0;"/><text fill="#000000" font-family="sans-serif" font-size="13" lengthAdjust="spacing" textLength="7" x="1275.5516" y="617.3345">*</text><text fill="#000000" font-family="sans-serif" font-size="13" lengthAdjust="spacing" textLength="8" x="1274.3375" y="694.8573">1</text></g><!--link ???????????? to ??????_????????????--><g id="link_&#1055;&#1086;&#1083;&#1100;&#1079;&#1086;&#1074;&#1072;&#1090;&#1077;&#1083;&#1100;_&#1057;&#1090;&#1072;&#1090;&#1091;&#1089;_&#1087;&#1086;&#1083;&#1100;&#1079;&#1086;&#1074;&#1072;&#1090;&#1077;&#1083;&#1103;"><path codeLine="135" d="M1203,136.56 C1203,136.56 1203,248.262 1203,248.262 " fill="none" id="&#1055;&#1086;&#1083;&#1100;&#1079;&#1086;&#1074;&#1072;&#1090;&#1077;&#1083;&#1100;-to-&#1057;&#1090;&#1072;&#1090;&#1091;&#1089;_&#1087;&#1086;&#1083;&#1100;&#1079;&#1086;&#1074;&#1072;&#1090;&#1077;&#1083;&#1103;" style="stroke:#181818;stroke-width:1.0;"/><polygon fill="#181818" points="1203,253.262,1207,244.262,1203,248.262,1199,244.262,1203,253.262" style="stroke:#181818;stroke-width:1.0;"/><text fill="#000000" font-family="sans-serif" font-size="13" lengthAdjust="spacing" textLength="7" x="1187.2109" y="156.5274">*</text><text fill="#000000" font-family="sans-serif" font-size="13" lengthAdjust="spacing" textLength="8" x="1206.8125" y="242.4375">1</text></g><!--reverse link ???????????? to ????????????--><g id="link_&#1055;&#1086;&#1083;&#1100;&#1079;&#1086;&#1074;&#1072;&#1090;&#1077;&#1083;&#1100;_&#1041;&#1088;&#1086;&#1085;&#1080;&#1088;&#1086;&#1074;&#1072;&#1085;&#1080;&#1077;"><path codeLine="136" d="M1290,149.56 C1290,149.56 1290,228.833 1290,228.833 " fill="none" id="&#1055;&#1086;&#1083;&#1100;&#1079;&#1086;&#1074;&#1072;&#1090;&#1077;&#1083;&#1100;-backto-&#1041;&#1088;&#1086;&#1085;&#1080;&#1088;&#1086;&#1074;&#1072;&#1085;&#1080;&#1077;" style="stroke:#181818;stroke-width:1.0;"/><polygon fill="#181818" points="1290,136.56,1286,142.56,1290,148.56,1294,142.56,1290,136.56" style="stroke:#181818;stroke-width:1.0;"/><text fill="#000000" font-family="sans-serif" font-size="13" lengthAdjust="spacing" textLength="19" x="1258.2523" y="217.9765">0,*</text></g><!--link ???????????? to ??????_????????????--><g id="link_&#1041;&#1088;&#1086;&#1085;&#1080;&#1088;&#1086;&#1074;&#1072;&#1085;&#1080;&#1077;_&#1057;&#1090;&#1072;&#1090;&#1091;&#1089;_&#1073;&#1088;&#1086;&#1085;&#1080;&#1088;&#1086;&#1074;&#1072;&#1085;&#1080;&#1103;"><path codeLine="138" d="M1482.75,375.179 C1482.75,375.179 1482.75,470.947 1482.75,470.947 " fill="none" id="&#1041;&#1088;&#1086;&#1085;&#1080;&#1088;&#1086;&#1074;&#1072;&#1085;&#1080;&#1077;-to-&#1057;&#1090;&#1072;&#1090;&#1091;&#1089;_&#1073;&#1088;&#1086;&#1085;&#1080;&#1088;&#1086;&#1074;&#1072;&#1085;&#1080;&#1103;" style="stroke:#181818;stroke-width:1.0;"/><polygon fill="#181818" points="1482.75,475.947,1486.75,466.947,1482.75,470.947,1478.75,466.947,1482.75,475.947" style="stroke:#181818;stroke-width:1.0;"/><text fill="#000000" font-family="sans-serif" font-size="13" lengthAdjust="spacing" textLength="7" x="1482.3504" y="394.9524">*</text><text fill="#000000" font-family="sans-serif" font-size="13" lengthAdjust="spacing" textLength="8" x="1473.082" y="465.1139">1</text></g><!--link ???????????? to ??????--><g id="link_&#1041;&#1088;&#1086;&#1085;&#1080;&#1088;&#1086;&#1074;&#1072;&#1085;&#1080;&#1077;_&#1057;&#1090;&#1086;&#1083;&#1080;&#1082;"><path codeLine="139" d="M1303.75,375.179 C1303.75,375.179 1303.75,478.748 1303.75,478.748 " fill="none" id="&#1041;&#1088;&#1086;&#1085;&#1080;&#1088;&#1086;&#1074;&#1072;&#1085;&#1080;&#1077;-to-&#1057;&#1090;&#1086;&#1083;&#1080;&#1082;" style="stroke:#181818;stroke-width:1.0;"/><polygon fill="#181818" points="1303.75,483.748,1307.75,474.748,1303.75,478.748,1299.75,474.748,1303.75,483.748" style="stroke:#181818;stroke-width:1.0;"/><text fill="#000000" font-family="sans-serif" font-size="13" lengthAdjust="spacing" textLength="19" x="1273.7176" y="394.9524">0,*</text><text fill="#000000" font-family="sans-serif" font-size="13" lengthAdjust="spacing" textLength="19" x="1281.8773" y="472.9808">1,*</text></g><!--SRC=[bLR9JXj14BttLxJcQE4e77BDZTy8ue0KAsmYpW55ICOuSYIG3049P0aJ8EUa8JROXXd_GlKVvLNDZATdQG8NpqnrBQzUBUtFdneRMolRA-jwhR6nsjpPMjMRsysFcqejRJGRpHrDVNgaCOqej6tzLTNeWWmzq1r-GvP3SWxP1PvzkgHBF0TqGZz5yjkse3EaiUtIoExH55yJ3TCX3Y0GuoVRqw834KrjcoAy6HoTK0HvX5WHMqLqAqUHRQjTnlTbNTCrFCwMSJ86g5226C14VBoclYXKT4p6jXGm6ji1QhhYGwJ6xetjAJg3tjJkmq44jA48TpCQBWNUK9mQs8pn7D6ZFLn6LdE697YI59w_eFg4CvpBzpMR05a7OKDLMrfVQQovGQuP97Gx7gRxi8C_WDWJZuxfEPH08YC3odqO0HiW7T1akU3t55vcRxJa6XCGexkI-WpnQpA2cITZswnSo1GiNx0rXn3wXA6_0gyjuLenkqp_aLHMuBdY6uGpJ0a-d6GArVEmSUIqqO1c7DWvBN1DFy1Sx7MCjqX07fOQYJlW6_kG9kAifMsbGywbzA3Lzi30N7maZhdHfnm-E_W3J94hw4lN69faeXlaT2jzxsXnVx6l1oU8C77hW4dgFN61tANKEsA7rhJdWLGehQQa9cMLd7YE33pDab6vvq89lpJWGG6W0nff7aanQ7C7LVTENAcifl6OdYPHzn62Um2XHpppEM6rlxqicTVwIfiiJirfcsGykC4FDQyJs7CNZPaiQMzPLhmSkjAtHiTrOGRiGLuh0Z0kVpVs3b51zvIJIMSjsJAS4kRs8TbBoOuHNCM6ZfUCiqDAupghzDRJhvfSpuWUYqxewiuPB8ogBjVUdTxgutaFwdobCzuqXXGvL5O5ZLa1JxQSnxfShMTyz6CyyQq6RxYXD7yawnJZxAc8nsLS4GmILsme3dcZt4lxCH_I69K70ncwH_7gY9xa8n6SoKQ1eVsUY81EvMxsMhqUB2xKWfTVT7dxu2qRr-ll-MqnSAwoWbwgnJh-kwLWj1WmFWbHljahtQSWolyEa7Xs7NwerrzwTQhIdmg7D6UpbjMod1VU1UMRvZc3u7zBz3bG5GjEgTmbu0-KdpdbNKp-UdgMZzyLW2Tjv5ikmE5REtuSlYdskyfQ6JpgV7N_0G00]--></g></svg>