<?xml version="1.0" encoding="us-ascii" standalone="no"?><svg xmlns="http://www.w3.org/2000/svg" xmlns:xlink="http://www.w3.org/1999/xlink" contentStyleType="text/css" height="1246px" preserveAspectRatio="none" style="width:2422px;height:1246px;background:#FFFFFF;" version="1.1" viewBox="0 0 2422 1246" width="2422px" zoomAndPan="magnify"><defs/><g><!--cluster RestoBook--><g id="cluster_RestoBook"><rect fill="none" height="1233" rx="2.5" ry="2.5" style="stroke:#181818;stroke-width:1.0;" width="2256" x="160" y="7"/><text fill="#000000" font-family="sans-serif" font-size="14" font-weight="bold" lengthAdjust="spacing" textLength="87" x="1244.5" y="21.9951">RestoBook</text></g><g id="elem_regUl"><ellipse cx="361.834" cy="403.8668" fill="#F1F1F1" rx="119.834" ry="26.3668" style="stroke:#181818;stroke-width:0.5;"/><text fill="#000000" font-family="sans-serif" font-size="14" lengthAdjust="spacing" textLength="207" x="258.334" y="406.7135">UC-1: &#1056;&#1077;&#1075;&#1080;&#1089;&#1090;&#1088;&#1072;&#1094;&#1080;&#1103; &#1082;&#1083;&#1080;&#1077;&#1085;&#1090;&#1072;</text></g><g id="elem_cancelRegUl"><ellipse cx="914.8078" cy="406.1616" fill="#F1F1F1" rx="148.8078" ry="32.1616" style="stroke:#181818;stroke-width:0.5;"/><text fill="#000000" font-family="sans-serif" font-size="14" lengthAdjust="spacing" textLength="268" x="780.8078" y="409.0082">UC-2: &#1054;&#1090;&#1084;&#1077;&#1085;&#1072; &#1088;&#1077;&#1075;&#1080;&#1089;&#1090;&#1088;&#1072;&#1094;&#1080;&#1080; &#1082;&#1083;&#1080;&#1077;&#1085;&#1090;&#1072;</text></g><g id="elem_authUl"><ellipse cx="361.9476" cy="252.8895" fill="#F1F1F1" rx="134.9476" ry="29.3895" style="stroke:#181818;stroke-width:0.5;"/><text fill="#000000" font-family="sans-serif" font-size="14" lengthAdjust="spacing" textLength="239" x="242.4476" y="255.7362">UC-3: &#1040;&#1091;&#1090;&#1077;&#1085;&#1090;&#1080;&#1092;&#1080;&#1082;&#1072;&#1094;&#1080;&#1103; &#1082;&#1083;&#1080;&#1077;&#1085;&#1090;&#1072;</text></g><g id="elem_activateLK"><ellipse cx="914.9091" cy="74.1818" fill="#F1F1F1" rx="146.4091" ry="31.6818" style="stroke:#181818;stroke-width:0.5;"/><text fill="#000000" font-family="sans-serif" font-size="14" lengthAdjust="spacing" textLength="263" x="783.4091" y="77.0285">UC-4: &#1040;&#1082;&#1090;&#1080;&#1074;&#1072;&#1094;&#1080;&#1103; &#1083;&#1080;&#1095;&#1085;&#1086;&#1075;&#1086; &#1082;&#1072;&#1073;&#1080;&#1085;&#1077;&#1090;&#1072;</text></g><g id="elem_searchInfo"><ellipse cx="915.1689" cy="296.2338" fill="#F1F1F1" rx="204.1689" ry="43.2338" style="stroke:#181818;stroke-width:0.5;"/><text fill="#000000" font-family="sans-serif" font-size="14" lengthAdjust="spacing" textLength="382" x="724.1689" y="299.0805">UC-5: &#1055;&#1088;&#1086;&#1089;&#1084;&#1086;&#1090;&#1088; &#1080;&#1085;&#1092;&#1086;&#1088;&#1084;&#1072;&#1094;&#1080;&#1080; &#1086; &#1089;&#1074;&#1086;&#1077;&#1081; &#1086;&#1088;&#1075;&#1072;&#1085;&#1080;&#1079;&#1072;&#1094;&#1080;&#1080;</text></g><g id="elem_editCompanyInfo"><ellipse cx="1582.5976" cy="306.9195" fill="#F1F1F1" rx="207.5976" ry="43.9195" style="stroke:#181818;stroke-width:0.5;"/><text fill="#000000" font-family="sans-serif" font-size="14" lengthAdjust="spacing" textLength="389" x="1388.0976" y="309.7662">UC-6: &#1048;&#1079;&#1084;&#1077;&#1085;&#1077;&#1085;&#1080;&#1077; &#1080;&#1085;&#1092;&#1086;&#1088;&#1084;&#1072;&#1094;&#1080;&#1080; &#1086; &#1089;&#1074;&#1086;&#1077;&#1081; &#1086;&#1088;&#1075;&#1072;&#1085;&#1080;&#1079;&#1072;&#1094;&#1080;&#1080;</text></g><g id="elem_insertRestInfo"><ellipse cx="915.2461" cy="178.9492" fill="#F1F1F1" rx="180.2461" ry="38.4492" style="stroke:#181818;stroke-width:0.5;"/><text fill="#000000" font-family="sans-serif" font-size="14" lengthAdjust="spacing" textLength="333" x="748.7461" y="181.7959">UC-7: &#1044;&#1086;&#1073;&#1072;&#1074;&#1083;&#1077;&#1085;&#1080;&#1077; &#1080;&#1085;&#1092;&#1086;&#1088;&#1084;&#1072;&#1094;&#1080;&#1080; &#1086; &#1088;&#1077;&#1089;&#1090;&#1086;&#1088;&#1072;&#1085;&#1077;</text></g><g id="elem_editRestInfo"><ellipse cx="1582.3697" cy="80.0739" fill="#F1F1F1" rx="175.8697" ry="37.5739" style="stroke:#181818;stroke-width:0.5;"/><text fill="#000000" font-family="sans-serif" font-size="14" lengthAdjust="spacing" textLength="324" x="1420.3697" y="82.9206">UC-8: &#1048;&#1079;&#1084;&#1077;&#1085;&#1077;&#1085;&#1080;&#1077; &#1080;&#1085;&#1092;&#1086;&#1088;&#1084;&#1072;&#1094;&#1080;&#1080; &#1086; &#1088;&#1077;&#1089;&#1090;&#1086;&#1088;&#1072;&#1085;&#1077;</text></g><g id="elem_insertTableInfo"><ellipse cx="1582.4123" cy="189.7825" fill="#F1F1F1" rx="174.4123" ry="37.2825" style="stroke:#181818;stroke-width:0.5;"/><text fill="#000000" font-family="sans-serif" font-size="14" lengthAdjust="spacing" textLength="321" x="1421.9123" y="192.6291">UC-9: &#1044;&#1086;&#1073;&#1072;&#1074;&#1083;&#1077;&#1085;&#1080;&#1077; &#1080;&#1085;&#1092;&#1086;&#1088;&#1084;&#1072;&#1094;&#1080;&#1080; &#1086; &#1089;&#1090;&#1086;&#1083;&#1080;&#1082;&#1072;&#1093;</text></g><g id="elem_insertTableMap"><ellipse cx="2195.1483" cy="236.9297" fill="#F1F1F1" rx="205.1483" ry="43.4297" style="stroke:#181818;stroke-width:0.5;"/><text fill="#000000" font-family="sans-serif" font-size="14" lengthAdjust="spacing" textLength="384" x="2003.1483" y="239.7763">UC-10: &#1044;&#1086;&#1073;&#1072;&#1074;&#1083;&#1077;&#1085;&#1080;&#1077; &#1089;&#1093;&#1077;&#1084;&#1099; &#1088;&#1072;&#1089;&#1087;&#1086;&#1083;&#1086;&#1078;&#1077;&#1085;&#1080;&#1103; &#1089;&#1090;&#1086;&#1083;&#1080;&#1082;&#1086;&#1074;</text></g><g id="elem_editTableInfo"><ellipse cx="2194.898" cy="120.8796" fill="#F1F1F1" rx="174.898" ry="37.3796" style="stroke:#181818;stroke-width:0.5;"/><text fill="#000000" font-family="sans-serif" font-size="14" lengthAdjust="spacing" textLength="322" x="2033.898" y="123.7263">UC-11: &#1048;&#1079;&#1084;&#1077;&#1085;&#1077;&#1085;&#1080;&#1077; &#1080;&#1085;&#1092;&#1086;&#1088;&#1084;&#1072;&#1094;&#1080;&#1080; &#1086; &#1089;&#1090;&#1086;&#1083;&#1080;&#1082;&#1072;&#1093;</text></g><g id="elem_regFl"><ellipse cx="361.9927" cy="836.7985" fill="#F1F1F1" rx="144.4927" ry="31.2985" style="stroke:#181818;stroke-width:0.5;"/><text fill="#000000" font-family="sans-serif" font-size="14" lengthAdjust="spacing" textLength="259" x="232.4927" y="839.6452">UC-12: &#1056;&#1077;&#1075;&#1080;&#1089;&#1090;&#1088;&#1072;&#1094;&#1080;&#1103; &#1087;&#1086;&#1083;&#1100;&#1079;&#1086;&#1074;&#1072;&#1090;&#1077;&#1083;&#1103;</text></g><g id="elem_cancelRegFl"><ellipse cx="914.898" cy="713.8796" fill="#F1F1F1" rx="174.898" ry="37.3796" style="stroke:#181818;stroke-width:0.5;"/><text fill="#000000" font-family="sans-serif" font-size="14" lengthAdjust="spacing" textLength="322" x="753.898" y="716.7263">UC-13: &#1054;&#1090;&#1084;&#1077;&#1085;&#1072; &#1088;&#1077;&#1075;&#1080;&#1089;&#1090;&#1088;&#1072;&#1094;&#1080;&#1080; &#1087;&#1086;&#1083;&#1100;&#1079;&#1086;&#1074;&#1072;&#1090;&#1077;&#1083;&#1103;</text></g><g id="elem_authFl"><ellipse cx="1582.3827" cy="1019.8765" fill="#F1F1F1" rx="159.8827" ry="34.3765" style="stroke:#181818;stroke-width:0.5;"/><text fill="#000000" font-family="sans-serif" font-size="14" lengthAdjust="spacing" textLength="291" x="1436.8827" y="1022.7232">UC-14: &#1040;&#1091;&#1090;&#1077;&#1085;&#1090;&#1080;&#1092;&#1080;&#1082;&#1072;&#1094;&#1080;&#1103; &#1087;&#1086;&#1083;&#1100;&#1079;&#1086;&#1074;&#1072;&#1090;&#1077;&#1083;&#1103;</text></g><g id="elem_searchRest"><ellipse cx="362.0935" cy="975.8187" fill="#F1F1F1" rx="109.5935" ry="24.3187" style="stroke:#181818;stroke-width:0.5;"/><text fill="#000000" font-family="sans-serif" font-size="14" lengthAdjust="spacing" textLength="185" x="269.5935" y="978.6654">UC-15: &#1042;&#1099;&#1073;&#1086;&#1088; &#1088;&#1077;&#1089;&#1090;&#1086;&#1088;&#1072;&#1085;&#1072;</text></g><g id="elem_bookingTableList"><ellipse cx="915.0296" cy="1093.0059" fill="#F1F1F1" rx="170.5296" ry="36.5059" style="stroke:#181818;stroke-width:0.5;"/><text fill="#000000" font-family="sans-serif" font-size="14" lengthAdjust="spacing" textLength="313" x="758.5296" y="1095.8526">UC-16: &#1041;&#1088;&#1086;&#1085;&#1080;&#1088;&#1086;&#1074;&#1072;&#1085;&#1080;&#1077; &#1089;&#1090;&#1086;&#1083;&#1080;&#1082;&#1086;&#1074; &#1080;&#1079; &#1089;&#1087;&#1080;&#1089;&#1082;&#1072;</text></g><g id="elem_bookingTableGuest"><ellipse cx="914.9341" cy="976.0868" fill="#F1F1F1" rx="215.9341" ry="45.5868" style="stroke:#181818;stroke-width:0.5;"/><text fill="#000000" font-family="sans-serif" font-size="14" lengthAdjust="spacing" textLength="406" x="711.9341" y="978.9335">UC-17: &#1041;&#1088;&#1086;&#1085;&#1080;&#1088;&#1086;&#1074;&#1072;&#1085;&#1080;&#1077; &#1089;&#1090;&#1086;&#1083;&#1080;&#1082;&#1086;&#1074; &#1087;&#1086; &#1082;&#1086;&#1083;&#1080;&#1095;&#1077;&#1089;&#1090;&#1074;&#1091; &#1075;&#1086;&#1089;&#1090;&#1077;&#1081;</text></g><g id="elem_bookingTableMap"><ellipse cx="915.2468" cy="840.9494" fill="#F1F1F1" rx="260.2468" ry="54.4494" style="stroke:#181818;stroke-width:0.5;"/><text fill="#000000" font-family="sans-serif" font-size="14" lengthAdjust="spacing" textLength="496" x="667.2468" y="843.796">UC-18: &#1041;&#1088;&#1086;&#1085;&#1080;&#1088;&#1086;&#1074;&#1072;&#1085;&#1080;&#1077; &#1089;&#1090;&#1086;&#1083;&#1080;&#1082;&#1086;&#1074; &#1085;&#1072; &#1089;&#1093;&#1077;&#1084;&#1077; &#1088;&#1072;&#1089;&#1087;&#1086;&#1083;&#1086;&#1078;&#1077;&#1085;&#1080;&#1103; &#1089;&#1090;&#1086;&#1083;&#1080;&#1082;&#1086;&#1074;</text></g><g id="elem_bookingView"><ellipse cx="914.8991" cy="1194.0798" fill="#F1F1F1" rx="135.8991" ry="29.5798" style="stroke:#181818;stroke-width:0.5;"/><text fill="#000000" font-family="sans-serif" font-size="14" lengthAdjust="spacing" textLength="241" x="794.3991" y="1196.9265">UC-19: &#1055;&#1088;&#1086;&#1089;&#1084;&#1086;&#1090;&#1088; &#1073;&#1088;&#1086;&#1085;&#1080;&#1088;&#1086;&#1074;&#1072;&#1085;&#1080;&#1081;</text></g><g id="elem_bookingCancel"><ellipse cx="1582.4187" cy="1189.1837" fill="#F1F1F1" rx="126.4187" ry="27.6837" style="stroke:#181818;stroke-width:0.5;"/><text fill="#000000" font-family="sans-serif" font-size="14" lengthAdjust="spacing" textLength="221" x="1471.9187" y="1192.0304">UC-20: &#1054;&#1090;&#1084;&#1077;&#1085;&#1072; &#1073;&#1088;&#1086;&#1085;&#1080;&#1088;&#1086;&#1074;&#1072;&#1085;&#1080;&#1103;</text></g><g id="elem_newActivate"><ellipse cx="915.0569" cy="504.0114" fill="#F1F1F1" rx="143.0569" ry="31.0114" style="stroke:#181818;stroke-width:0.5;"/><text fill="#000000" font-family="sans-serif" font-size="14" lengthAdjust="spacing" textLength="256" x="787.0569" y="506.8581">UC-21: &#1040;&#1082;&#1090;&#1080;&#1074;&#1072;&#1094;&#1080;&#1103; &#1085;&#1086;&#1074;&#1086;&#1075;&#1086; &#1082;&#1083;&#1080;&#1077;&#1085;&#1090;&#1072;</text></g><g id="elem_chooseIndividualConditions"><ellipse cx="915.1843" cy="606.0369" fill="#F1F1F1" rx="165.6843" ry="35.5369" style="stroke:#181818;stroke-width:0.5;"/><text fill="#000000" font-family="sans-serif" font-size="14" lengthAdjust="spacing" textLength="303" x="763.6843" y="608.8835">UC-22: &#1055;&#1086;&#1076;&#1073;&#1086;&#1088; &#1080;&#1085;&#1076;&#1080;&#1074;&#1080;&#1076;&#1091;&#1072;&#1083;&#1100;&#1085;&#1099;&#1093; &#1091;&#1089;&#1083;&#1086;&#1074;&#1080;&#1081;</text></g><g id="elem_checkCl"><ellipse cx="362.0545" cy="507.7984" fill="#F1F1F1" rx="186.0545" ry="42.2984" style="stroke:#181818;stroke-width:0.5;"/><text fill="#000000" font-family="sans-serif" font-size="14" lengthAdjust="spacing" textLength="222" x="240.3045" y="491.2491">UC-23: &#1042;&#1077;&#1088;&#1080;&#1092;&#1080;&#1082;&#1072;&#1094;&#1080;&#1103; &#1082;&#1083;&#1080;&#1077;&#1085;&#1090;&#1072;</text><line style="stroke:#181818;stroke-width:1.0;" x1="186.3605" x2="537.7486" y1="494.5509" y2="494.5509"/><text fill="#000000" font-family="sans-serif" font-size="14" lengthAdjust="spacing" textLength="126" x="288.3045" y="511.546">Extention points:</text><text fill="#000000" font-family="sans-serif" font-size="14" lengthAdjust="spacing" textLength="253" x="224.8045" y="527.8429">&#1055;&#1086;&#1076;&#1073;&#1086;&#1088; &#1080;&#1085;&#1076;&#1080;&#1074;&#1080;&#1076;&#1091;&#1072;&#1083;&#1100;&#1085;&#1099;&#1093; &#1091;&#1089;&#1083;&#1086;&#1074;&#1080;&#1081;</text></g><g id="elem_GMN44"><path d="M1282,586 L1282,602 L1080.51,606 L1282,610 L1282,626.2656 A0,0 0 0 0 1282,626.2656 L1883,626.2656 A0,0 0 0 0 1883,626.2656 L1883,596 L1873,586 L1282,586 A0,0 0 0 0 1282,586 " fill="#FEFFDD" style="stroke:#181818;stroke-width:0.5;"/><path d="M1873,586 L1873,596 L1883,596 L1873,586 " fill="#FEFFDD" style="stroke:#181818;stroke-width:0.5;"/><text fill="#000000" font-family="sans-serif" font-size="13" lengthAdjust="spacing" textLength="580" x="1288" y="603.0669">Condition: {&#1058;&#1072;&#1088;&#1080;&#1092; &#1085;&#1077; &#1089;&#1086;&#1086;&#1090;&#1074;&#1077;&#1090;&#1089;&#1090;&#1074;&#1091;&#1077;&#1090; &#1086;&#1073;&#1086;&#1088;&#1086;&#1090;&#1091; &#1080;&#1083;&#1080; &#1074;&#1099;&#1073;&#1088;&#1072;&#1085;&#1099; &#1080;&#1085;&#1076;&#1080;&#1074;&#1080;&#1076;&#1091;&#1072;&#1083;&#1100;&#1085;&#1099;&#1077; &#1091;&#1089;&#1083;&#1086;&#1074;&#1080;&#1103;}</text><text fill="#000000" font-family="sans-serif" font-size="13" lengthAdjust="spacing" textLength="344" x="1288" y="618.1997">extension point: &#1055;&#1086;&#1076;&#1073;&#1086;&#1088; &#1080;&#1085;&#1076;&#1080;&#1074;&#1080;&#1076;&#1091;&#1072;&#1083;&#1100;&#1085;&#1099;&#1093; &#1091;&#1089;&#1083;&#1086;&#1074;&#1080;&#1081;"</text></g><!--entity ul--><g id="elem_ul"><ellipse cx="59.5" cy="297.5" fill="#F1F1F1" rx="8" ry="8" style="stroke:#181818;stroke-width:0.5;"/><path d="M59.5,305.5 L59.5,332.5 M46.5,313.5 L72.5,313.5 M59.5,332.5 L46.5,347.5 M59.5,332.5 L72.5,347.5 " fill="none" style="stroke:#181818;stroke-width:0.5;"/><text fill="#000000" font-family="sans-serif" font-size="14" lengthAdjust="spacing" textLength="55" x="32" y="361.9951">&#1050;&#1083;&#1080;&#1077;&#1085;&#1090;</text></g><!--entity manager--><g id="elem_manager"><ellipse cx="59.5" cy="450.5" fill="#F1F1F1" rx="8" ry="8" style="stroke:#181818;stroke-width:0.5;"/><path d="M59.5,458.5 L59.5,485.5 M46.5,466.5 L72.5,466.5 M59.5,485.5 L46.5,500.5 M59.5,485.5 L72.5,500.5 " fill="none" style="stroke:#181818;stroke-width:0.5;"/><text fill="#000000" font-family="sans-serif" font-size="14" lengthAdjust="spacing" textLength="81" x="19" y="514.9951">&#1052;&#1077;&#1085;&#1077;&#1076;&#1078;&#1077;&#1088;</text></g><!--entity fl--><g id="elem_fl"><ellipse cx="59.5" cy="946.5" fill="#F1F1F1" rx="8" ry="8" style="stroke:#181818;stroke-width:0.5;"/><path d="M59.5,954.5 L59.5,981.5 M46.5,962.5 L72.5,962.5 M59.5,981.5 L46.5,996.5 M59.5,981.5 L72.5,996.5 " fill="none" style="stroke:#181818;stroke-width:0.5;"/><text fill="#000000" font-family="sans-serif" font-size="14" lengthAdjust="spacing" textLength="107" x="6" y="1010.9951">&#1055;&#1086;&#1083;&#1100;&#1079;&#1086;&#1074;&#1072;&#1090;&#1077;&#1083;&#1100;</text></g><!--link ul to regUl--><g id="link_ul_regUl"><path d="M87.1674,333.833 C130.618,344.967 218.312,367.438 282.803,383.963 " fill="none" id="ul-regUl" style="stroke:#181818;stroke-width:1.0;"/></g><!--link ul to authUl--><g id="link_ul_authUl"><path d="M87.1674,320.433 C128.177,310.334 208.596,290.531 271.722,274.985 " fill="none" id="ul-authUl" style="stroke:#181818;stroke-width:1.0;"/></g><!--reverse link authUl to searchInfo--><g id="link_authUl_searchInfo"><path d="M494.727,263.28 C563.184,268.622 648.095,275.249 723.564,281.138 " fill="none" id="authUl-backto-searchInfo" style="stroke:#181818;stroke-width:1.0;stroke-dasharray:7.0,7.0;"/><polygon fill="#181818" points="489.411,262.865,498.0716,267.5547,494.3958,263.2549,498.6955,259.579,489.411,262.865" style="stroke:#181818;stroke-width:1.0;"/><text fill="#000000" font-family="sans-serif" font-size="13" lengthAdjust="spacing" textLength="45" x="579" y="267.0669">include</text></g><!--reverse link authUl to activateLK--><g id="link_authUl_activateLK"><path d="M419.112,223.31 C476.813,193.92 569.997,149.57 655,123 C698.789,109.31 748,98.83 791.672,91.15 " fill="none" id="authUl-backto-activateLK" style="stroke:#181818;stroke-width:1.0;stroke-dasharray:7.0,7.0;"/><polygon fill="#181818" points="414.33,225.75,424.1647,225.2224,418.7837,223.4775,420.5287,218.0965,414.33,225.75" style="stroke:#181818;stroke-width:1.0;"/><text fill="#000000" font-family="sans-serif" font-size="13" lengthAdjust="spacing" textLength="45" x="579" y="130.0669">include</text></g><!--reverse link authUl to insertRestInfo--><g id="link_authUl_insertRestInfo"><path d="M482.862,236.9 C564.846,225.89 674.195,211.21 762.252,199.38 " fill="none" id="authUl-backto-insertRestInfo" style="stroke:#181818;stroke-width:1.0;stroke-dasharray:7.0,7.0;"/><polygon fill="#181818" points="477.502,237.62,486.9543,240.3865,482.4575,236.9545,485.8895,232.4577,477.502,237.62" style="stroke:#181818;stroke-width:1.0;"/><text fill="#000000" font-family="sans-serif" font-size="13" lengthAdjust="spacing" textLength="45" x="579" y="215.0669">include</text></g><!--reverse link searchInfo to editCompanyInfo--><g id="link_searchInfo_editCompanyInfo"><path d="M1123.65,299.432 C1203.86,300.758 1295.43,302.272 1375.48,303.595 " fill="none" id="searchInfo-backto-editCompanyInfo" style="stroke:#181818;stroke-width:1.0;stroke-dasharray:7.0,7.0;"/><polygon fill="#181818" points="1118.38,299.345,1127.3101,303.4987,1123.3793,299.4307,1127.4472,295.4999,1118.38,299.345" style="stroke:#181818;stroke-width:1.0;"/><text fill="#000000" font-family="sans-serif" font-size="13" lengthAdjust="spacing" textLength="45" x="1206" y="297.0669">extend</text></g><!--reverse link insertRestInfo to insertTableInfo--><g id="link_insertRestInfo_insertTableInfo"><path d="M1099.93,182.04 C1196.29,183.63 1313.63,185.57 1408.35,187.14 " fill="none" id="insertRestInfo-backto-insertTableInfo" style="stroke:#181818;stroke-width:1.0;stroke-dasharray:7.0,7.0;"/><polygon fill="#181818" points="1094.78,181.96,1103.7101,186.1137,1099.7793,182.0457,1103.8472,178.1149,1094.78,181.96" style="stroke:#181818;stroke-width:1.0;"/><text fill="#000000" font-family="sans-serif" font-size="13" lengthAdjust="spacing" textLength="45" x="1206" y="180.0669">extend</text></g><!--reverse link insertRestInfo to editRestInfo--><g id="link_insertRestInfo_editRestInfo"><path d="M1068.54,156.31 C1179.54,139.8 1328.85,117.58 1437.76,101.38 " fill="none" id="insertRestInfo-backto-editRestInfo" style="stroke:#181818;stroke-width:1.0;stroke-dasharray:7.0,7.0;"/><polygon fill="#181818" points="1063.28,157.09,1072.7734,159.712,1068.2248,156.349,1071.5878,151.8004,1063.28,157.09" style="stroke:#181818;stroke-width:1.0;"/><text fill="#000000" font-family="sans-serif" font-size="13" lengthAdjust="spacing" textLength="45" x="1206" y="126.0669">extend</text></g><!--reverse link insertTableInfo to editTableInfo--><g id="link_insertTableInfo_editTableInfo"><path d="M1742.34,172.05 C1834.05,161.68 1948.88,148.7 2039.8,138.43 " fill="none" id="insertTableInfo-backto-editTableInfo" style="stroke:#181818;stroke-width:1.0;stroke-dasharray:7.0,7.0;"/><polygon fill="#181818" points="1737.16,172.63,1746.5579,175.5761,1742.1273,172.059,1745.6444,167.6284,1737.16,172.63" style="stroke:#181818;stroke-width:1.0;"/><text fill="#000000" font-family="sans-serif" font-size="13" lengthAdjust="spacing" textLength="45" x="1914" y="146.0669">extend</text></g><!--reverse link insertTableInfo to insertTableMap--><g id="link_insertTableInfo_insertTableMap"><path d="M1752.18,202.99 C1829.66,208.95 1921.92,216.05 2002.04,222.22 " fill="none" id="insertTableInfo-backto-insertTableMap" style="stroke:#181818;stroke-width:1.0;stroke-dasharray:7.0,7.0;"/><polygon fill="#181818" points="1747.1,202.6,1755.7647,207.2823,1752.0851,202.9857,1756.3817,199.3061,1747.1,202.6" style="stroke:#181818;stroke-width:1.0;"/><text fill="#000000" font-family="sans-serif" font-size="13" lengthAdjust="spacing" textLength="45" x="1914" y="213.0669">extend</text></g><!--reverse link regUl to cancelRegUl--><g id="link_regUl_cancelRegUl"><path d="M487.622,404.452 C570.23,404.752 679.007,405.147 766.013,405.463 " fill="none" id="regUl-backto-cancelRegUl" style="stroke:#181818;stroke-width:1.0;stroke-dasharray:7.0,7.0;"/><polygon fill="#181818" points="482.219,404.433,491.2041,408.4664,487.219,404.4516,491.2338,400.4665,482.219,404.433" style="stroke:#181818;stroke-width:1.0;"/><text fill="#000000" font-family="sans-serif" font-size="13" lengthAdjust="spacing" textLength="45" x="579" y="401.0669">extend</text></g><!--link manager to regUl--><g id="link_manager_regUl"><path d="M100.2309,464.851 C116.176,459.102 134.817,452.792 152,448 C189.86,437.442 232.2,428.083 268.819,420.741 " fill="none" id="manager-regUl" style="stroke:#181818;stroke-width:1.0;"/></g><!--link manager to checkCl--><g id="link_manager_checkCl"><path d="M100.0941,483.689 C123.841,485.902 155.862,488.886 189.331,492.004 " fill="none" id="manager-checkCl" style="stroke:#181818;stroke-width:1.0;"/></g><!--reverse link checkCl to newActivate--><g id="link_checkCl_newActivate"><path d="M553.156,506.62 C624.87,506.099 705.145,505.516 771.739,505.033 " fill="none" id="checkCl-backto-newActivate" style="stroke:#181818;stroke-width:1.0;stroke-dasharray:7.0,7.0;"/><polygon fill="#181818" points="548.008,506.657,557.0363,510.5926,553.0079,506.6213,556.9792,502.5928,548.008,506.657" style="stroke:#181818;stroke-width:1.0;"/><text fill="#000000" font-family="sans-serif" font-size="13" lengthAdjust="spacing" textLength="45" x="579" y="503.0669">include</text></g><!--reverse link checkCl to chooseIndividualConditions--><g id="link_checkCl_chooseIndividualConditions"><path d="M514.299,534.91 C599.834,550.123 705.571,568.929 786.803,583.377 " fill="none" id="checkCl-backto-chooseIndividualConditions" style="stroke:#181818;stroke-width:1.0;stroke-dasharray:7.0,7.0;"/><polygon fill="#181818" points="509.211,534.005,517.3729,539.5171,514.134,534.8793,518.7718,531.6404,509.211,534.005" style="stroke:#181818;stroke-width:1.0;"/><text fill="#000000" font-family="sans-serif" font-size="13" lengthAdjust="spacing" textLength="45" x="579" y="545.0669">extend</text></g><!--link fl to regFl--><g id="link_fl_regFl"><path d="M113.187,951.629 C165.199,927.57 244.692,890.8 299.551,865.424 " fill="none" id="fl-regFl" style="stroke:#181818;stroke-width:1.0;"/></g><!--link fl to bookingView--><g id="link_fl_bookingView"><path d="M113.056,1002.072 C125.636,1007.766 139.15,1013.445 152,1018 C369.526,1095.115 429.537,1097.698 655,1147 C704.444,1157.812 759.581,1168.0655 806.232,1176.2201 " fill="none" id="fl-bookingView" style="stroke:#181818;stroke-width:1.0;"/></g><!--link fl to searchRest--><g id="link_fl_searchRest"><path d="M113.187,976 C151.565,976 204.905,976 252.27,976 " fill="none" id="fl-searchRest" style="stroke:#181818;stroke-width:1.0;"/></g><!--reverse link regFl to cancelRegFl--><g id="link_regFl_cancelRegFl"><path d="M465.253,812.672 C521.237,799.482 591.872,783.052 655,769 C698.524,759.312 746.249,749.069 788.744,740.083 " fill="none" id="regFl-backto-cancelRegFl" style="stroke:#181818;stroke-width:1.0;stroke-dasharray:7.0,7.0;"/><polygon fill="#181818" points="460.225,813.857,469.9027,815.685,465.0916,812.7097,468.067,807.8985,460.225,813.857" style="stroke:#181818;stroke-width:1.0;"/><text fill="#000000" font-family="sans-serif" font-size="13" lengthAdjust="spacing" textLength="45" x="579" y="772.0669">extend</text></g><!--reverse link searchRest to bookingTableList--><g id="link_searchRest_bookingTableList"><path d="M446.276,994.128 C504.675,1006.801 584.578,1024.062 655,1039 C699.595,1048.46 748.542,1058.701 791.762,1067.696 " fill="none" id="searchRest-backto-bookingTableList" style="stroke:#181818;stroke-width:1.0;stroke-dasharray:7.0,7.0;"/><polygon fill="#181818" points="441.048,992.993,448.9936,998.8125,445.934,994.0545,450.692,990.9949,441.048,992.993" style="stroke:#181818;stroke-width:1.0;"/><text fill="#000000" font-family="sans-serif" font-size="13" lengthAdjust="spacing" textLength="45" x="579" y="1019.0669">extend</text></g><!--reverse link searchRest to bookingTableGuest--><g id="link_searchRest_bookingTableGuest"><path d="M476.892,976 C540.974,976 623.1,976 698.831,976 " fill="none" id="searchRest-backto-bookingTableGuest" style="stroke:#181818;stroke-width:1.0;stroke-dasharray:7.0,7.0;"/><polygon fill="#181818" points="471.531,976,480.531,980,476.531,976,480.531,972,471.531,976" style="stroke:#181818;stroke-width:1.0;"/><text fill="#000000" font-family="sans-serif" font-size="13" lengthAdjust="spacing" textLength="45" x="579" y="972.0669">extend</text></g><!--reverse link searchRest to bookingTableMap--><g id="link_searchRest_bookingTableMap"><path d="M441.576,956.748 C520.348,937.448 644.119,907.123 745.214,882.354 " fill="none" id="searchRest-backto-bookingTableMap" style="stroke:#181818;stroke-width:1.0;stroke-dasharray:7.0,7.0;"/><polygon fill="#181818" points="436.453,958.003,446.1464,959.7458,441.3093,956.8129,444.2422,951.9757,436.453,958.003" style="stroke:#181818;stroke-width:1.0;"/><text fill="#000000" font-family="sans-serif" font-size="13" lengthAdjust="spacing" textLength="45" x="579" y="908.0669">extend</text></g><!--reverse link bookingView to bookingCancel--><g id="link_bookingView_bookingCancel"><path d="M1056.31,1192.9458 C1174.51,1192.0578 1342.07,1190.7989 1455.91,1189.9436 " fill="none" id="bookingView-backto-bookingCancel" style="stroke:#181818;stroke-width:1.0;stroke-dasharray:7.0,7.0;"/><polygon fill="#181818" points="1051.07,1192.9852,1060.104,1196.9079,1056.0698,1192.9423,1060.0354,1188.9082,1051.07,1192.9852" style="stroke:#181818;stroke-width:1.0;"/><text fill="#000000" font-family="sans-serif" font-size="13" lengthAdjust="spacing" textLength="45" x="1206" y="1187.0669">extend</text></g><!--link bookingView to authFl--><g id="link_bookingView_authFl"><path d="M1026.59,1177.0199 C1072.74,1169.1363 1126.74,1158.8696 1175,1147 C1286.05,1119.688 1411.3,1079.02 1493.05,1051.104 " fill="none" id="bookingView-to-authFl" style="stroke:#181818;stroke-width:1.0;stroke-dasharray:7.0,7.0;"/><polygon fill="#181818" points="1497.88,1049.451,1488.0682,1048.5979,1493.1522,1051.0783,1490.6719,1056.1624,1497.88,1049.451" style="stroke:#181818;stroke-width:1.0;"/><text fill="#000000" font-family="sans-serif" font-size="13" lengthAdjust="spacing" textLength="45" x="1206" y="1125.0669">include</text></g><!--link bookingTableList to authFl--><g id="link_bookingTableList_authFl"><path d="M1067.01,1076.435 C1177.05,1064.364 1325.35,1048.098 1434.46,1036.129 " fill="none" id="bookingTableList-to-authFl" style="stroke:#181818;stroke-width:1.0;stroke-dasharray:7.0,7.0;"/><polygon fill="#181818" points="1439.62,1035.563,1430.239,1032.5636,1434.6495,1036.1058,1431.1074,1040.5163,1439.62,1035.563" style="stroke:#181818;stroke-width:1.0;"/><text fill="#000000" font-family="sans-serif" font-size="13" lengthAdjust="spacing" textLength="45" x="1206" y="1052.0669">include</text></g><!--link bookingTableGuest to authFl--><g id="link_bookingTableGuest_authFl"><path d="M1121.56,989.591 C1219.08,996.039 1333.77,1003.621 1424.22,1009.602 " fill="none" id="bookingTableGuest-to-authFl" style="stroke:#181818;stroke-width:1.0;stroke-dasharray:7.0,7.0;"/><polygon fill="#181818" points="1429.33,1009.939,1420.6123,1005.3561,1424.3408,1009.6104,1420.0866,1013.3388,1429.33,1009.939" style="stroke:#181818;stroke-width:1.0;"/><text fill="#000000" font-family="sans-serif" font-size="13" lengthAdjust="spacing" textLength="45" x="1206" y="991.0669">include</text></g><!--link bookingTableMap to authFl--><g id="link_bookingTableMap_authFl"><path d="M1075.83,883.989 C1200,917.387 1368.65,962.75 1476.31,991.707 " fill="none" id="bookingTableMap-to-authFl" style="stroke:#181818;stroke-width:1.0;stroke-dasharray:7.0,7.0;"/><polygon fill="#181818" points="1481.39,993.073,1473.7398,986.8702,1476.562,991.7728,1471.6595,994.595,1481.39,993.073" style="stroke:#181818;stroke-width:1.0;"/><text fill="#000000" font-family="sans-serif" font-size="13" lengthAdjust="spacing" textLength="45" x="1206" y="915.0669">include</text></g><!--SRC=[fLPDRzj64BtlhrZeKkSW8yftZA90AoH14ESI9Bapr4eYJ9C2ISKnWW3-Y9E30pWDUYYAjYdw2sJ5gcN7fl_2xZ_gp90YTqbAifA3OOhxzhsPtJSpT4Kxuf7F0wVJZNZB2OGTERx7Vk3XckFrhC1QvwkE9wBDdk1-47LznYmxyWDUat_8ht8iH_9SxTIu5VA-cotzYQ_XxqZ-9qTgYvRNBS_gY233V9Qn_Ae-o6FuFvG3jGDu-4tOjiiOXc9v7LVmsXCHHlullhzMuwyXD5sPzKDXMw7WIy-QzSOAb__0-ozohBRLZje2sdVmVC3bQRv53gwWHY0wprnZ-pNO_ZUidr7q0mxxIrnoNCLbMvujt2Sbnkl0-57jKcw87gktiFDqLbXMF-eMM6uWYpp5_NHIwLxOgTv3e37462FLG1u20iuz9uFRV6b5OlMHGNWJ23z3Hh7QXcHZp8xZJeWkXjTdUQen1yWG94RoXDFY5v0vXyNZ2OY4Gc45TlUXr_ODeLiWz3j0pr8_uCRHTqg9bXCr_VMUvMsMz6w3tcz0SGWxXt10SnNXXl5sQGN5HYJXUA488dHTIU7EOXbLysCAbUnt5usVkCb3QAezBVgdrWjNb0GQLwSe0DCU_3XJ-voilYqlY3Z62aOCECvGWw8jgZssUgPOOy7hhqW6ZofF1Oj_IjymbQzDxmGNbViF9ZtXlbbxZUkNR0gpQBFsK2I_CQy_p6B5Jb4anCh-fFRXUk5uo_ORQCMA1ZGtOxN-Ycs1xdihaSpzOTmztk8n9vl0KM38HFq2chJZTUZ6LfsYmEs512wIhXQdZIx9PAXsEVOx-W6TegJwe5_Awyv2idJ9QJKWOA5gq2CfbSFTghPxM1cOaTTpHsoOW-fgmPJLBAbFKfOccP1Ag32UJUv6zRGv9zvirXJ7bYSsVaw7ZKc7bOWbUvHwaYRK4N6FvP7QXL3HuETgN-rnA8LjEkPXTWPsr_T3gFwMyz9fzIstwSCZVgE4cOxT5VPQqqLq3IMnP3zXOdFcBQlNsRrNaV2GZlTynul25VQjqTOOwxkyNfzyMD1pEisJV_p7vMLjKl8LQ9wsssy9VJqVsTNhvcpIC1enuWfZ4e02Kssn0a7EcRNPcLXzTXM1ESC4EPNJX9f39CSoEak2Q9zOsdhwKPaVk_OYjGKONZCdNrx-YI_9l-0YJz3Y9I_d1pgn5Qhh3DM8wJxDm_Lys9vyQlljMSxE7bVuQ_als9UiZ4M87GiS5sChn0-zILF4PqvpFQOEiuDzSeofSLZUfmOnGD_Ei3IIQvPM1syO1HvcvV7jjLnZS00S3u2nzgHCO7ebptgZIzveCug0fWVkQnx8aOGfJg1B0MbeN0ffs5CBMmScdROQXlPB1hVcerBCSr59m7DX66qbwCt_]--></g></svg>